<?xml version="1.0" encoding="UTF-8" standalone="no"?>
<svg
   role="img"
   width="770"
   height="731.3019954223633"
   version="1.1"
   id="svg508"
   xmlns="http://www.w3.org/2000/svg"
   xmlns:svg="http://www.w3.org/2000/svg">
  <defs
     id="defs512" />
  <path
     d="M 214.28569228349534 656.1549954223633 L 228.09569228349534 656.1549954223633 L 228.09569228349534 656.8549954223633 L 214.28569228349534 656.8549954223633 z"
     stroke="none"
     fill="#000000"
     class=""
     id="path2" />
  <path
     d="M 214.28569228349534 663.9049954223633 L 228.09569228349534 663.9049954223633 L 228.09569228349534 664.6049954223633 L 214.28569228349534 664.6049954223633 z"
     stroke="none"
     fill="#000000"
     class=""
     id="path4" />
  <g
     id="g16">
    <path
       d="M 15 617.4049954223633 L 487.4044483093764 617.4049954223633 L 487.4044483093764 618.1049954223633 L 15 618.1049954223633 z"
       stroke="none"
       fill="#000000"
       class=""
       id="path6" />
    <path
       d="M 15 625.1549954223633 L 487.4044483093764 625.1549954223633 L 487.4044483093764 625.8549954223633 L 15 625.8549954223633 z"
       stroke="none"
       fill="#000000"
       class=""
       id="path8" />
    <path
       d="M 15 632.9049954223633 L 487.4044483093764 632.9049954223633 L 487.4044483093764 633.6049954223633 L 15 633.6049954223633 z"
       stroke="none"
       fill="#000000"
       class=""
       id="path10" />
    <path
       d="M 15 640.6549954223633 L 487.4044483093764 640.6549954223633 L 487.4044483093764 641.3549954223633 L 15 641.3549954223633 z"
       stroke="none"
       fill="#000000"
       class=""
       id="path12" />
    <path
       d="M 15 648.4049954223633 L 487.4044483093764 648.4049954223633 L 487.4044483093764 649.1049954223633 L 15 649.1049954223633 z"
       stroke="none"
       fill="#000000"
       class=""
       id="path14" />
  </g>
  <path
     d="M 0 588.65 L 100 588.65 L 100 589.35 L 0 589.35 z"
     stroke="none"
     fill="rgba(0,0,0,0)"
     fill-opacity="0"
     class=""
     data-vertical="589"
     id="path18" />
  <g
     id="g30">
    <path
       d="M 15 525.0749954223633 L 755 525.0749954223633 L 755 525.7749954223633 L 15 525.7749954223633 z"
       stroke="none"
       fill="#000000"
       class=""
       id="path20" />
    <path
       d="M 15 532.8249954223633 L 755 532.8249954223633 L 755 533.5249954223633 L 15 533.5249954223633 z"
       stroke="none"
       fill="#000000"
       class=""
       id="path22" />
    <path
       d="M 15 540.5749954223633 L 755 540.5749954223633 L 755 541.2749954223633 L 15 541.2749954223633 z"
       stroke="none"
       fill="#000000"
       class=""
       id="path24" />
    <path
       d="M 15 548.3249954223633 L 755 548.3249954223633 L 755 549.0249954223633 L 15 549.0249954223633 z"
       stroke="none"
       fill="#000000"
       class=""
       id="path26" />
    <path
       d="M 15 556.0749954223633 L 755 556.0749954223633 L 755 556.7749954223633 L 15 556.7749954223633 z"
       stroke="none"
       fill="#000000"
       class=""
       id="path28" />
  </g>
  <path
     d="M 0 496.65 L 100 496.65 L 100 497.35 L 0 497.35 z"
     stroke="none"
     fill="rgba(0,0,0,0)"
     fill-opacity="0"
     class=""
     data-vertical="497"
     id="path32" />
  <g
     id="g44">
    <path
       d="M 15 432.74499542236333 L 755 432.74499542236333 L 755 433.4449954223634 L 15 433.4449954223634 z"
       stroke="none"
       fill="#000000"
       class=""
       id="path34" />
    <path
       d="M 15 440.49499542236333 L 755 440.49499542236333 L 755 441.1949954223634 L 15 441.1949954223634 z"
       stroke="none"
       fill="#000000"
       class=""
       id="path36" />
    <path
       d="M 15 448.24499542236333 L 755 448.24499542236333 L 755 448.9449954223634 L 15 448.9449954223634 z"
       stroke="none"
       fill="#000000"
       class=""
       id="path38" />
    <path
       d="M 15 455.99499542236333 L 755 455.99499542236333 L 755 456.6949954223634 L 15 456.6949954223634 z"
       stroke="none"
       fill="#000000"
       class=""
       id="path40" />
    <path
       d="M 15 463.74499542236333 L 755 463.74499542236333 L 755 464.4449954223634 L 15 464.4449954223634 z"
       stroke="none"
       fill="#000000"
       class=""
       id="path42" />
  </g>
  <path
     d="M 0 403.65 L 100 403.65 L 100 404.35 L 0 404.35 z"
     stroke="none"
     fill="rgba(0,0,0,0)"
     fill-opacity="0"
     class=""
     data-vertical="404"
     id="path46" />
  <path
     d="M 163.55273746380493 379.1649954223633 L 177.36273746380493 379.1649954223633 L 177.36273746380493 379.86499542236334 L 163.55273746380493 379.86499542236334 z"
     stroke="none"
     fill="#000000"
     class=""
     id="path48" />
  <g
     id="g60">
    <path
       d="M 15 340.4149954223633 L 755 340.4149954223633 L 755 341.11499542236334 L 15 341.11499542236334 z"
       stroke="none"
       fill="#000000"
       class=""
       id="path50" />
    <path
       d="M 15 348.1649954223633 L 755 348.1649954223633 L 755 348.86499542236334 L 15 348.86499542236334 z"
       stroke="none"
       fill="#000000"
       class=""
       id="path52" />
    <path
       d="M 15 355.9149954223633 L 755 355.9149954223633 L 755 356.61499542236334 L 15 356.61499542236334 z"
       stroke="none"
       fill="#000000"
       class=""
       id="path54" />
    <path
       d="M 15 363.6649954223633 L 755 363.6649954223633 L 755 364.36499542236334 L 15 364.36499542236334 z"
       stroke="none"
       fill="#000000"
       class=""
       id="path56" />
    <path
       d="M 15 371.4149954223633 L 755 371.4149954223633 L 755 372.11499542236334 L 15 372.11499542236334 z"
       stroke="none"
       fill="#000000"
       class=""
       id="path58" />
  </g>
  <path
     d="M 0 311.65 L 100 311.65 L 100 312.35 L 0 312.35 z"
     stroke="none"
     fill="rgba(0,0,0,0)"
     fill-opacity="0"
     class=""
     data-vertical="312"
     id="path62" />
  <path
     d="M 360.7914800017776 286.83499542236325 L 374.6014800017776 286.83499542236325 L 374.6014800017776 287.5349954223633 L 360.7914800017776 287.5349954223633 z"
     stroke="none"
     fill="#000000"
     class=""
     id="path64" />
  <path
     d="M 360.7914800017776 294.58499542236325 L 374.6014800017776 294.58499542236325 L 374.6014800017776 295.2849954223633 L 360.7914800017776 295.2849954223633 z"
     stroke="none"
     fill="#000000"
     class=""
     id="path66" />
  <path
     d="M 143.37569493444332 286.83499542236325 L 157.74569493444332 286.83499542236325 L 157.74569493444332 287.5349954223633 L 143.37569493444332 287.5349954223633 z"
     stroke="none"
     fill="#000000"
     class=""
     id="path68" />
  <path
     d="M 143.37569493444332 294.58499542236325 L 157.74569493444332 294.58499542236325 L 157.74569493444332 295.2849954223633 L 143.37569493444332 295.2849954223633 z"
     stroke="none"
     fill="#000000"
     class=""
     id="path70" />
  <path
     d="M 74.051 286.83499542236325 L 87.861 286.83499542236325 L 87.861 287.5349954223633 L 74.051 287.5349954223633 z"
     stroke="none"
     fill="#000000"
     class=""
     id="path72" />
  <g
     id="g84">
    <path
       d="M 15 248.08499542236328 L 755 248.08499542236328 L 755 248.78499542236327 L 15 248.78499542236327 z"
       stroke="none"
       fill="#000000"
       class=""
       id="path74" />
    <path
       d="M 15 255.83499542236328 L 755 255.83499542236328 L 755 256.5349954223633 L 15 256.5349954223633 z"
       stroke="none"
       fill="#000000"
       class=""
       id="path76" />
    <path
       d="M 15 263.58499542236325 L 755 263.58499542236325 L 755 264.2849954223633 L 15 264.2849954223633 z"
       stroke="none"
       fill="#000000"
       class=""
       id="path78" />
    <path
       d="M 15 271.33499542236325 L 755 271.33499542236325 L 755 272.0349954223633 L 15 272.0349954223633 z"
       stroke="none"
       fill="#000000"
       class=""
       id="path80" />
    <path
       d="M 15 279.08499542236325 L 755 279.08499542236325 L 755 279.7849954223633 L 15 279.7849954223633 z"
       stroke="none"
       fill="#000000"
       class=""
       id="path82" />
  </g>
  <path
     d="M 0 219.65 L 100 219.65 L 100 220.35 L 0 220.35 z"
     stroke="none"
     fill="rgba(0,0,0,0)"
     fill-opacity="0"
     class=""
     data-vertical="220"
     id="path86" />
  <path
     d="M 172.18204397653471 194.5049954223633 L 185.99204397653472 194.5049954223633 L 185.99204397653472 195.20499542236328 L 172.18204397653471 195.20499542236328 z"
     stroke="none"
     fill="#000000"
     class=""
     id="path88" />
  <path
     d="M 172.18204397653471 202.2549954223633 L 185.99204397653472 202.2549954223633 L 185.99204397653472 202.95499542236328 L 172.18204397653471 202.95499542236328 z"
     stroke="none"
     fill="#000000"
     class=""
     id="path90" />
  <g
     id="g102">
    <path
       d="M 15 155.7549954223633 L 755 155.7549954223633 L 755 156.45499542236328 L 15 156.45499542236328 z"
       stroke="none"
       fill="#000000"
       class=""
       id="path92" />
    <path
       d="M 15 163.5049954223633 L 755 163.5049954223633 L 755 164.20499542236328 L 15 164.20499542236328 z"
       stroke="none"
       fill="#000000"
       class=""
       id="path94" />
    <path
       d="M 15 171.2549954223633 L 755 171.2549954223633 L 755 171.95499542236328 L 15 171.95499542236328 z"
       stroke="none"
       fill="#000000"
       class=""
       id="path96" />
    <path
       d="M 15 179.0049954223633 L 755 179.0049954223633 L 755 179.70499542236328 L 15 179.70499542236328 z"
       stroke="none"
       fill="#000000"
       class=""
       id="path98" />
    <path
       d="M 15 186.7549954223633 L 755 186.7549954223633 L 755 187.45499542236328 L 15 187.45499542236328 z"
       stroke="none"
       fill="#000000"
       class=""
       id="path100" />
  </g>
  <path
     d="M 0 126.65 L 100 126.65 L 100 127.35 L 0 127.35 z"
     stroke="none"
     fill="rgba(0,0,0,0)"
     fill-opacity="0"
     class=""
     data-vertical="127"
     id="path104" />
  <text
     font-size="26.666666666666668"
     font-style="normal"
     font-family="&quot;Times New Roman&quot;"
     font-weight="normal"
     text-decoration="none"
     class=""
     font=""
     text-anchor="middle"
     x="385"
     y="29.56"
     dy="0.5em"
     id="text108"><tspan
       x="385"
       id="tspan106">Когда весна придёт (When Spring Arrives)</tspan></text>
  <text
     font-size="18.666666666666668"
     font-style="italic"
     font-family="&quot;Times New Roman&quot;"
     font-weight="normal"
     text-decoration="none"
     class=""
     font=""
     text-anchor="end"
     x="755"
     y="67.12"
     dy="0.5em"
     id="text116"><tspan
       x="755"
       id="tspan110">Tune: B. Mokrousov</tspan><tspan
       x="755"
       dy="1.2em"
       id="tspan112">Lyrics: A. Fatyanov</tspan><tspan
       x="755"
       dy="1.2em"
       id="tspan114">Composed for the film &quot;Spring on Zarechnaya Street&quot; (1956)</tspan></text>
  <path
     d="m 29.689999999999998 141.9449954223633c 0.09 -0.09 0.24 -0.06 0.36 0c 0.12 0.09 0.57 0.6 0.96 1.11c 1.77 2.34 3.21 5.85 3.57 8.73c 0.21 1.56 0.03 3.27 -0.45 4.86c -0.69 2.31 -1.92 4.47 -4.23 7.44c -0.3 0.39 -0.57 0.72 -0.6 0.75c -0.03 0.06 0 0.15 0.18 0.78c 0.54 1.68 1.38 4.44 1.68 5.49l 0.09 0.42l 0.39 0c 1.47 0.09 2.76 0.51 3.96 1.29c 1.83 1.23 3.06 3.21 3.39 5.52c 0.09 0.45 0.12 1.29 0.06 1.74c -0.09 1.02 -0.33 1.83 -0.75 2.73c -0.84 1.71 -2.28 3.06 -4.02 3.72l -0.33 0.12l 0.03 1.26c 0 1.74 -0.06 3.63 -0.21 4.62c -0.45 3.06 -2.19 5.49 -4.47 6.21c -0.57 0.18 -0.9 0.21 -1.59 0.21c -0.69 0 -1.02 -0.03 -1.65 -0.21c -1.14 -0.27 -2.13 -0.84 -2.94 -1.65c -0.99 -0.99 -1.56 -2.16 -1.71 -3.54c -0.09 -0.81 0.06 -1.53 0.45 -2.13c 0.63 -0.99 1.83 -1.56 3 -1.53c 1.5 0.09 2.64 1.32 2.73 2.94c 0.06 1.47 -0.93 2.7 -2.37 2.97c -0.45 0.06 -0.84 0.03 -1.29 -0.09l -0.21 -0.09l 0.09 0.12c 0.39 0.54 0.78 0.93 1.32 1.26c 1.35 0.87 3.06 1.02 4.35 0.36c 1.44 -0.72 2.52 -2.28 2.97 -4.35c 0.15 -0.66 0.24 -1.5 0.3 -3.03c 0.03 -0.84 0.03 -2.94 0 -3c -0.03 0 -0.18 0 -0.36 0.03c -0.66 0.12 -0.99 0.12 -1.83 0.12c -1.05 0 -1.71 -0.06 -2.61 -0.3c -4.02 -0.99 -7.11 -4.35 -7.8 -8.46c -0.12 -0.66 -0.12 -0.99 -0.12 -1.83c 0 -0.84 0 -1.14 0.15 -1.92c 0.36 -2.28 1.41 -4.62 3.3 -7.29l 2.79 -3.6c 0.54 -0.66 0.96 -1.2 0.96 -1.23c 0 -0.03 -0.09 -0.33 -0.18 -0.69c -0.96 -3.21 -1.41 -5.28 -1.59 -7.68c -0.12 -1.38 -0.15 -3.09 -0.06 -3.96c 0.33 -2.67 1.38 -5.07 3.12 -7.08c 0.36 -0.42 0.99 -1.05 1.17 -1.14zm 2.01 4.71c -0.15 -0.3 -0.3 -0.54 -0.3 -0.54c -0.03 0 -0.18 0.09 -0.3 0.21c -2.4 1.74 -3.87 4.2 -4.26 7.11c -0.06 0.54 -0.06 1.41 -0.03 1.89c 0.09 1.29 0.48 3.12 1.08 5.22c 0.15 0.42 0.24 0.78 0.24 0.81c 0 0.03 0.84 -1.11 1.23 -1.68c 1.89 -2.73 2.88 -5.07 3.15 -7.53c 0.09 -0.57 0.12 -1.74 0.06 -2.37c -0.09 -1.23 -0.27 -1.92 -0.87 -3.12zm -2.94 20.7c -0.21 -0.72 -0.39 -1.32 -0.42 -1.32c 0 0 -1.2 1.47 -1.86 2.37c -2.79 3.63 -4.02 6.3 -4.35 9.3c -0.03 0.21 -0.03 0.69 -0.03 1.08c 0 0.69 0 0.75 0.06 1.11c 0.12 0.54 0.27 0.99 0.51 1.47c 0.69 1.38 1.83 2.55 3.42 3.42c 0.96 0.54 2.07 0.9 3.21 1.08c 0.78 0.12 2.04 0.12 2.94 -0.03c 0.51 -0.06 0.45 -0.03 0.42 -0.3c -0.24 -3.33 -0.72 -6.33 -1.62 -10.08c -0.09 -0.39 -0.18 -0.75 -0.18 -0.78c -0.03 -0.03 -0.42 0 -0.81 0.09c -0.9 0.18 -1.65 0.57 -2.22 1.14c -0.72 0.72 -1.08 1.65 -1.05 2.64c 0.06 0.96 0.48 1.83 1.23 2.58c 0.36 0.36 0.72 0.63 1.17 0.9c 0.33 0.18 0.36 0.21 0.42 0.33c 0.18 0.42 -0.18 0.9 -0.6 0.87c -0.18 -0.03 -0.84 -0.36 -1.26 -0.63c -0.78 -0.51 -1.38 -1.11 -1.86 -1.83c -1.77 -2.7 -0.99 -6.42 1.71 -8.19c 0.3 -0.21 0.81 -0.48 1.17 -0.63c 0.3 -0.09 1.02 -0.3 1.14 -0.3c 0.06 0 0.09 0 0.09 -0.03c 0.03 -0.03 -0.51 -1.92 -1.23 -4.26zm 3.78 7.41c -0.18 -0.03 -0.36 -0.06 -0.39 -0.06c -0.03 0 0 0.21 0.18 1.02c 0.75 3.18 1.26 6.3 1.5 9.09c 0.06 0.72 0 0.69 0.51 0.42c 0.78 -0.36 1.44 -0.96 1.98 -1.77c 1.08 -1.62 1.2 -3.69 0.3 -5.55c -0.81 -1.62 -2.31 -2.79 -4.08 -3.15z"
     stroke="none"
     fill="#000000"
     class=""
     id="path118" />
  <rect
     x="15"
     y="144.4799954223633"
     width="24.051"
     height="54.25"
     fill="#000000"
     stroke="#000000"
     fill-opacity="0"
     stroke-opacity="0"
     id="rect120" />
  <path
     d="m 48.691 157.5349954223633c 0.33 -0.06 0.87 0 1.08 0.15c 0.06 0.03 0.06 0.36 -0.03 5.25c -0.06 2.85 -0.09 5.19 -0.09 5.19c 0 0.03 0.12 -0.03 0.24 -0.12c 0.63 -0.42 1.41 -0.66 2.19 -0.72c 0.81 -0.03 1.47 0.21 2.04 0.78c 0.57 0.54 0.87 1.26 0.93 2.04c 0.03 0.57 -0.09 1.08 -0.36 1.62c -0.42 0.81 -1.02 1.38 -2.82 2.61c -1.14 0.78 -1.44 1.02 -1.8 1.44c -0.18 0.18 -0.39 0.39 -0.45 0.42c -0.27 0.18 -0.57 0.15 -0.81 -0.06c -0.06 -0.09 -0.12 -0.18 -0.15 -0.27c -0.03 -0.06 -0.09 -3.27 -0.18 -8.34c -0.09 -4.53 -0.15 -8.58 -0.18 -9.03l 0 -0.78l 0.12 -0.06c 0.06 -0.03 0.18 -0.09 0.27 -0.12zm 3.18 11.01c -0.21 -0.12 -0.54 -0.15 -0.81 -0.06c -0.54 0.15 -0.99 0.63 -1.17 1.26c -0.06 0.3 -0.12 2.88 -0.06 3.87c 0.03 0.42 0.03 0.81 0.06 0.9l 0.03 0.12l 0.45 -0.39c 0.63 -0.54 1.26 -1.17 1.56 -1.59c 0.3 -0.42 0.6 -0.99 0.72 -1.41c 0.18 -0.69 0.09 -1.47 -0.18 -2.07c -0.15 -0.3 -0.33 -0.51 -0.6 -0.63z"
     stroke="none"
     fill="#000000"
     class=""
     id="path122" />
  <rect
     x="49.051"
     y="162.2044954223633"
     width="6.75"
     height="18.800999999999988"
     fill="#000000"
     stroke="#000000"
     fill-opacity="0"
     stroke-opacity="0"
     id="rect124" />
  <path
     d="m 69.581 156.6349954223633c 0.3 -0.03 1.41 0 1.83 0.06c 2.22 0.3 3.51 1.32 3.72 2.91c 0.03 0.33 0.03 1.26 -0.03 1.65c -0.12 0.84 -0.48 1.47 -1.05 1.77c -0.27 0.15 -0.36 0.24 -0.45 0.39c -0.09 0.21 -0.09 0.36 0 0.57c 0.09 0.15 0.18 0.24 0.51 0.39c 0.75 0.42 1.23 1.14 1.41 2.13c 0.06 0.42 0.06 1.35 0 1.71c -0.18 0.81 -0.48 1.38 -1.02 1.95c -0.75 0.72 -1.8 1.2 -3.18 1.38c -0.42 0.06 -1.56 0.06 -1.95 0c -1.89 -0.33 -3.18 -1.29 -3.51 -2.64c -0.03 -0.12 -0.03 -0.33 -0.03 -0.6c 0 -0.36 0 -0.42 0.06 -0.63c 0.12 -0.3 0.27 -0.51 0.51 -0.75c 0.24 -0.24 0.45 -0.39 0.75 -0.51c 0.21 -0.06 0.27 -0.06 0.6 -0.06c 0.33 0 0.39 0 0.6 0.06c 0.3 0.12 0.51 0.27 0.75 0.51c 0.36 0.33 0.57 0.75 0.6 1.2c 0 0.21 0 0.27 -0.06 0.42c -0.09 0.18 -0.12 0.24 -0.54 0.54c -0.51 0.36 -0.63 0.54 -0.6 0.87c 0.06 0.54 0.54 0.9 1.38 0.99c 0.36 0.06 0.72 0.03 0.96 -0.06c 0.81 -0.27 1.29 -1.23 1.44 -2.79c 0.03 -0.45 0.03 -1.95 -0.03 -2.37c -0.09 -0.75 -0.33 -1.23 -0.75 -1.44c -0.33 -0.18 -0.45 -0.18 -1.98 -0.18c -1.35 0 -1.41 0 -1.5 -0.06c -0.18 -0.12 -0.24 -0.39 -0.12 -0.6c 0.12 -0.15 0.15 -0.15 1.68 -0.15c 1.5 0 1.62 0 1.89 -0.15c 0.18 -0.09 0.42 -0.36 0.54 -0.57c 0.18 -0.42 0.27 -0.9 0.3 -1.95c 0.03 -1.2 -0.06 -1.8 -0.36 -2.37c -0.24 -0.48 -0.63 -0.81 -1.14 -0.96c -0.3 -0.06 -1.08 -0.06 -1.38 0.03c -0.6 0.15 -0.9 0.42 -0.96 0.84c -0.03 0.3 0.06 0.45 0.63 0.84c 0.33 0.24 0.42 0.39 0.45 0.63c 0.03 0.72 -0.57 1.5 -1.32 1.65c -1.05 0.27 -2.1 -0.57 -2.1 -1.65c 0 -0.45 0.15 -0.96 0.39 -1.38c 0.12 -0.21 0.54 -0.63 0.81 -0.81c 0.57 -0.42 1.38 -0.69 2.25 -0.81zm 4.859999999999999 15.530000000000001c 0.27 -0.09 0.42 -0.12 0.54 -0.03c 0.09 0.06 0.15 0.21 0.15 0.3c -0.03 0.06 -1.92 2.31 -4.23 5.04c -2.31 2.73 -4.23 4.98 -4.26 5.01c -0.03 0.06 0.12 0.06 2.55 0.06l 2.61 0l 0 -2.37c 0 -2.19 0.03 -2.37 0.06 -2.46c 0.03 -0.06 0.21 -0.18 0.57 -0.42c 1.08 -0.72 1.38 -1.08 1.86 -2.16c 0.12 -0.3 0.24 -0.54 0.27 -0.57c 0.12 -0.12 0.39 -0.06 0.45 0.12c 0.06 0.09 0.06 0.57 0.06 3.96l 0 3.9l 1.08 0c 1.05 0 1.11 0 1.2 0.06c 0.24 0.15 0.24 0.54 0 0.69c -0.09 0.06 -0.15 0.06 -1.2 0.06l -1.08 0l 0 0.33c 0 0.57 0.09 1.11 0.3 1.53c 0.36 0.75 0.93 1.17 1.68 1.26c 0.3 0.03 0.39 0.09 0.39 0.3c 0 0.15 -0.03 0.18 -0.09 0.24c -0.06 0.06 -0.09 0.06 -0.48 0.06c -0.42 0 -0.69 -0.03 -2.1 -0.24c -0.9 -0.15 -1.77 -0.15 -2.67 0c -1.41 0.21 -1.68 0.24 -2.1 0.24c -0.39 0 -0.42 0 -0.48 -0.06c -0.06 -0.06 -0.06 -0.09 -0.06 -0.24c 0 -0.21 0.06 -0.27 0.36 -0.3c 0.75 -0.09 1.32 -0.51 1.68 -1.26c 0.21 -0.42 0.3 -0.96 0.3 -1.53l 0 -0.33l -2.7 0c -2.91 0 -2.85 0 -3.09 -0.15c -0.18 -0.12 -0.3 -0.39 -0.27 -0.54c 0.03 -0.06 0.18 -0.24 0.33 -0.45c 0.75 -0.9 1.59 -2.07 2.13 -3.03c 0.33 -0.54 0.84 -1.62 1.05 -2.16c 0.57 -1.41 0.84 -2.64 0.9 -4.05c 0.03 -0.63 0.06 -0.72 0.24 -0.81l 0.12 -0.06l 0.45 0.12c 0.66 0.18 1.02 0.24 1.47 0.27c 0.6 0.03 1.23 -0.09 2.01 -0.33z"
     stroke="none"
     fill="#000000"
     class=""
     id="path126" />
  <rect
     x="65.801"
     y="156.3714954223633"
     width="11.795"
     height="30.480500000000006"
     fill="#000000"
     stroke="#000000"
     fill-opacity="0"
     stroke-opacity="0"
     id="rect128" />
  <text
     font-size="16"
     font-style="normal"
     font-family="Helvetica"
     font-weight="normal"
     text-decoration="none"
     class=""
     font=""
     text-anchor="middle"
     x="100.0413125"
     y="134.4799954223633"
     dy="0.5em"
     id="text132"><tspan
       x="100.0413125"
       id="tspan130">Dm</tspan></text>
  <path
     d="m 100.1013125 166.98499542236328l 0.09 -0.06l 5.46 0l 5.49 0l 0.09 0.06l 0.06 0.09l 0 2.19l 0 2.19l -0.06 0.09l -0.09 0.06l -5.49 0l -5.46 0l -0.09 -0.06l -0.06 -0.09l 0 -2.19l 0 -2.19z"
     stroke="none"
     fill="#000000"
     class=""
     id="path134" />
  <rect
     x="100.0413125"
     y="127.47999542236329"
     width="12.4453125"
     height="42.59"
     fill="#000000"
     stroke="#000000"
     fill-opacity="0"
     stroke-opacity="0"
     id="rect136" />
  <path
     d="m 180.27204397653472 198.55499542236328c 0.36 -0.03 1.2 0 1.53 0.06c 1.17 0.24 1.89 0.84 2.16 1.83c 0.06 0.18 0.06 0.3 0.06 0.66c 0 0.45 0 0.63 -0.15 1.08c -0.66 2.04 -3.06 3.93 -5.52 4.38c -0.54 0.09 -1.44 0.09 -1.83 0.03c -1.23 -0.27 -1.98 -0.87 -2.25 -1.86c -0.06 -0.18 -0.06 -0.3 -0.06 -0.66c 0 -0.45 0 -0.63 0.15 -1.08c 0.24 -0.78 0.75 -1.53 1.44 -2.22c 1.2 -1.2 2.85 -2.01 4.47 -2.22zm 3.719999999999999 -26.94999999999999L 183.99204397653472 201.31332875569663L 182.99204397653472 201.31332875569663L 182.99204397653472 171.6049954223633z"
     stroke="none"
     fill="#000000"
     class=""
     id="path138" />
  <rect
     x="174.18204397653471"
     y="171.6049954223633"
     width="9.81"
     height="35.047"
     fill="#000000"
     stroke="#000000"
     fill-opacity="0"
     stroke-opacity="0"
     id="rect140" />
  <path
     d="m 226.6074579657233 187.1049954223633L 226.6074579657233 156.1049954223633L 227.2074579657233 156.1049954223633L 227.2074579657233 187.1049954223633z"
     stroke="none"
     fill="#000000"
     class=""
     id="path142" />
  <rect
     x="226.6074579657233"
     y="156.1049954223633"
     width="1"
     height="31"
     fill="#000000"
     stroke="#000000"
     fill-opacity="0"
     stroke-opacity="0"
     id="rect144" />
  <path
     d="m 245.0474579657233 179.17999542236328c 0.06 -0.03 0.27 -0.03 0.48 -0.03c 1.05 0 1.71 0.24 2.1 0.81c 0.42 0.6 0.45 1.35 0.18 2.4c -0.42 1.59 -1.14 2.73 -2.16 3.39c -1.41 0.93 -3.18 1.44 -5.4 1.53c -1.17 0.03 -1.89 -0.21 -2.28 -0.81c -0.42 -0.6 -0.45 -1.35 -0.18 -2.4c 0.42 -1.59 1.14 -2.73 2.16 -3.39c 0.63 -0.42 1.23 -0.72 1.98 -0.96c 0.9 -0.3 1.65 -0.42 3.12 -0.54zm 1.29 0.87c -0.27 -0.09 -0.63 -0.12 -0.9 -0.03c -0.72 0.24 -1.53 0.69 -3.27 1.8c -2.34 1.5 -3.3 2.25 -3.57 2.79c -0.36 0.72 -0.06 1.5 0.66 1.77c 0.24 0.12 0.69 0.09 0.99 0c 0.84 -0.3 1.92 -0.93 4.14 -2.37c 1.62 -1.08 2.37 -1.71 2.61 -2.19c 0.36 -0.72 0.06 -1.5 -0.66 -1.77zm 1.6400000000000148 -23.944999999999993L 247.97745796572332 181.93832875569663L 246.97745796572332 181.93832875569663L 246.97745796572332 156.1049954223633z"
     stroke="none"
     fill="#000000"
     class=""
     id="path146" />
  <rect
     x="237.6074579657233"
     y="156.1049954223633"
     width="10.37"
     height="31.191000000000003"
     fill="#000000"
     stroke="#000000"
     fill-opacity="0"
     stroke-opacity="0"
     id="rect148" />
  <path
     d="m 317.838189442258 183.05499542236328c 0.36 -0.03 1.2 0 1.53 0.06c 1.17 0.24 1.89 0.84 2.16 1.83c 0.06 0.18 0.06 0.3 0.06 0.66c 0 0.45 0 0.63 -0.15 1.08c -0.66 2.04 -3.06 3.93 -5.52 4.38c -0.54 0.09 -1.44 0.09 -1.83 0.03c -1.23 -0.27 -1.98 -0.87 -2.25 -1.86c -0.06 -0.18 -0.06 -0.3 -0.06 -0.66c 0 -0.45 0 -0.63 0.15 -1.08c 0.24 -0.78 0.75 -1.53 1.44 -2.22c 1.2 -1.2 2.85 -2.01 4.47 -2.22zm 3.7200000000000273 -23.07499999999999L 321.558189442258 185.81332875569663L 320.558189442258 185.81332875569663L 320.558189442258 159.9799954223633z"
     stroke="none"
     fill="#000000"
     class=""
     id="path150" />
  <rect
     x="311.748189442258"
     y="159.9799954223633"
     width="9.81"
     height="31.171999999999997"
     fill="#000000"
     stroke="#000000"
     fill-opacity="0"
     stroke-opacity="0"
     id="rect152" />
  <path
     d="m 364.1736034314466 187.1049954223633L 364.1736034314466 156.1049954223633L 364.77360343144665 156.1049954223633L 364.77360343144665 187.1049954223633z"
     stroke="none"
     fill="#000000"
     class=""
     id="path154" />
  <rect
     x="364.1736034314466"
     y="156.1049954223633"
     width="1"
     height="31"
     fill="#000000"
     stroke="#000000"
     fill-opacity="0"
     stroke-opacity="0"
     id="rect156" />
  <path
     d="m 389.8636034314466 189.29999542236328c 0.09 -0.03 0.27 -0.06 0.39 -0.06c 0.96 0 1.74 0.78 1.74 1.71c 0 0.96 -0.78 1.74 -1.71 1.74c -0.96 0 -1.74 -0.78 -1.74 -1.71c 0 -0.78 0.54 -1.5 1.32 -1.68zm -7.25 -2.3700000000000045c 0.06 -0.03 0.27 -0.03 0.48 -0.03c 1.05 0 1.71 0.24 2.1 0.81c 0.42 0.6 0.45 1.35 0.18 2.4c -0.42 1.59 -1.14 2.73 -2.16 3.39c -1.41 0.93 -3.18 1.44 -5.4 1.53c -1.17 0.03 -1.89 -0.21 -2.28 -0.81c -0.42 -0.6 -0.45 -1.35 -0.18 -2.4c 0.42 -1.59 1.14 -2.73 2.16 -3.39c 0.63 -0.42 1.23 -0.72 1.98 -0.96c 0.9 -0.3 1.65 -0.42 3.12 -0.54zm 1.29 0.87c -0.27 -0.09 -0.63 -0.12 -0.9 -0.03c -0.72 0.24 -1.53 0.69 -3.27 1.8c -2.34 1.5 -3.3 2.25 -3.57 2.79c -0.36 0.72 -0.06 1.5 0.66 1.77c 0.24 0.12 0.69 0.09 0.99 0c 0.84 -0.3 1.92 -0.93 4.14 -2.37c 1.62 -1.08 2.37 -1.71 2.61 -2.19c 0.36 -0.72 0.06 -1.5 -0.66 -1.77zm 1.6399999999999864 -23.944999999999993L 385.5436034314466 189.68832875569663L 384.5436034314466 189.68832875569663L 384.5436034314466 163.8549954223633z"
     stroke="none"
     fill="#000000"
     class=""
     id="path158" />
  <rect
     x="375.1736034314466"
     y="163.8549954223633"
     width="16.82"
     height="31.191000000000003"
     fill="#000000"
     stroke="#000000"
     fill-opacity="0"
     stroke-opacity="0"
     id="rect160" />
  <path
     d="m 465.97708406855344 187.1049954223633L 465.97708406855344 156.1049954223633L 466.57708406855346 156.1049954223633L 466.57708406855346 187.1049954223633z"
     stroke="none"
     fill="#000000"
     class=""
     id="path162" />
  <rect
     x="465.97708406855344"
     y="156.1049954223633"
     width="1"
     height="31"
     fill="#000000"
     stroke="#000000"
     fill-opacity="0"
     stroke-opacity="0"
     id="rect164" />
  <path
     d="m 477.03708406855344 166.98499542236328l 0.09 -0.06l 5.46 0l 5.49 0l 0.09 0.06l 0.06 0.09l 0 2.19l 0 2.19l -0.06 0.09l -0.09 0.06l -5.49 0l -5.46 0l -0.09 -0.06l -0.06 -0.09l 0 -2.19l 0 -2.19z"
     stroke="none"
     fill="#000000"
     class=""
     id="path166" />
  <rect
     x="476.97708406855344"
     y="165.38999542236328"
     width="11.25"
     height="4.680000000000007"
     fill="#000000"
     stroke="#000000"
     fill-opacity="0"
     stroke-opacity="0"
     id="rect168" />
  <path
     d="m 557.2078155450881 186.92999542236328c 0.36 -0.03 1.2 0 1.53 0.06c 1.17 0.24 1.89 0.84 2.16 1.83c 0.06 0.18 0.06 0.3 0.06 0.66c 0 0.45 0 0.63 -0.15 1.08c -0.66 2.04 -3.06 3.93 -5.52 4.38c -0.54 0.09 -1.44 0.09 -1.83 0.03c -1.23 -0.27 -1.98 -0.87 -2.25 -1.86c -0.06 -0.18 -0.06 -0.3 -0.06 -0.66c 0 -0.45 0 -0.63 0.15 -1.08c 0.24 -0.78 0.75 -1.53 1.44 -2.22c 1.2 -1.2 2.85 -2.01 4.47 -2.22zm 3.7199999999999136 -23.07499999999999L 560.927815545088 189.68832875569663L 559.927815545088 189.68832875569663L 559.927815545088 163.8549954223633z"
     stroke="none"
     fill="#000000"
     class=""
     id="path170" />
  <rect
     x="551.1178155450881"
     y="163.8549954223633"
     width="9.81"
     height="31.171999999999997"
     fill="#000000"
     stroke="#000000"
     fill-opacity="0"
     stroke-opacity="0"
     id="rect172" />
  <path
     d="m 603.5432295342766 187.1049954223633L 603.5432295342766 156.1049954223633L 604.1432295342767 156.1049954223633L 604.1432295342767 187.1049954223633z"
     stroke="none"
     fill="#000000"
     class=""
     id="path174" />
  <rect
     x="603.5432295342766"
     y="156.1049954223633"
     width="1"
     height="31"
     fill="#000000"
     stroke="#000000"
     fill-opacity="0"
     stroke-opacity="0"
     id="rect176" />
  <text
     font-size="16"
     font-style="normal"
     font-family="Helvetica"
     font-weight="normal"
     text-decoration="none"
     class=""
     font=""
     text-anchor="middle"
     x="627.4338545342766"
     y="134.4799954223633"
     dy="0.5em"
     id="text180"><tspan
       x="627.4338545342766"
       id="tspan178">Gm</tspan></text>
  <path
     d="m 634.8738545342767 183.05499542236328c 0.06 -0.03 0.27 -0.03 0.48 -0.03c 1.05 0 1.71 0.24 2.1 0.81c 0.42 0.6 0.45 1.35 0.18 2.4c -0.42 1.59 -1.14 2.73 -2.16 3.39c -1.41 0.93 -3.18 1.44 -5.4 1.53c -1.17 0.03 -1.89 -0.21 -2.28 -0.81c -0.42 -0.6 -0.45 -1.35 -0.18 -2.4c 0.42 -1.59 1.14 -2.73 2.16 -3.39c 0.63 -0.42 1.23 -0.72 1.98 -0.96c 0.9 -0.3 1.65 -0.42 3.12 -0.54zm 1.29 0.87c -0.27 -0.09 -0.63 -0.12 -0.9 -0.03c -0.72 0.24 -1.53 0.69 -3.27 1.8c -2.34 1.5 -3.3 2.25 -3.57 2.79c -0.36 0.72 -0.06 1.5 0.66 1.77c 0.24 0.12 0.69 0.09 0.99 0c 0.84 -0.3 1.92 -0.93 4.14 -2.37c 1.62 -1.08 2.37 -1.71 2.61 -2.19c 0.36 -0.72 0.06 -1.5 -0.66 -1.77zm 1.6399999999999864 -23.944999999999993L 637.8038545342766 185.81332875569663L 636.8038545342766 185.81332875569663L 636.8038545342766 159.9799954223633z"
     stroke="none"
     fill="#000000"
     class=""
     id="path182" />
  <rect
     x="627.4338545342766"
     y="127.47999542236329"
     width="12.890625"
     height="63.691"
     fill="#000000"
     stroke="#000000"
     fill-opacity="0"
     stroke-opacity="0"
     id="rect184" />
  <path
     d="m 707.6645860108114 186.92999542236328c 0.36 -0.03 1.2 0 1.53 0.06c 1.17 0.24 1.89 0.84 2.16 1.83c 0.06 0.18 0.06 0.3 0.06 0.66c 0 0.45 0 0.63 -0.15 1.08c -0.66 2.04 -3.06 3.93 -5.52 4.38c -0.54 0.09 -1.44 0.09 -1.83 0.03c -1.23 -0.27 -1.98 -0.87 -2.25 -1.86c -0.06 -0.18 -0.06 -0.3 -0.06 -0.66c 0 -0.45 0 -0.63 0.15 -1.08c 0.24 -0.78 0.75 -1.53 1.44 -2.22c 1.2 -1.2 2.85 -2.01 4.47 -2.22zm 3.7199999999999136 -23.07499999999999L 711.3845860108113 189.68832875569663L 710.3845860108113 189.68832875569663L 710.3845860108113 163.8549954223633z"
     stroke="none"
     fill="#000000"
     class=""
     id="path186" />
  <rect
     x="701.5745860108113"
     y="163.8549954223633"
     width="9.81"
     height="31.171999999999997"
     fill="#000000"
     stroke="#000000"
     fill-opacity="0"
     stroke-opacity="0"
     id="rect188" />
  <path
     d="m 754.05 187.1049954223633L 754.05 156.1049954223633L 754.65 156.1049954223633L 754.65 187.1049954223633z"
     stroke="none"
     fill="#000000"
     class=""
     id="path190" />
  <rect
     x="754"
     y="156.1049954223633"
     width="1"
     height="31"
     fill="#000000"
     stroke="#000000"
     fill-opacity="0"
     stroke-opacity="0"
     id="rect192" />
  <path
     d="m 29.689999999999998 234.27499542236328c 0.09 -0.09 0.24 -0.06 0.36 0c 0.12 0.09 0.57 0.6 0.96 1.11c 1.77 2.34 3.21 5.85 3.57 8.73c 0.21 1.56 0.03 3.27 -0.45 4.86c -0.69 2.31 -1.92 4.47 -4.23 7.44c -0.3 0.39 -0.57 0.72 -0.6 0.75c -0.03 0.06 0 0.15 0.18 0.78c 0.54 1.68 1.38 4.44 1.68 5.49l 0.09 0.42l 0.39 0c 1.47 0.09 2.76 0.51 3.96 1.29c 1.83 1.23 3.06 3.21 3.39 5.52c 0.09 0.45 0.12 1.29 0.06 1.74c -0.09 1.02 -0.33 1.83 -0.75 2.73c -0.84 1.71 -2.28 3.06 -4.02 3.72l -0.33 0.12l 0.03 1.26c 0 1.74 -0.06 3.63 -0.21 4.62c -0.45 3.06 -2.19 5.49 -4.47 6.21c -0.57 0.18 -0.9 0.21 -1.59 0.21c -0.69 0 -1.02 -0.03 -1.65 -0.21c -1.14 -0.27 -2.13 -0.84 -2.94 -1.65c -0.99 -0.99 -1.56 -2.16 -1.71 -3.54c -0.09 -0.81 0.06 -1.53 0.45 -2.13c 0.63 -0.99 1.83 -1.56 3 -1.53c 1.5 0.09 2.64 1.32 2.73 2.94c 0.06 1.47 -0.93 2.7 -2.37 2.97c -0.45 0.06 -0.84 0.03 -1.29 -0.09l -0.21 -0.09l 0.09 0.12c 0.39 0.54 0.78 0.93 1.32 1.26c 1.35 0.87 3.06 1.02 4.35 0.36c 1.44 -0.72 2.52 -2.28 2.97 -4.35c 0.15 -0.66 0.24 -1.5 0.3 -3.03c 0.03 -0.84 0.03 -2.94 0 -3c -0.03 0 -0.18 0 -0.36 0.03c -0.66 0.12 -0.99 0.12 -1.83 0.12c -1.05 0 -1.71 -0.06 -2.61 -0.3c -4.02 -0.99 -7.11 -4.35 -7.8 -8.46c -0.12 -0.66 -0.12 -0.99 -0.12 -1.83c 0 -0.84 0 -1.14 0.15 -1.92c 0.36 -2.28 1.41 -4.62 3.3 -7.29l 2.79 -3.6c 0.54 -0.66 0.96 -1.2 0.96 -1.23c 0 -0.03 -0.09 -0.33 -0.18 -0.69c -0.96 -3.21 -1.41 -5.28 -1.59 -7.68c -0.12 -1.38 -0.15 -3.09 -0.06 -3.96c 0.33 -2.67 1.38 -5.07 3.12 -7.08c 0.36 -0.42 0.99 -1.05 1.17 -1.14zm 2.01 4.71c -0.15 -0.3 -0.3 -0.54 -0.3 -0.54c -0.03 0 -0.18 0.09 -0.3 0.21c -2.4 1.74 -3.87 4.2 -4.26 7.11c -0.06 0.54 -0.06 1.41 -0.03 1.89c 0.09 1.29 0.48 3.12 1.08 5.22c 0.15 0.42 0.24 0.78 0.24 0.81c 0 0.03 0.84 -1.11 1.23 -1.68c 1.89 -2.73 2.88 -5.07 3.15 -7.53c 0.09 -0.57 0.12 -1.74 0.06 -2.37c -0.09 -1.23 -0.27 -1.92 -0.87 -3.12zm -2.94 20.7c -0.21 -0.72 -0.39 -1.32 -0.42 -1.32c 0 0 -1.2 1.47 -1.86 2.37c -2.79 3.63 -4.02 6.3 -4.35 9.3c -0.03 0.21 -0.03 0.69 -0.03 1.08c 0 0.69 0 0.75 0.06 1.11c 0.12 0.54 0.27 0.99 0.51 1.47c 0.69 1.38 1.83 2.55 3.42 3.42c 0.96 0.54 2.07 0.9 3.21 1.08c 0.78 0.12 2.04 0.12 2.94 -0.03c 0.51 -0.06 0.45 -0.03 0.42 -0.3c -0.24 -3.33 -0.72 -6.33 -1.62 -10.08c -0.09 -0.39 -0.18 -0.75 -0.18 -0.78c -0.03 -0.03 -0.42 0 -0.81 0.09c -0.9 0.18 -1.65 0.57 -2.22 1.14c -0.72 0.72 -1.08 1.65 -1.05 2.64c 0.06 0.96 0.48 1.83 1.23 2.58c 0.36 0.36 0.72 0.63 1.17 0.9c 0.33 0.18 0.36 0.21 0.42 0.33c 0.18 0.42 -0.18 0.9 -0.6 0.87c -0.18 -0.03 -0.84 -0.36 -1.26 -0.63c -0.78 -0.51 -1.38 -1.11 -1.86 -1.83c -1.77 -2.7 -0.99 -6.42 1.71 -8.19c 0.3 -0.21 0.81 -0.48 1.17 -0.63c 0.3 -0.09 1.02 -0.3 1.14 -0.3c 0.06 0 0.09 0 0.09 -0.03c 0.03 -0.03 -0.51 -1.92 -1.23 -4.26zm 3.78 7.41c -0.18 -0.03 -0.36 -0.06 -0.39 -0.06c -0.03 0 0 0.21 0.18 1.02c 0.75 3.18 1.26 6.3 1.5 9.09c 0.06 0.72 0 0.69 0.51 0.42c 0.78 -0.36 1.44 -0.96 1.98 -1.77c 1.08 -1.62 1.2 -3.69 0.3 -5.55c -0.81 -1.62 -2.31 -2.79 -4.08 -3.15z"
     stroke="none"
     fill="#000000"
     class=""
     id="path194" />
  <rect
     x="15"
     y="236.80999542236327"
     width="24.051"
     height="54.25"
     fill="#000000"
     stroke="#000000"
     fill-opacity="0"
     stroke-opacity="0"
     id="rect196" />
  <path
     d="m 48.691 249.86499542236328c 0.33 -0.06 0.87 0 1.08 0.15c 0.06 0.03 0.06 0.36 -0.03 5.25c -0.06 2.85 -0.09 5.19 -0.09 5.19c 0 0.03 0.12 -0.03 0.24 -0.12c 0.63 -0.42 1.41 -0.66 2.19 -0.72c 0.81 -0.03 1.47 0.21 2.04 0.78c 0.57 0.54 0.87 1.26 0.93 2.04c 0.03 0.57 -0.09 1.08 -0.36 1.62c -0.42 0.81 -1.02 1.38 -2.82 2.61c -1.14 0.78 -1.44 1.02 -1.8 1.44c -0.18 0.18 -0.39 0.39 -0.45 0.42c -0.27 0.18 -0.57 0.15 -0.81 -0.06c -0.06 -0.09 -0.12 -0.18 -0.15 -0.27c -0.03 -0.06 -0.09 -3.27 -0.18 -8.34c -0.09 -4.53 -0.15 -8.58 -0.18 -9.03l 0 -0.78l 0.12 -0.06c 0.06 -0.03 0.18 -0.09 0.27 -0.12zm 3.18 11.01c -0.21 -0.12 -0.54 -0.15 -0.81 -0.06c -0.54 0.15 -0.99 0.63 -1.17 1.26c -0.06 0.3 -0.12 2.88 -0.06 3.87c 0.03 0.42 0.03 0.81 0.06 0.9l 0.03 0.12l 0.45 -0.39c 0.63 -0.54 1.26 -1.17 1.56 -1.59c 0.3 -0.42 0.6 -0.99 0.72 -1.41c 0.18 -0.69 0.09 -1.47 -0.18 -2.07c -0.15 -0.3 -0.33 -0.51 -0.6 -0.63z"
     stroke="none"
     fill="#000000"
     class=""
     id="path198" />
  <rect
     x="49.051"
     y="254.53449542236328"
     width="6.75"
     height="18.801000000000016"
     fill="#000000"
     stroke="#000000"
     fill-opacity="0"
     stroke-opacity="0"
     id="rect200" />
  <text
     font-size="16"
     font-style="normal"
     font-family="Helvetica"
     font-weight="normal"
     text-decoration="none"
     class=""
     font=""
     text-anchor="middle"
     x="76.051"
     y="226.80999542236327"
     dy="0.5em"
     id="text204"><tspan
       x="76.051"
       id="tspan202">A</tspan></text>
  <path
     d="m 71.531 275.9949954223633c 0.21 -0.12 0.54 -0.03 0.66 0.24c 0.06 0.12 0.06 0.21 0.06 2.31c 0 1.23 0 2.22 0.03 2.22c 0 0 0.27 -0.12 0.6 -0.24c 0.69 -0.27 0.78 -0.3 0.96 -0.15c 0.21 0.15 0.21 0.18 0.21 1.38c 0 1.02 0 1.11 -0.06 1.2c -0.03 0.06 -0.09 0.12 -0.12 0.15c -0.06 0.03 -0.42 0.21 -0.84 0.36l -0.75 0.33l -0.03 2.43c 0 1.32 0 2.43 0.03 2.43c 0 0 0.27 -0.12 0.6 -0.24c 0.69 -0.27 0.78 -0.3 0.96 -0.15c 0.21 0.15 0.21 0.18 0.21 1.38c 0 1.02 0 1.11 -0.06 1.2c -0.03 0.06 -0.09 0.12 -0.12 0.15c -0.06 0.03 -0.42 0.21 -0.84 0.36l -0.75 0.33l -0.03 2.52c 0 2.28 -0.03 2.55 -0.06 2.64c -0.21 0.36 -0.72 0.36 -0.93 0c -0.03 -0.09 -0.06 -0.33 -0.06 -2.43l 0 -2.31l -1.29 0.51l -1.26 0.51l 0 2.43c 0 2.58 0 2.52 -0.15 2.67c -0.06 0.09 -0.27 0.18 -0.36 0.18c -0.12 0 -0.33 -0.09 -0.39 -0.18c -0.15 -0.15 -0.15 -0.09 -0.15 -2.43c 0 -1.23 0 -2.22 -0.03 -2.22c 0 0 -0.27 0.12 -0.6 0.24c -0.69 0.27 -0.78 0.3 -0.96 0.15c -0.21 -0.15 -0.21 -0.18 -0.21 -1.38c 0 -1.02 0 -1.11 0.06 -1.2c 0.03 -0.06 0.09 -0.12 0.12 -0.15c 0.06 -0.03 0.42 -0.21 0.84 -0.36l 0.78 -0.33l 0 -2.43c 0 -1.32 0 -2.43 -0.03 -2.43c 0 0 -0.27 0.12 -0.6 0.24c -0.69 0.27 -0.78 0.3 -0.96 0.15c -0.21 -0.15 -0.21 -0.18 -0.21 -1.38c 0 -1.02 0 -1.11 0.06 -1.2c 0.03 -0.06 0.09 -0.12 0.12 -0.15c 0.06 -0.03 0.42 -0.21 0.84 -0.36l 0.78 -0.33l 0 -2.52c 0 -2.28 0.03 -2.55 0.06 -2.64c 0.21 -0.36 0.72 -0.36 0.93 0c 0.03 0.09 0.06 0.33 0.06 2.43l 0.03 2.31l 1.26 -0.51l 1.26 -0.51l 0 -2.43c 0 -2.28 0 -2.43 0.06 -2.55c 0.06 -0.12 0.12 -0.18 0.27 -0.24zm -0.33 10.65l 0 -2.43l -1.29 0.51l -1.26 0.51l 0 2.46l 0 2.43l 0.09 -0.03c 0.06 -0.03 0.63 -0.27 1.29 -0.51l 1.17 -0.48l 0 -2.46zm 10.939999999999998 -3.509999999999991c 0.36 -0.03 1.2 0 1.53 0.06c 1.17 0.24 1.89 0.84 2.16 1.83c 0.06 0.18 0.06 0.3 0.06 0.66c 0 0.45 0 0.63 -0.15 1.08c -0.66 2.04 -3.06 3.93 -5.52 4.38c -0.54 0.09 -1.44 0.09 -1.83 0.03c -1.23 -0.27 -1.98 -0.87 -2.25 -1.86c -0.06 -0.18 -0.06 -0.3 -0.06 -0.66c 0 -0.45 0 -0.63 0.15 -1.08c 0.24 -0.78 0.75 -1.53 1.44 -2.22c 1.2 -1.2 2.85 -2.01 4.47 -2.22zm 3.719999999999999 -23.07499999999999L 85.861 285.8933287556966L 84.861 285.8933287556966L 84.861 260.0599954223633z"
     stroke="none"
     fill="#000000"
     class=""
     id="path206" />
  <rect
     x="76.051"
     y="219.80999542236327"
     width="9.81"
     height="71.42200000000003"
     fill="#000000"
     stroke="#000000"
     fill-opacity="0"
     stroke-opacity="0"
     id="rect208" />
  <path
     d="m 152.81569493444331 290.88499542236326c 0.06 -0.03 0.27 -0.03 0.48 -0.03c 1.05 0 1.71 0.24 2.1 0.81c 0.42 0.6 0.45 1.35 0.18 2.4c -0.42 1.59 -1.14 2.73 -2.16 3.39c -1.41 0.93 -3.18 1.44 -5.4 1.53c -1.17 0.03 -1.89 -0.21 -2.28 -0.81c -0.42 -0.6 -0.45 -1.35 -0.18 -2.4c 0.42 -1.59 1.14 -2.73 2.16 -3.39c 0.63 -0.42 1.23 -0.72 1.98 -0.96c 0.9 -0.3 1.65 -0.42 3.12 -0.54zm 1.29 0.87c -0.27 -0.09 -0.63 -0.12 -0.9 -0.03c -0.72 0.24 -1.53 0.69 -3.27 1.8c -2.34 1.5 -3.3 2.25 -3.57 2.79c -0.36 0.72 -0.06 1.5 0.66 1.77c 0.24 0.12 0.69 0.09 0.99 0c 0.84 -0.3 1.92 -0.93 4.14 -2.37c 1.62 -1.08 2.37 -1.71 2.61 -2.19c 0.36 -0.72 0.06 -1.5 -0.66 -1.77zm 1.6400000000000148 -27.819999999999993L 155.74569493444332 293.6433287556966L 154.74569493444332 293.6433287556966L 154.74569493444332 263.9349954223633z"
     stroke="none"
     fill="#000000"
     class=""
     id="path210" />
  <rect
     x="145.37569493444332"
     y="263.9349954223633"
     width="10.37"
     height="35.065999999999974"
     fill="#000000"
     stroke="#000000"
     fill-opacity="0"
     stroke-opacity="0"
     id="rect212" />
  <path
     d="m 243.41561871811047 279.4349954223633L 243.41561871811047 248.43499542236327L 244.01561871811046 248.43499542236327L 244.01561871811046 279.4349954223633z"
     stroke="none"
     fill="#000000"
     class=""
     id="path214" />
  <rect
     x="243.41561871811047"
     y="248.43499542236327"
     width="1"
     height="31"
     fill="#000000"
     stroke="#000000"
     fill-opacity="0"
     stroke-opacity="0"
     id="rect216" />
  <text
     font-size="16"
     font-style="normal"
     font-family="Helvetica"
     font-weight="normal"
     text-decoration="none"
     class=""
     font=""
     text-anchor="middle"
     x="264.75155621811047"
     y="226.80999542236327"
     dy="0.5em"
     id="text220"><tspan
       x="264.75155621811047"
       id="tspan218">A7</tspan></text>
  <path
     d="m 264.81155621811047 259.31499542236327l 0.09 -0.06l 5.46 0l 5.49 0l 0.09 0.06l 0.06 0.09l 0 2.19l 0 2.19l -0.06 0.09l -0.09 0.06l -5.49 0l -5.46 0l -0.09 -0.06l -0.06 -0.09l 0 -2.19l 0 -2.19z"
     stroke="none"
     fill="#000000"
     class=""
     id="path222" />
  <rect
     x="264.75155621811047"
     y="219.80999542236327"
     width="11.25"
     height="42.589999999999975"
     fill="#000000"
     stroke="#000000"
     fill-opacity="0"
     stroke-opacity="0"
     id="rect224" />
  <path
     d="m 368.88148000177756 290.88499542236326c 0.36 -0.03 1.2 0 1.53 0.06c 1.17 0.24 1.89 0.84 2.16 1.83c 0.06 0.18 0.06 0.3 0.06 0.66c 0 0.45 0 0.63 -0.15 1.08c -0.66 2.04 -3.06 3.93 -5.52 4.38c -0.54 0.09 -1.44 0.09 -1.83 0.03c -1.23 -0.27 -1.98 -0.87 -2.25 -1.86c -0.06 -0.18 -0.06 -0.3 -0.06 -0.66c 0 -0.45 0 -0.63 0.15 -1.08c 0.24 -0.78 0.75 -1.53 1.44 -2.22c 1.2 -1.2 2.85 -2.01 4.47 -2.22zm 3.7200000000000273 -26.94999999999999L 372.6014800017776 293.6433287556966L 371.6014800017776 293.6433287556966L 371.6014800017776 263.9349954223633z"
     stroke="none"
     fill="#000000"
     class=""
     id="path226" />
  <rect
     x="362.7914800017776"
     y="263.9349954223633"
     width="9.81"
     height="35.047000000000025"
     fill="#000000"
     stroke="#000000"
     fill-opacity="0"
     stroke-opacity="0"
     id="rect228" />
  <path
     d="m 432.1161749362209 279.4349954223633L 432.1161749362209 248.43499542236327L 432.7161749362209 248.43499542236327L 432.7161749362209 279.4349954223633z"
     stroke="none"
     fill="#000000"
     class=""
     id="path230" />
  <rect
     x="432.1161749362209"
     y="248.43499542236327"
     width="1"
     height="31"
     fill="#000000"
     stroke="#000000"
     fill-opacity="0"
     stroke-opacity="0"
     id="rect232" />
  <text
     font-size="16"
     font-style="normal"
     font-family="Helvetica"
     font-weight="normal"
     text-decoration="none"
     class=""
     font=""
     text-anchor="middle"
     x="455.5614874362209"
     y="226.80999542236327"
     dy="0.5em"
     id="text236"><tspan
       x="455.5614874362209"
       id="tspan234">Dm</tspan></text>
  <path
     d="m 463.0014874362209 271.50999542236326c 0.06 -0.03 0.27 -0.03 0.48 -0.03c 1.05 0 1.71 0.24 2.1 0.81c 0.42 0.6 0.45 1.35 0.18 2.4c -0.42 1.59 -1.14 2.73 -2.16 3.39c -1.41 0.93 -3.18 1.44 -5.4 1.53c -1.17 0.03 -1.89 -0.21 -2.28 -0.81c -0.42 -0.6 -0.45 -1.35 -0.18 -2.4c 0.42 -1.59 1.14 -2.73 2.16 -3.39c 0.63 -0.42 1.23 -0.72 1.98 -0.96c 0.9 -0.3 1.65 -0.42 3.12 -0.54zm 1.29 0.87c -0.27 -0.09 -0.63 -0.12 -0.9 -0.03c -0.72 0.24 -1.53 0.69 -3.27 1.8c -2.34 1.5 -3.3 2.25 -3.57 2.79c -0.36 0.72 -0.06 1.5 0.66 1.77c 0.24 0.12 0.69 0.09 0.99 0c 0.84 -0.3 1.92 -0.93 4.14 -2.37c 1.62 -1.08 2.37 -1.71 2.61 -2.19c 0.36 -0.72 0.06 -1.5 -0.66 -1.77zm 1.6399999999999864 -23.944999999999993L 465.9314874362209 274.2683287556966L 464.9314874362209 274.2683287556966L 464.9314874362209 248.43499542236327z"
     stroke="none"
     fill="#000000"
     class=""
     id="path238" />
  <rect
     x="455.5614874362209"
     y="219.80999542236327"
     width="12.4453125"
     height="59.815999999999974"
     fill="#000000"
     stroke="#000000"
     fill-opacity="0"
     stroke-opacity="0"
     id="rect240" />
  <path
     d="m 559.6914112198881 275.38499542236326c 0.36 -0.03 1.2 0 1.53 0.06c 1.17 0.24 1.89 0.84 2.16 1.83c 0.06 0.18 0.06 0.3 0.06 0.66c 0 0.45 0 0.63 -0.15 1.08c -0.66 2.04 -3.06 3.93 -5.52 4.38c -0.54 0.09 -1.44 0.09 -1.83 0.03c -1.23 -0.27 -1.98 -0.87 -2.25 -1.86c -0.06 -0.18 -0.06 -0.3 -0.06 -0.66c 0 -0.45 0 -0.63 0.15 -1.08c 0.24 -0.78 0.75 -1.53 1.44 -2.22c 1.2 -1.2 2.85 -2.01 4.47 -2.22zm 3.7199999999999136 -23.07499999999999L 563.411411219888 278.1433287556966L 562.411411219888 278.1433287556966L 562.411411219888 252.30999542236327z"
     stroke="none"
     fill="#000000"
     class=""
     id="path242" />
  <rect
     x="553.6014112198881"
     y="252.30999542236327"
     width="9.81"
     height="31.172000000000025"
     fill="#000000"
     stroke="#000000"
     fill-opacity="0"
     stroke-opacity="0"
     id="rect244" />
  <path
     d="m 622.9261061543314 279.4349954223633L 622.9261061543314 248.43499542236327L 623.5261061543314 248.43499542236327L 623.5261061543314 279.4349954223633z"
     stroke="none"
     fill="#000000"
     class=""
     id="path246" />
  <rect
     x="622.9261061543314"
     y="248.43499542236327"
     width="1"
     height="31"
     fill="#000000"
     stroke="#000000"
     fill-opacity="0"
     stroke-opacity="0"
     id="rect248" />
  <path
     d="m 648.6161061543314 281.62999542236327c 0.09 -0.03 0.27 -0.06 0.39 -0.06c 0.96 0 1.74 0.78 1.74 1.71c 0 0.96 -0.78 1.74 -1.71 1.74c -0.96 0 -1.74 -0.78 -1.74 -1.71c 0 -0.78 0.54 -1.5 1.32 -1.68zm -7.25 -2.3700000000000045c 0.06 -0.03 0.27 -0.03 0.48 -0.03c 1.05 0 1.71 0.24 2.1 0.81c 0.42 0.6 0.45 1.35 0.18 2.4c -0.42 1.59 -1.14 2.73 -2.16 3.39c -1.41 0.93 -3.18 1.44 -5.4 1.53c -1.17 0.03 -1.89 -0.21 -2.28 -0.81c -0.42 -0.6 -0.45 -1.35 -0.18 -2.4c 0.42 -1.59 1.14 -2.73 2.16 -3.39c 0.63 -0.42 1.23 -0.72 1.98 -0.96c 0.9 -0.3 1.65 -0.42 3.12 -0.54zm 1.29 0.87c -0.27 -0.09 -0.63 -0.12 -0.9 -0.03c -0.72 0.24 -1.53 0.69 -3.27 1.8c -2.34 1.5 -3.3 2.25 -3.57 2.79c -0.36 0.72 -0.06 1.5 0.66 1.77c 0.24 0.12 0.69 0.09 0.99 0c 0.84 -0.3 1.92 -0.93 4.14 -2.37c 1.62 -1.08 2.37 -1.71 2.61 -2.19c 0.36 -0.72 0.06 -1.5 -0.66 -1.77zm 1.6399999999999864 -23.944999999999993L 644.2961061543314 282.0183287556966L 643.2961061543314 282.0183287556966L 643.2961061543314 256.1849954223633z"
     stroke="none"
     fill="#000000"
     class=""
     id="path250" />
  <rect
     x="633.9261061543314"
     y="256.1849954223633"
     width="16.82"
     height="31.190999999999974"
     fill="#000000"
     stroke="#000000"
     fill-opacity="0"
     stroke-opacity="0"
     id="rect252" />
  <path
     d="m 754.05 279.4349954223633L 754.05 248.43499542236327L 754.65 248.43499542236327L 754.65 279.4349954223633z"
     stroke="none"
     fill="#000000"
     class=""
     id="path254" />
  <rect
     x="754"
     y="248.43499542236327"
     width="1"
     height="31"
     fill="#000000"
     stroke="#000000"
     fill-opacity="0"
     stroke-opacity="0"
     id="rect256" />
  <path
     d="m 29.689999999999998 326.60499542236334c 0.09 -0.09 0.24 -0.06 0.36 0c 0.12 0.09 0.57 0.6 0.96 1.11c 1.77 2.34 3.21 5.85 3.57 8.73c 0.21 1.56 0.03 3.27 -0.45 4.86c -0.69 2.31 -1.92 4.47 -4.23 7.44c -0.3 0.39 -0.57 0.72 -0.6 0.75c -0.03 0.06 0 0.15 0.18 0.78c 0.54 1.68 1.38 4.44 1.68 5.49l 0.09 0.42l 0.39 0c 1.47 0.09 2.76 0.51 3.96 1.29c 1.83 1.23 3.06 3.21 3.39 5.52c 0.09 0.45 0.12 1.29 0.06 1.74c -0.09 1.02 -0.33 1.83 -0.75 2.73c -0.84 1.71 -2.28 3.06 -4.02 3.72l -0.33 0.12l 0.03 1.26c 0 1.74 -0.06 3.63 -0.21 4.62c -0.45 3.06 -2.19 5.49 -4.47 6.21c -0.57 0.18 -0.9 0.21 -1.59 0.21c -0.69 0 -1.02 -0.03 -1.65 -0.21c -1.14 -0.27 -2.13 -0.84 -2.94 -1.65c -0.99 -0.99 -1.56 -2.16 -1.71 -3.54c -0.09 -0.81 0.06 -1.53 0.45 -2.13c 0.63 -0.99 1.83 -1.56 3 -1.53c 1.5 0.09 2.64 1.32 2.73 2.94c 0.06 1.47 -0.93 2.7 -2.37 2.97c -0.45 0.06 -0.84 0.03 -1.29 -0.09l -0.21 -0.09l 0.09 0.12c 0.39 0.54 0.78 0.93 1.32 1.26c 1.35 0.87 3.06 1.02 4.35 0.36c 1.44 -0.72 2.52 -2.28 2.97 -4.35c 0.15 -0.66 0.24 -1.5 0.3 -3.03c 0.03 -0.84 0.03 -2.94 0 -3c -0.03 0 -0.18 0 -0.36 0.03c -0.66 0.12 -0.99 0.12 -1.83 0.12c -1.05 0 -1.71 -0.06 -2.61 -0.3c -4.02 -0.99 -7.11 -4.35 -7.8 -8.46c -0.12 -0.66 -0.12 -0.99 -0.12 -1.83c 0 -0.84 0 -1.14 0.15 -1.92c 0.36 -2.28 1.41 -4.62 3.3 -7.29l 2.79 -3.6c 0.54 -0.66 0.96 -1.2 0.96 -1.23c 0 -0.03 -0.09 -0.33 -0.18 -0.69c -0.96 -3.21 -1.41 -5.28 -1.59 -7.68c -0.12 -1.38 -0.15 -3.09 -0.06 -3.96c 0.33 -2.67 1.38 -5.07 3.12 -7.08c 0.36 -0.42 0.99 -1.05 1.17 -1.14zm 2.01 4.71c -0.15 -0.3 -0.3 -0.54 -0.3 -0.54c -0.03 0 -0.18 0.09 -0.3 0.21c -2.4 1.74 -3.87 4.2 -4.26 7.11c -0.06 0.54 -0.06 1.41 -0.03 1.89c 0.09 1.29 0.48 3.12 1.08 5.22c 0.15 0.42 0.24 0.78 0.24 0.81c 0 0.03 0.84 -1.11 1.23 -1.68c 1.89 -2.73 2.88 -5.07 3.15 -7.53c 0.09 -0.57 0.12 -1.74 0.06 -2.37c -0.09 -1.23 -0.27 -1.92 -0.87 -3.12zm -2.94 20.7c -0.21 -0.72 -0.39 -1.32 -0.42 -1.32c 0 0 -1.2 1.47 -1.86 2.37c -2.79 3.63 -4.02 6.3 -4.35 9.3c -0.03 0.21 -0.03 0.69 -0.03 1.08c 0 0.69 0 0.75 0.06 1.11c 0.12 0.54 0.27 0.99 0.51 1.47c 0.69 1.38 1.83 2.55 3.42 3.42c 0.96 0.54 2.07 0.9 3.21 1.08c 0.78 0.12 2.04 0.12 2.94 -0.03c 0.51 -0.06 0.45 -0.03 0.42 -0.3c -0.24 -3.33 -0.72 -6.33 -1.62 -10.08c -0.09 -0.39 -0.18 -0.75 -0.18 -0.78c -0.03 -0.03 -0.42 0 -0.81 0.09c -0.9 0.18 -1.65 0.57 -2.22 1.14c -0.72 0.72 -1.08 1.65 -1.05 2.64c 0.06 0.96 0.48 1.83 1.23 2.58c 0.36 0.36 0.72 0.63 1.17 0.9c 0.33 0.18 0.36 0.21 0.42 0.33c 0.18 0.42 -0.18 0.9 -0.6 0.87c -0.18 -0.03 -0.84 -0.36 -1.26 -0.63c -0.78 -0.51 -1.38 -1.11 -1.86 -1.83c -1.77 -2.7 -0.99 -6.42 1.71 -8.19c 0.3 -0.21 0.81 -0.48 1.17 -0.63c 0.3 -0.09 1.02 -0.3 1.14 -0.3c 0.06 0 0.09 0 0.09 -0.03c 0.03 -0.03 -0.51 -1.92 -1.23 -4.26zm 3.78 7.41c -0.18 -0.03 -0.36 -0.06 -0.39 -0.06c -0.03 0 0 0.21 0.18 1.02c 0.75 3.18 1.26 6.3 1.5 9.09c 0.06 0.72 0 0.69 0.51 0.42c 0.78 -0.36 1.44 -0.96 1.98 -1.77c 1.08 -1.62 1.2 -3.69 0.3 -5.55c -0.81 -1.62 -2.31 -2.79 -4.08 -3.15z"
     stroke="none"
     fill="#000000"
     class=""
     id="path258" />
  <rect
     x="15"
     y="329.1399954223633"
     width="24.051"
     height="54.25"
     fill="#000000"
     stroke="#000000"
     fill-opacity="0"
     stroke-opacity="0"
     id="rect260" />
  <path
     d="m 48.691 342.1949954223633c 0.33 -0.06 0.87 0 1.08 0.15c 0.06 0.03 0.06 0.36 -0.03 5.25c -0.06 2.85 -0.09 5.19 -0.09 5.19c 0 0.03 0.12 -0.03 0.24 -0.12c 0.63 -0.42 1.41 -0.66 2.19 -0.72c 0.81 -0.03 1.47 0.21 2.04 0.78c 0.57 0.54 0.87 1.26 0.93 2.04c 0.03 0.57 -0.09 1.08 -0.36 1.62c -0.42 0.81 -1.02 1.38 -2.82 2.61c -1.14 0.78 -1.44 1.02 -1.8 1.44c -0.18 0.18 -0.39 0.39 -0.45 0.42c -0.27 0.18 -0.57 0.15 -0.81 -0.06c -0.06 -0.09 -0.12 -0.18 -0.15 -0.27c -0.03 -0.06 -0.09 -3.27 -0.18 -8.34c -0.09 -4.53 -0.15 -8.58 -0.18 -9.03l 0 -0.78l 0.12 -0.06c 0.06 -0.03 0.18 -0.09 0.27 -0.12zm 3.18 11.01c -0.21 -0.12 -0.54 -0.15 -0.81 -0.06c -0.54 0.15 -0.99 0.63 -1.17 1.26c -0.06 0.3 -0.12 2.88 -0.06 3.87c 0.03 0.42 0.03 0.81 0.06 0.9l 0.03 0.12l 0.45 -0.39c 0.63 -0.54 1.26 -1.17 1.56 -1.59c 0.3 -0.42 0.6 -0.99 0.72 -1.41c 0.18 -0.69 0.09 -1.47 -0.18 -2.07c -0.15 -0.3 -0.33 -0.51 -0.6 -0.63z"
     stroke="none"
     fill="#000000"
     class=""
     id="path262" />
  <rect
     x="49.051"
     y="346.8644954223633"
     width="6.75"
     height="18.801000000000045"
     fill="#000000"
     stroke="#000000"
     fill-opacity="0"
     stroke-opacity="0"
     id="rect264" />
  <path
     d="m 65.861 351.6449954223633l 0.09 -0.06l 5.46 0l 5.49 0l 0.09 0.06l 0.06 0.09l 0 2.19l 0 2.19l -0.06 0.09l -0.09 0.06l -5.49 0l -5.46 0l -0.09 -0.06l -0.06 -0.09l 0 -2.19l 0 -2.19z"
     stroke="none"
     fill="#000000"
     class=""
     id="path266" />
  <rect
     x="65.801"
     y="350.04999542236334"
     width="11.25"
     height="4.67999999999995"
     fill="#000000"
     stroke="#000000"
     fill-opacity="0"
     stroke-opacity="0"
     id="rect268" />
  <text
     font-size="16"
     font-style="normal"
     font-family="Helvetica"
     font-weight="normal"
     text-decoration="none"
     class=""
     font=""
     text-anchor="middle"
     x="165.55273746380493"
     y="319.1399954223633"
     dy="0.5em"
     id="text272"><tspan
       x="165.55273746380493"
       id="tspan270">C</tspan></text>
  <path
     d="m 171.64273746380493 375.4649954223633c 0.36 -0.03 1.2 0 1.53 0.06c 1.17 0.24 1.89 0.84 2.16 1.83c 0.06 0.18 0.06 0.3 0.06 0.66c 0 0.45 0 0.63 -0.15 1.08c -0.66 2.04 -3.06 3.93 -5.52 4.38c -0.54 0.09 -1.44 0.09 -1.83 0.03c -1.23 -0.27 -1.98 -0.87 -2.25 -1.86c -0.06 -0.18 -0.06 -0.3 -0.06 -0.66c 0 -0.45 0 -0.63 0.15 -1.08c 0.24 -0.78 0.75 -1.53 1.44 -2.22c 1.2 -1.2 2.85 -2.01 4.47 -2.22zm 3.719999999999999 -23.07499999999999L 175.36273746380493 378.2233287556966L 174.36273746380493 378.2233287556966L 174.36273746380493 352.3899954223633z"
     stroke="none"
     fill="#000000"
     class=""
     id="path274" />
  <rect
     x="165.55273746380493"
     y="312.1399954223633"
     width="9.81"
     height="71.42200000000003"
     fill="#000000"
     stroke="#000000"
     fill-opacity="0"
     stroke-opacity="0"
     id="rect276" />
  <path
     d="m 236.08786745960157 371.7649954223633L 236.08786745960157 340.7649954223633L 236.68786745960156 340.7649954223633L 236.68786745960156 371.7649954223633z"
     stroke="none"
     fill="#000000"
     class=""
     id="path278" />
  <rect
     x="236.08786745960157"
     y="340.7649954223633"
     width="1"
     height="31"
     fill="#000000"
     stroke="#000000"
     fill-opacity="0"
     stroke-opacity="0"
     id="rect280" />
  <text
     font-size="16"
     font-style="normal"
     font-family="Helvetica"
     font-weight="normal"
     text-decoration="none"
     class=""
     font=""
     text-anchor="middle"
     x="263.25583620960157"
     y="319.1399954223633"
     dy="0.5em"
     id="text284"><tspan
       x="263.25583620960157"
       id="tspan282">B♭/F</tspan></text>
  <path
     d="m 270.69583620960157 363.8399954223633c 0.06 -0.03 0.27 -0.03 0.48 -0.03c 1.05 0 1.71 0.24 2.1 0.81c 0.42 0.6 0.45 1.35 0.18 2.4c -0.42 1.59 -1.14 2.73 -2.16 3.39c -1.41 0.93 -3.18 1.44 -5.4 1.53c -1.17 0.03 -1.89 -0.21 -2.28 -0.81c -0.42 -0.6 -0.45 -1.35 -0.18 -2.4c 0.42 -1.59 1.14 -2.73 2.16 -3.39c 0.63 -0.42 1.23 -0.72 1.98 -0.96c 0.9 -0.3 1.65 -0.42 3.12 -0.54zm 1.29 0.87c -0.27 -0.09 -0.63 -0.12 -0.9 -0.03c -0.72 0.24 -1.53 0.69 -3.27 1.8c -2.34 1.5 -3.3 2.25 -3.57 2.79c -0.36 0.72 -0.06 1.5 0.66 1.77c 0.24 0.12 0.69 0.09 0.99 0c 0.84 -0.3 1.92 -0.93 4.14 -2.37c 1.62 -1.08 2.37 -1.71 2.61 -2.19c 0.36 -0.72 0.06 -1.5 -0.66 -1.77zm 1.6399999999999864 -23.944999999999993L 273.6258362096016 366.5983287556966L 272.6258362096016 366.5983287556966L 272.6258362096016 340.7649954223633z"
     stroke="none"
     fill="#000000"
     class=""
     id="path286" />
  <rect
     x="263.25583620960157"
     y="312.1399954223633"
     width="16.16796875"
     height="59.815999999999974"
     fill="#000000"
     stroke="#000000"
     fill-opacity="0"
     stroke-opacity="0"
     id="rect288" />
  <path
     d="m 369.09757367340643 359.9649954223633c 0.36 -0.03 1.2 0 1.53 0.06c 1.17 0.24 1.89 0.84 2.16 1.83c 0.06 0.18 0.06 0.3 0.06 0.66c 0 0.45 0 0.63 -0.15 1.08c -0.66 2.04 -3.06 3.93 -5.52 4.38c -0.54 0.09 -1.44 0.09 -1.83 0.03c -1.23 -0.27 -1.98 -0.87 -2.25 -1.86c -0.06 -0.18 -0.06 -0.3 -0.06 -0.66c 0 -0.45 0 -0.63 0.15 -1.08c 0.24 -0.78 0.75 -1.53 1.44 -2.22c 1.2 -1.2 2.85 -2.01 4.47 -2.22zm 3.7200000000000273 -23.07499999999999L 372.81757367340646 362.7233287556966L 371.81757367340646 362.7233287556966L 371.81757367340646 336.8899954223633z"
     stroke="none"
     fill="#000000"
     class=""
     id="path290" />
  <rect
     x="363.00757367340645"
     y="336.8899954223633"
     width="9.81"
     height="31.172000000000025"
     fill="#000000"
     stroke="#000000"
     fill-opacity="0"
     stroke-opacity="0"
     id="rect292" />
  <path
     d="m 433.5427036692031 371.7649954223633L 433.5427036692031 340.7649954223633L 434.1427036692031 340.7649954223633L 434.1427036692031 371.7649954223633z"
     stroke="none"
     fill="#000000"
     class=""
     id="path294" />
  <rect
     x="433.5427036692031"
     y="340.7649954223633"
     width="1"
     height="31"
     fill="#000000"
     stroke="#000000"
     fill-opacity="0"
     stroke-opacity="0"
     id="rect296" />
  <text
     font-size="16"
     font-style="normal"
     font-family="Helvetica"
     font-weight="normal"
     text-decoration="none"
     class=""
     font=""
     text-anchor="middle"
     x="450.5427036692031"
     y="319.1399954223633"
     dy="0.5em"
     id="text300"><tspan
       x="450.5427036692031"
       id="tspan298">A</tspan></text>
  <path
     d="m 465.2327036692031 358.4599954223633c 0.09 -0.03 0.27 -0.06 0.39 -0.06c 0.96 0 1.74 0.78 1.74 1.71c 0 0.96 -0.78 1.74 -1.71 1.74c -0.96 0 -1.74 -0.78 -1.74 -1.71c 0 -0.78 0.54 -1.5 1.32 -1.68zm -7.25 -2.3700000000000045c 0.06 -0.03 0.27 -0.03 0.48 -0.03c 1.05 0 1.71 0.24 2.1 0.81c 0.42 0.6 0.45 1.35 0.18 2.4c -0.42 1.59 -1.14 2.73 -2.16 3.39c -1.41 0.93 -3.18 1.44 -5.4 1.53c -1.17 0.03 -1.89 -0.21 -2.28 -0.81c -0.42 -0.6 -0.45 -1.35 -0.18 -2.4c 0.42 -1.59 1.14 -2.73 2.16 -3.39c 0.63 -0.42 1.23 -0.72 1.98 -0.96c 0.9 -0.3 1.65 -0.42 3.12 -0.54zm 1.29 0.87c -0.27 -0.09 -0.63 -0.12 -0.9 -0.03c -0.72 0.24 -1.53 0.69 -3.27 1.8c -2.34 1.5 -3.3 2.25 -3.57 2.79c -0.36 0.72 -0.06 1.5 0.66 1.77c 0.24 0.12 0.69 0.09 0.99 0c 0.84 -0.3 1.92 -0.93 4.14 -2.37c 1.62 -1.08 2.37 -1.71 2.61 -2.19c 0.36 -0.72 0.06 -1.5 -0.66 -1.77zm 1.6399999999999864 -23.944999999999993L 460.9127036692031 358.8483287556966L 459.9127036692031 358.8483287556966L 459.9127036692031 333.0149954223633z"
     stroke="none"
     fill="#000000"
     class=""
     id="path302" />
  <rect
     x="450.5427036692031"
     y="312.1399954223633"
     width="16.82"
     height="52.065999999999974"
     fill="#000000"
     stroke="#000000"
     fill-opacity="0"
     stroke-opacity="0"
     id="rect304" />
  <path
     d="m 572.7131325403984 371.7649954223633L 572.7131325403984 340.7649954223633L 573.3131325403984 340.7649954223633L 573.3131325403984 371.7649954223633z"
     stroke="none"
     fill="#000000"
     class=""
     id="path306" />
  <rect
     x="572.7131325403984"
     y="340.7649954223633"
     width="1"
     height="31"
     fill="#000000"
     stroke="#000000"
     fill-opacity="0"
     stroke-opacity="0"
     id="rect308" />
  <path
     d="m 583.7731325403984 351.6449954223633l 0.09 -0.06l 5.46 0l 5.49 0l 0.09 0.06l 0.06 0.09l 0 2.19l 0 2.19l -0.06 0.09l -0.09 0.06l -5.49 0l -5.46 0l -0.09 -0.06l -0.06 -0.09l 0 -2.19l 0 -2.19z"
     stroke="none"
     fill="#000000"
     class=""
     id="path310" />
  <rect
     x="583.7131325403984"
     y="350.04999542236334"
     width="11.25"
     height="4.67999999999995"
     fill="#000000"
     stroke="#000000"
     fill-opacity="0"
     stroke-opacity="0"
     id="rect312" />
  <path
     d="m 689.5548700042034 371.5899954223633c 0.36 -0.03 1.2 0 1.53 0.06c 1.17 0.24 1.89 0.84 2.16 1.83c 0.06 0.18 0.06 0.3 0.06 0.66c 0 0.45 0 0.63 -0.15 1.08c -0.66 2.04 -3.06 3.93 -5.52 4.38c -0.54 0.09 -1.44 0.09 -1.83 0.03c -1.23 -0.27 -1.98 -0.87 -2.25 -1.86c -0.06 -0.18 -0.06 -0.3 -0.06 -0.66c 0 -0.45 0 -0.63 0.15 -1.08c 0.24 -0.78 0.75 -1.53 1.44 -2.22c 1.2 -1.2 2.85 -2.01 4.47 -2.22zm 3.7199999999999136 -23.07499999999999L 693.2748700042033 374.3483287556966L 692.2748700042033 374.3483287556966L 692.2748700042033 348.5149954223633z"
     stroke="none"
     fill="#000000"
     class=""
     id="path314" />
  <rect
     x="683.4648700042034"
     y="348.5149954223633"
     width="9.81"
     height="31.172000000000025"
     fill="#000000"
     stroke="#000000"
     fill-opacity="0"
     stroke-opacity="0"
     id="rect316" />
  <path
     d="m 754.05 371.7649954223633L 754.05 340.7649954223633L 754.65 340.7649954223633L 754.65 371.7649954223633z"
     stroke="none"
     fill="#000000"
     class=""
     id="path318" />
  <rect
     x="754"
     y="340.7649954223633"
     width="1"
     height="31"
     fill="#000000"
     stroke="#000000"
     fill-opacity="0"
     stroke-opacity="0"
     id="rect320" />
  <path
     d="m 29.689999999999998 418.9349954223634c 0.09 -0.09 0.24 -0.06 0.36 0c 0.12 0.09 0.57 0.6 0.96 1.11c 1.77 2.34 3.21 5.85 3.57 8.73c 0.21 1.56 0.03 3.27 -0.45 4.86c -0.69 2.31 -1.92 4.47 -4.23 7.44c -0.3 0.39 -0.57 0.72 -0.6 0.75c -0.03 0.06 0 0.15 0.18 0.78c 0.54 1.68 1.38 4.44 1.68 5.49l 0.09 0.42l 0.39 0c 1.47 0.09 2.76 0.51 3.96 1.29c 1.83 1.23 3.06 3.21 3.39 5.52c 0.09 0.45 0.12 1.29 0.06 1.74c -0.09 1.02 -0.33 1.83 -0.75 2.73c -0.84 1.71 -2.28 3.06 -4.02 3.72l -0.33 0.12l 0.03 1.26c 0 1.74 -0.06 3.63 -0.21 4.62c -0.45 3.06 -2.19 5.49 -4.47 6.21c -0.57 0.18 -0.9 0.21 -1.59 0.21c -0.69 0 -1.02 -0.03 -1.65 -0.21c -1.14 -0.27 -2.13 -0.84 -2.94 -1.65c -0.99 -0.99 -1.56 -2.16 -1.71 -3.54c -0.09 -0.81 0.06 -1.53 0.45 -2.13c 0.63 -0.99 1.83 -1.56 3 -1.53c 1.5 0.09 2.64 1.32 2.73 2.94c 0.06 1.47 -0.93 2.7 -2.37 2.97c -0.45 0.06 -0.84 0.03 -1.29 -0.09l -0.21 -0.09l 0.09 0.12c 0.39 0.54 0.78 0.93 1.32 1.26c 1.35 0.87 3.06 1.02 4.35 0.36c 1.44 -0.72 2.52 -2.28 2.97 -4.35c 0.15 -0.66 0.24 -1.5 0.3 -3.03c 0.03 -0.84 0.03 -2.94 0 -3c -0.03 0 -0.18 0 -0.36 0.03c -0.66 0.12 -0.99 0.12 -1.83 0.12c -1.05 0 -1.71 -0.06 -2.61 -0.3c -4.02 -0.99 -7.11 -4.35 -7.8 -8.46c -0.12 -0.66 -0.12 -0.99 -0.12 -1.83c 0 -0.84 0 -1.14 0.15 -1.92c 0.36 -2.28 1.41 -4.62 3.3 -7.29l 2.79 -3.6c 0.54 -0.66 0.96 -1.2 0.96 -1.23c 0 -0.03 -0.09 -0.33 -0.18 -0.69c -0.96 -3.21 -1.41 -5.28 -1.59 -7.68c -0.12 -1.38 -0.15 -3.09 -0.06 -3.96c 0.33 -2.67 1.38 -5.07 3.12 -7.08c 0.36 -0.42 0.99 -1.05 1.17 -1.14zm 2.01 4.71c -0.15 -0.3 -0.3 -0.54 -0.3 -0.54c -0.03 0 -0.18 0.09 -0.3 0.21c -2.4 1.74 -3.87 4.2 -4.26 7.11c -0.06 0.54 -0.06 1.41 -0.03 1.89c 0.09 1.29 0.48 3.12 1.08 5.22c 0.15 0.42 0.24 0.78 0.24 0.81c 0 0.03 0.84 -1.11 1.23 -1.68c 1.89 -2.73 2.88 -5.07 3.15 -7.53c 0.09 -0.57 0.12 -1.74 0.06 -2.37c -0.09 -1.23 -0.27 -1.92 -0.87 -3.12zm -2.94 20.7c -0.21 -0.72 -0.39 -1.32 -0.42 -1.32c 0 0 -1.2 1.47 -1.86 2.37c -2.79 3.63 -4.02 6.3 -4.35 9.3c -0.03 0.21 -0.03 0.69 -0.03 1.08c 0 0.69 0 0.75 0.06 1.11c 0.12 0.54 0.27 0.99 0.51 1.47c 0.69 1.38 1.83 2.55 3.42 3.42c 0.96 0.54 2.07 0.9 3.21 1.08c 0.78 0.12 2.04 0.12 2.94 -0.03c 0.51 -0.06 0.45 -0.03 0.42 -0.3c -0.24 -3.33 -0.72 -6.33 -1.62 -10.08c -0.09 -0.39 -0.18 -0.75 -0.18 -0.78c -0.03 -0.03 -0.42 0 -0.81 0.09c -0.9 0.18 -1.65 0.57 -2.22 1.14c -0.72 0.72 -1.08 1.65 -1.05 2.64c 0.06 0.96 0.48 1.83 1.23 2.58c 0.36 0.36 0.72 0.63 1.17 0.9c 0.33 0.18 0.36 0.21 0.42 0.33c 0.18 0.42 -0.18 0.9 -0.6 0.87c -0.18 -0.03 -0.84 -0.36 -1.26 -0.63c -0.78 -0.51 -1.38 -1.11 -1.86 -1.83c -1.77 -2.7 -0.99 -6.42 1.71 -8.19c 0.3 -0.21 0.81 -0.48 1.17 -0.63c 0.3 -0.09 1.02 -0.3 1.14 -0.3c 0.06 0 0.09 0 0.09 -0.03c 0.03 -0.03 -0.51 -1.92 -1.23 -4.26zm 3.78 7.41c -0.18 -0.03 -0.36 -0.06 -0.39 -0.06c -0.03 0 0 0.21 0.18 1.02c 0.75 3.18 1.26 6.3 1.5 9.09c 0.06 0.72 0 0.69 0.51 0.42c 0.78 -0.36 1.44 -0.96 1.98 -1.77c 1.08 -1.62 1.2 -3.69 0.3 -5.55c -0.81 -1.62 -2.31 -2.79 -4.08 -3.15z"
     stroke="none"
     fill="#000000"
     class=""
     id="path322" />
  <rect
     x="15"
     y="421.46999542236335"
     width="24.051"
     height="54.25"
     fill="#000000"
     stroke="#000000"
     fill-opacity="0"
     stroke-opacity="0"
     id="rect324" />
  <path
     d="m 48.691 434.52499542236336c 0.33 -0.06 0.87 0 1.08 0.15c 0.06 0.03 0.06 0.36 -0.03 5.25c -0.06 2.85 -0.09 5.19 -0.09 5.19c 0 0.03 0.12 -0.03 0.24 -0.12c 0.63 -0.42 1.41 -0.66 2.19 -0.72c 0.81 -0.03 1.47 0.21 2.04 0.78c 0.57 0.54 0.87 1.26 0.93 2.04c 0.03 0.57 -0.09 1.08 -0.36 1.62c -0.42 0.81 -1.02 1.38 -2.82 2.61c -1.14 0.78 -1.44 1.02 -1.8 1.44c -0.18 0.18 -0.39 0.39 -0.45 0.42c -0.27 0.18 -0.57 0.15 -0.81 -0.06c -0.06 -0.09 -0.12 -0.18 -0.15 -0.27c -0.03 -0.06 -0.09 -3.27 -0.18 -8.34c -0.09 -4.53 -0.15 -8.58 -0.18 -9.03l 0 -0.78l 0.12 -0.06c 0.06 -0.03 0.18 -0.09 0.27 -0.12zm 3.18 11.01c -0.21 -0.12 -0.54 -0.15 -0.81 -0.06c -0.54 0.15 -0.99 0.63 -1.17 1.26c -0.06 0.3 -0.12 2.88 -0.06 3.87c 0.03 0.42 0.03 0.81 0.06 0.9l 0.03 0.12l 0.45 -0.39c 0.63 -0.54 1.26 -1.17 1.56 -1.59c 0.3 -0.42 0.6 -0.99 0.72 -1.41c 0.18 -0.69 0.09 -1.47 -0.18 -2.07c -0.15 -0.3 -0.33 -0.51 -0.6 -0.63z"
     stroke="none"
     fill="#000000"
     class=""
     id="path326" />
  <rect
     x="49.051"
     y="439.19449542236333"
     width="6.75"
     height="18.801000000000045"
     fill="#000000"
     stroke="#000000"
     fill-opacity="0"
     stroke-opacity="0"
     id="rect328" />
  <text
     font-size="16"
     font-style="normal"
     font-family="Helvetica"
     font-weight="normal"
     text-decoration="none"
     class=""
     font=""
     text-anchor="middle"
     x="74.7463125"
     y="411.46999542236335"
     dy="0.5em"
     id="text332"><tspan
       x="74.7463125"
       id="tspan330">B♭</tspan></text>
  <path
     d="m 82.1863125 444.54499542236334c 0.06 -0.03 0.27 -0.03 0.48 -0.03c 1.05 0 1.71 0.24 2.1 0.81c 0.42 0.6 0.45 1.35 0.18 2.4c -0.42 1.59 -1.14 2.73 -2.16 3.39c -1.41 0.93 -3.18 1.44 -5.4 1.53c -1.17 0.03 -1.89 -0.21 -2.28 -0.81c -0.42 -0.6 -0.45 -1.35 -0.18 -2.4c 0.42 -1.59 1.14 -2.73 2.16 -3.39c 0.63 -0.42 1.23 -0.72 1.98 -0.96c 0.9 -0.3 1.65 -0.42 3.12 -0.54zm 1.29 0.87c -0.27 -0.09 -0.63 -0.12 -0.9 -0.03c -0.72 0.24 -1.53 0.69 -3.27 1.8c -2.34 1.5 -3.3 2.25 -3.57 2.79c -0.36 0.72 -0.06 1.5 0.66 1.77c 0.24 0.12 0.69 0.09 0.99 0c 0.84 -0.3 1.92 -0.93 4.14 -2.37c 1.62 -1.08 2.37 -1.71 2.61 -2.19c 0.36 -0.72 0.06 -1.5 -0.66 -1.77zm -8.730000000000004 30.305000000000007L 74.7463125 448.59499542236335L 75.7463125 448.59499542236335L 75.7463125 475.71999542236335z"
     stroke="none"
     fill="#000000"
     class=""
     id="path334" />
  <rect
     x="74.7463125"
     y="404.46999542236335"
     width="10.37"
     height="71.25"
     fill="#000000"
     stroke="#000000"
     fill-opacity="0"
     stroke-opacity="0"
     id="rect336" />
  <path
     d="m 219.73884238903716 448.41999542236334c 0.36 -0.03 1.2 0 1.53 0.06c 1.17 0.24 1.89 0.84 2.16 1.83c 0.06 0.18 0.06 0.3 0.06 0.66c 0 0.45 0 0.63 -0.15 1.08c -0.66 2.04 -3.06 3.93 -5.52 4.38c -0.54 0.09 -1.44 0.09 -1.83 0.03c -1.23 -0.27 -1.98 -0.87 -2.25 -1.86c -0.06 -0.18 -0.06 -0.3 -0.06 -0.66c 0 -0.45 0 -0.63 0.15 -1.08c 0.24 -0.78 0.75 -1.53 1.44 -2.22c 1.2 -1.2 2.85 -2.01 4.47 -2.22zm 3.719999999999999 -23.07499999999999L 223.45884238903716 451.17832875569667L 222.45884238903716 451.17832875569667L 222.45884238903716 425.34499542236335z"
     stroke="none"
     fill="#000000"
     class=""
     id="path338" />
  <rect
     x="213.64884238903716"
     y="425.34499542236335"
     width="9.81"
     height="31.172000000000025"
     fill="#000000"
     stroke="#000000"
     fill-opacity="0"
     stroke-opacity="0"
     id="rect340" />
  <path
     d="m 311.86776319754244 464.09499542236335L 311.86776319754244 433.09499542236335L 312.46776319754247 433.09499542236335L 312.46776319754247 464.09499542236335z"
     stroke="none"
     fill="#000000"
     class=""
     id="path342" />
  <rect
     x="311.86776319754244"
     y="433.09499542236335"
     width="1"
     height="31"
     fill="#000000"
     stroke="#000000"
     fill-opacity="0"
     stroke-opacity="0"
     id="rect344" />
  <text
     font-size="16"
     font-style="normal"
     font-family="Helvetica"
     font-weight="normal"
     text-decoration="none"
     class=""
     font=""
     text-anchor="middle"
     x="335.75838819754244"
     y="411.46999542236335"
     dy="0.5em"
     id="text348"><tspan
       x="335.75838819754244"
       id="tspan346">Gm</tspan></text>
  <path
     d="m 350.44838819754244 450.78999542236335c 0.09 -0.03 0.27 -0.06 0.39 -0.06c 0.96 0 1.74 0.78 1.74 1.71c 0 0.96 -0.78 1.74 -1.71 1.74c -0.96 0 -1.74 -0.78 -1.74 -1.71c 0 -0.78 0.54 -1.5 1.32 -1.68zm -7.25 1.5049999999999955c 0.06 -0.03 0.27 -0.03 0.48 -0.03c 1.05 0 1.71 0.24 2.1 0.81c 0.42 0.6 0.45 1.35 0.18 2.4c -0.42 1.59 -1.14 2.73 -2.16 3.39c -1.41 0.93 -3.18 1.44 -5.4 1.53c -1.17 0.03 -1.89 -0.21 -2.28 -0.81c -0.42 -0.6 -0.45 -1.35 -0.18 -2.4c 0.42 -1.59 1.14 -2.73 2.16 -3.39c 0.63 -0.42 1.23 -0.72 1.98 -0.96c 0.9 -0.3 1.65 -0.42 3.12 -0.54zm 1.29 0.87c -0.27 -0.09 -0.63 -0.12 -0.9 -0.03c -0.72 0.24 -1.53 0.69 -3.27 1.8c -2.34 1.5 -3.3 2.25 -3.57 2.79c -0.36 0.72 -0.06 1.5 0.66 1.77c 0.24 0.12 0.69 0.09 0.99 0c 0.84 -0.3 1.92 -0.93 4.14 -2.37c 1.62 -1.08 2.37 -1.71 2.61 -2.19c 0.36 -0.72 0.06 -1.5 -0.66 -1.77zm 1.6399999999999864 -23.944999999999993L 346.12838819754245 455.05332875569667L 345.12838819754245 455.05332875569667L 345.12838819754245 429.21999542236335z"
     stroke="none"
     fill="#000000"
     class=""
     id="path350" />
  <rect
     x="335.75838819754244"
     y="404.46999542236335"
     width="16.82"
     height="55.940999999999974"
     fill="#000000"
     stroke="#000000"
     fill-opacity="0"
     stroke-opacity="0"
     id="rect352" />
  <path
     d="m 505.8785493024576 464.09499542236335L 505.8785493024576 433.09499542236335L 506.4785493024576 433.09499542236335L 506.4785493024576 464.09499542236335z"
     stroke="none"
     fill="#000000"
     class=""
     id="path354" />
  <rect
     x="505.8785493024576"
     y="433.09499542236335"
     width="1"
     height="31"
     fill="#000000"
     stroke="#000000"
     fill-opacity="0"
     stroke-opacity="0"
     id="rect356" />
  <path
     d="m 524.3185493024577 452.29499542236334c 0.06 -0.03 0.27 -0.03 0.48 -0.03c 1.05 0 1.71 0.24 2.1 0.81c 0.42 0.6 0.45 1.35 0.18 2.4c -0.42 1.59 -1.14 2.73 -2.16 3.39c -1.41 0.93 -3.18 1.44 -5.4 1.53c -1.17 0.03 -1.89 -0.21 -2.28 -0.81c -0.42 -0.6 -0.45 -1.35 -0.18 -2.4c 0.42 -1.59 1.14 -2.73 2.16 -3.39c 0.63 -0.42 1.23 -0.72 1.98 -0.96c 0.9 -0.3 1.65 -0.42 3.12 -0.54zm 1.29 0.87c -0.27 -0.09 -0.63 -0.12 -0.9 -0.03c -0.72 0.24 -1.53 0.69 -3.27 1.8c -2.34 1.5 -3.3 2.25 -3.57 2.79c -0.36 0.72 -0.06 1.5 0.66 1.77c 0.24 0.12 0.69 0.09 0.99 0c 0.84 -0.3 1.92 -0.93 4.14 -2.37c 1.62 -1.08 2.37 -1.71 2.61 -2.19c 0.36 -0.72 0.06 -1.5 -0.66 -1.77zm 1.6399999999999864 -23.944999999999993L 527.2485493024576 455.05332875569667L 526.2485493024576 455.05332875569667L 526.2485493024576 429.21999542236335z"
     stroke="none"
     fill="#000000"
     class=""
     id="path358" />
  <rect
     x="516.8785493024576"
     y="429.21999542236335"
     width="10.37"
     height="31.190999999999974"
     fill="#000000"
     stroke="#000000"
     fill-opacity="0"
     stroke-opacity="0"
     id="rect360" />
  <path
     d="m 661.8710791914948 463.91999542236334c 0.36 -0.03 1.2 0 1.53 0.06c 1.17 0.24 1.89 0.84 2.16 1.83c 0.06 0.18 0.06 0.3 0.06 0.66c 0 0.45 0 0.63 -0.15 1.08c -0.66 2.04 -3.06 3.93 -5.52 4.38c -0.54 0.09 -1.44 0.09 -1.83 0.03c -1.23 -0.27 -1.98 -0.87 -2.25 -1.86c -0.06 -0.18 -0.06 -0.3 -0.06 -0.66c 0 -0.45 0 -0.63 0.15 -1.08c 0.24 -0.78 0.75 -1.53 1.44 -2.22c 1.2 -1.2 2.85 -2.01 4.47 -2.22zm 3.7199999999999136 -23.07499999999999L 665.5910791914947 466.67832875569667L 664.5910791914947 466.67832875569667L 664.5910791914947 440.84499542236335z"
     stroke="none"
     fill="#000000"
     class=""
     id="path362" />
  <rect
     x="655.7810791914948"
     y="440.84499542236335"
     width="9.81"
     height="31.172000000000025"
     fill="#000000"
     stroke="#000000"
     fill-opacity="0"
     stroke-opacity="0"
     id="rect364" />
  <path
     d="m 754.05 464.09499542236335L 754.05 433.09499542236335L 754.65 433.09499542236335L 754.65 464.09499542236335z"
     stroke="none"
     fill="#000000"
     class=""
     id="path366" />
  <rect
     x="754"
     y="433.09499542236335"
     width="1"
     height="31"
     fill="#000000"
     stroke="#000000"
     fill-opacity="0"
     stroke-opacity="0"
     id="rect368" />
  <path
     d="M 341.75838819754244 460.99499542236333 C 392.9355770846611 470.99499542236333 469.70136041533897 470.99499542236333 520.8785493024576 460.99499542236333 C 469.70136041533897 472.99499542236333 392.9355770846611 472.99499542236333 341.75838819754244 460.99499542236333 z"
     stroke="none"
     fill="#000000"
     class=""
     id="path370" />
  <path
     d="m 29.689999999999998 511.2649954223633c 0.09 -0.09 0.24 -0.06 0.36 0c 0.12 0.09 0.57 0.6 0.96 1.11c 1.77 2.34 3.21 5.85 3.57 8.73c 0.21 1.56 0.03 3.27 -0.45 4.86c -0.69 2.31 -1.92 4.47 -4.23 7.44c -0.3 0.39 -0.57 0.72 -0.6 0.75c -0.03 0.06 0 0.15 0.18 0.78c 0.54 1.68 1.38 4.44 1.68 5.49l 0.09 0.42l 0.39 0c 1.47 0.09 2.76 0.51 3.96 1.29c 1.83 1.23 3.06 3.21 3.39 5.52c 0.09 0.45 0.12 1.29 0.06 1.74c -0.09 1.02 -0.33 1.83 -0.75 2.73c -0.84 1.71 -2.28 3.06 -4.02 3.72l -0.33 0.12l 0.03 1.26c 0 1.74 -0.06 3.63 -0.21 4.62c -0.45 3.06 -2.19 5.49 -4.47 6.21c -0.57 0.18 -0.9 0.21 -1.59 0.21c -0.69 0 -1.02 -0.03 -1.65 -0.21c -1.14 -0.27 -2.13 -0.84 -2.94 -1.65c -0.99 -0.99 -1.56 -2.16 -1.71 -3.54c -0.09 -0.81 0.06 -1.53 0.45 -2.13c 0.63 -0.99 1.83 -1.56 3 -1.53c 1.5 0.09 2.64 1.32 2.73 2.94c 0.06 1.47 -0.93 2.7 -2.37 2.97c -0.45 0.06 -0.84 0.03 -1.29 -0.09l -0.21 -0.09l 0.09 0.12c 0.39 0.54 0.78 0.93 1.32 1.26c 1.35 0.87 3.06 1.02 4.35 0.36c 1.44 -0.72 2.52 -2.28 2.97 -4.35c 0.15 -0.66 0.24 -1.5 0.3 -3.03c 0.03 -0.84 0.03 -2.94 0 -3c -0.03 0 -0.18 0 -0.36 0.03c -0.66 0.12 -0.99 0.12 -1.83 0.12c -1.05 0 -1.71 -0.06 -2.61 -0.3c -4.02 -0.99 -7.11 -4.35 -7.8 -8.46c -0.12 -0.66 -0.12 -0.99 -0.12 -1.83c 0 -0.84 0 -1.14 0.15 -1.92c 0.36 -2.28 1.41 -4.62 3.3 -7.29l 2.79 -3.6c 0.54 -0.66 0.96 -1.2 0.96 -1.23c 0 -0.03 -0.09 -0.33 -0.18 -0.69c -0.96 -3.21 -1.41 -5.28 -1.59 -7.68c -0.12 -1.38 -0.15 -3.09 -0.06 -3.96c 0.33 -2.67 1.38 -5.07 3.12 -7.08c 0.36 -0.42 0.99 -1.05 1.17 -1.14zm 2.01 4.71c -0.15 -0.3 -0.3 -0.54 -0.3 -0.54c -0.03 0 -0.18 0.09 -0.3 0.21c -2.4 1.74 -3.87 4.2 -4.26 7.11c -0.06 0.54 -0.06 1.41 -0.03 1.89c 0.09 1.29 0.48 3.12 1.08 5.22c 0.15 0.42 0.24 0.78 0.24 0.81c 0 0.03 0.84 -1.11 1.23 -1.68c 1.89 -2.73 2.88 -5.07 3.15 -7.53c 0.09 -0.57 0.12 -1.74 0.06 -2.37c -0.09 -1.23 -0.27 -1.92 -0.87 -3.12zm -2.94 20.7c -0.21 -0.72 -0.39 -1.32 -0.42 -1.32c 0 0 -1.2 1.47 -1.86 2.37c -2.79 3.63 -4.02 6.3 -4.35 9.3c -0.03 0.21 -0.03 0.69 -0.03 1.08c 0 0.69 0 0.75 0.06 1.11c 0.12 0.54 0.27 0.99 0.51 1.47c 0.69 1.38 1.83 2.55 3.42 3.42c 0.96 0.54 2.07 0.9 3.21 1.08c 0.78 0.12 2.04 0.12 2.94 -0.03c 0.51 -0.06 0.45 -0.03 0.42 -0.3c -0.24 -3.33 -0.72 -6.33 -1.62 -10.08c -0.09 -0.39 -0.18 -0.75 -0.18 -0.78c -0.03 -0.03 -0.42 0 -0.81 0.09c -0.9 0.18 -1.65 0.57 -2.22 1.14c -0.72 0.72 -1.08 1.65 -1.05 2.64c 0.06 0.96 0.48 1.83 1.23 2.58c 0.36 0.36 0.72 0.63 1.17 0.9c 0.33 0.18 0.36 0.21 0.42 0.33c 0.18 0.42 -0.18 0.9 -0.6 0.87c -0.18 -0.03 -0.84 -0.36 -1.26 -0.63c -0.78 -0.51 -1.38 -1.11 -1.86 -1.83c -1.77 -2.7 -0.99 -6.42 1.71 -8.19c 0.3 -0.21 0.81 -0.48 1.17 -0.63c 0.3 -0.09 1.02 -0.3 1.14 -0.3c 0.06 0 0.09 0 0.09 -0.03c 0.03 -0.03 -0.51 -1.92 -1.23 -4.26zm 3.78 7.41c -0.18 -0.03 -0.36 -0.06 -0.39 -0.06c -0.03 0 0 0.21 0.18 1.02c 0.75 3.18 1.26 6.3 1.5 9.09c 0.06 0.72 0 0.69 0.51 0.42c 0.78 -0.36 1.44 -0.96 1.98 -1.77c 1.08 -1.62 1.2 -3.69 0.3 -5.55c -0.81 -1.62 -2.31 -2.79 -4.08 -3.15z"
     stroke="none"
     fill="#000000"
     class=""
     id="path372" />
  <rect
     x="15"
     y="513.7999954223633"
     width="24.051"
     height="54.25"
     fill="#000000"
     stroke="#000000"
     fill-opacity="0"
     stroke-opacity="0"
     id="rect374" />
  <path
     d="m 48.691 526.8549954223632c 0.33 -0.06 0.87 0 1.08 0.15c 0.06 0.03 0.06 0.36 -0.03 5.25c -0.06 2.85 -0.09 5.19 -0.09 5.19c 0 0.03 0.12 -0.03 0.24 -0.12c 0.63 -0.42 1.41 -0.66 2.19 -0.72c 0.81 -0.03 1.47 0.21 2.04 0.78c 0.57 0.54 0.87 1.26 0.93 2.04c 0.03 0.57 -0.09 1.08 -0.36 1.62c -0.42 0.81 -1.02 1.38 -2.82 2.61c -1.14 0.78 -1.44 1.02 -1.8 1.44c -0.18 0.18 -0.39 0.39 -0.45 0.42c -0.27 0.18 -0.57 0.15 -0.81 -0.06c -0.06 -0.09 -0.12 -0.18 -0.15 -0.27c -0.03 -0.06 -0.09 -3.27 -0.18 -8.34c -0.09 -4.53 -0.15 -8.58 -0.18 -9.03l 0 -0.78l 0.12 -0.06c 0.06 -0.03 0.18 -0.09 0.27 -0.12zm 3.18 11.01c -0.21 -0.12 -0.54 -0.15 -0.81 -0.06c -0.54 0.15 -0.99 0.63 -1.17 1.26c -0.06 0.3 -0.12 2.88 -0.06 3.87c 0.03 0.42 0.03 0.81 0.06 0.9l 0.03 0.12l 0.45 -0.39c 0.63 -0.54 1.26 -1.17 1.56 -1.59c 0.3 -0.42 0.6 -0.99 0.72 -1.41c 0.18 -0.69 0.09 -1.47 -0.18 -2.07c -0.15 -0.3 -0.33 -0.51 -0.6 -0.63z"
     stroke="none"
     fill="#000000"
     class=""
     id="path376" />
  <rect
     x="49.051"
     y="531.5244954223633"
     width="6.75"
     height="18.80099999999993"
     fill="#000000"
     stroke="#000000"
     fill-opacity="0"
     stroke-opacity="0"
     id="rect378" />
  <text
     font-size="16"
     font-style="normal"
     font-family="Helvetica"
     font-weight="normal"
     text-decoration="none"
     class=""
     font=""
     text-anchor="middle"
     x="76.1369375"
     y="503.7999954223633"
     dy="0.5em"
     id="text382"><tspan
       x="76.1369375"
       id="tspan380">A7</tspan></text>
  <path
     d="m 83.5769375 540.7499954223633c 0.06 -0.03 0.27 -0.03 0.48 -0.03c 1.05 0 1.71 0.24 2.1 0.81c 0.42 0.6 0.45 1.35 0.18 2.4c -0.42 1.59 -1.14 2.73 -2.16 3.39c -1.41 0.93 -3.18 1.44 -5.4 1.53c -1.17 0.03 -1.89 -0.21 -2.28 -0.81c -0.42 -0.6 -0.45 -1.35 -0.18 -2.4c 0.42 -1.59 1.14 -2.73 2.16 -3.39c 0.63 -0.42 1.23 -0.72 1.98 -0.96c 0.9 -0.3 1.65 -0.42 3.12 -0.54zm 1.29 0.87c -0.27 -0.09 -0.63 -0.12 -0.9 -0.03c -0.72 0.24 -1.53 0.69 -3.27 1.8c -2.34 1.5 -3.3 2.25 -3.57 2.79c -0.36 0.72 -0.06 1.5 0.66 1.77c 0.24 0.12 0.69 0.09 0.99 0c 0.84 -0.3 1.92 -0.93 4.14 -2.37c 1.62 -1.08 2.37 -1.71 2.61 -2.19c 0.36 -0.72 0.06 -1.5 -0.66 -1.77zm 1.6400000000000006 -23.94500000000005L 86.5069375 543.5083287556967L 85.5069375 543.5083287556967L 85.5069375 517.6749954223633z"
     stroke="none"
     fill="#000000"
     class=""
     id="path384" />
  <rect
     x="76.1369375"
     y="496.7999954223633"
     width="10.37"
     height="52.06600000000003"
     fill="#000000"
     stroke="#000000"
     fill-opacity="0"
     stroke-opacity="0"
     id="rect386" />
  <path
     d="m 172.95458439174706 544.6249954223633c 0.36 -0.03 1.2 0 1.53 0.06c 1.17 0.24 1.89 0.84 2.16 1.83c 0.06 0.18 0.06 0.3 0.06 0.66c 0 0.45 0 0.63 -0.15 1.08c -0.66 2.04 -3.06 3.93 -5.52 4.38c -0.54 0.09 -1.44 0.09 -1.83 0.03c -1.23 -0.27 -1.98 -0.87 -2.25 -1.86c -0.06 -0.18 -0.06 -0.3 -0.06 -0.66c 0 -0.45 0 -0.63 0.15 -1.08c 0.24 -0.78 0.75 -1.53 1.44 -2.22c 1.2 -1.2 2.85 -2.01 4.47 -2.22zm 3.719999999999999 -23.075000000000045L 176.67458439174706 547.3833287556967L 175.67458439174706 547.3833287556967L 175.67458439174706 521.5499954223633z"
     stroke="none"
     fill="#000000"
     class=""
     id="path388" />
  <rect
     x="166.86458439174706"
     y="521.5499954223633"
     width="9.81"
     height="31.172000000000025"
     fill="#000000"
     stroke="#000000"
     fill-opacity="0"
     stroke-opacity="0"
     id="rect390" />
  <path
     d="m 231.01871875 556.4249954223633L 231.01871875 525.4249954223633L 231.61871875 525.4249954223633L 231.61871875 556.4249954223633z"
     stroke="none"
     fill="#000000"
     class=""
     id="path392" />
  <rect
     x="231.01871875"
     y="525.4249954223633"
     width="1"
     height="31"
     fill="#000000"
     stroke="#000000"
     fill-opacity="0"
     stroke-opacity="0"
     id="rect394" />
  <text
     font-size="16"
     font-style="normal"
     font-family="Helvetica"
     font-weight="normal"
     text-decoration="none"
     class=""
     font=""
     text-anchor="middle"
     x="254.46403125"
     y="503.7999954223633"
     dy="0.5em"
     id="text398"><tspan
       x="254.46403125"
       id="tspan396">Dm</tspan></text>
  <path
     d="m 260.55403125 548.4999954223633c 0.36 -0.03 1.2 0 1.53 0.06c 1.17 0.24 1.89 0.84 2.16 1.83c 0.06 0.18 0.06 0.3 0.06 0.66c 0 0.45 0 0.63 -0.15 1.08c -0.66 2.04 -3.06 3.93 -5.52 4.38c -0.54 0.09 -1.44 0.09 -1.83 0.03c -1.23 -0.27 -1.98 -0.87 -2.25 -1.86c -0.06 -0.18 -0.06 -0.3 -0.06 -0.66c 0 -0.45 0 -0.63 0.15 -1.08c 0.24 -0.78 0.75 -1.53 1.44 -2.22c 1.2 -1.2 2.85 -2.01 4.47 -2.22zm 3.7200000000000273 -23.075000000000045L 264.27403125 551.2583287556967L 263.27403125 551.2583287556967L 263.27403125 525.4249954223633z"
     stroke="none"
     fill="#000000"
     class=""
     id="path400" />
  <rect
     x="254.46403125"
     y="496.7999954223633"
     width="12.4453125"
     height="59.797000000000025"
     fill="#000000"
     stroke="#000000"
     fill-opacity="0"
     stroke-opacity="0"
     id="rect402" />
  <path
     d="m 326.0581656082529 556.2499954223633c 0.06 -0.03 0.27 -0.03 0.48 -0.03c 1.05 0 1.71 0.24 2.1 0.81c 0.42 0.6 0.45 1.35 0.18 2.4c -0.42 1.59 -1.14 2.73 -2.16 3.39c -1.41 0.93 -3.18 1.44 -5.4 1.53c -1.17 0.03 -1.89 -0.21 -2.28 -0.81c -0.42 -0.6 -0.45 -1.35 -0.18 -2.4c 0.42 -1.59 1.14 -2.73 2.16 -3.39c 0.63 -0.42 1.23 -0.72 1.98 -0.96c 0.9 -0.3 1.65 -0.42 3.12 -0.54zm 1.29 0.87c -0.27 -0.09 -0.63 -0.12 -0.9 -0.03c -0.72 0.24 -1.53 0.69 -3.27 1.8c -2.34 1.5 -3.3 2.25 -3.57 2.79c -0.36 0.72 -0.06 1.5 0.66 1.77c 0.24 0.12 0.69 0.09 0.99 0c 0.84 -0.3 1.92 -0.93 4.14 -2.37c 1.62 -1.08 2.37 -1.71 2.61 -2.19c 0.36 -0.72 0.06 -1.5 -0.66 -1.77zm 1.6399999999999864 -23.94500000000005L 328.9881656082529 559.0083287556967L 327.9881656082529 559.0083287556967L 327.9881656082529 533.1749954223633z"
     stroke="none"
     fill="#000000"
     class=""
     id="path404" />
  <rect
     x="318.6181656082529"
     y="533.1749954223633"
     width="10.37"
     height="31.19100000000003"
     fill="#000000"
     stroke="#000000"
     fill-opacity="0"
     stroke-opacity="0"
     id="rect406" />
  <path
     d="m 409.34581249999997 556.4249954223633L 409.34581249999997 525.4249954223633L 409.9458125 525.4249954223633L 409.9458125 556.4249954223633z"
     stroke="none"
     fill="#000000"
     class=""
     id="path408" />
  <rect
     x="409.34581249999997"
     y="525.4249954223633"
     width="1"
     height="31"
     fill="#000000"
     stroke="#000000"
     fill-opacity="0"
     stroke-opacity="0"
     id="rect410" />
  <path
     d="m 427.78581249999996 556.2499954223633c 0.06 -0.03 0.27 -0.03 0.48 -0.03c 1.05 0 1.71 0.24 2.1 0.81c 0.42 0.6 0.45 1.35 0.18 2.4c -0.42 1.59 -1.14 2.73 -2.16 3.39c -1.41 0.93 -3.18 1.44 -5.4 1.53c -1.17 0.03 -1.89 -0.21 -2.28 -0.81c -0.42 -0.6 -0.45 -1.35 -0.18 -2.4c 0.42 -1.59 1.14 -2.73 2.16 -3.39c 0.63 -0.42 1.23 -0.72 1.98 -0.96c 0.9 -0.3 1.65 -0.42 3.12 -0.54zm 1.29 0.87c -0.27 -0.09 -0.63 -0.12 -0.9 -0.03c -0.72 0.24 -1.53 0.69 -3.27 1.8c -2.34 1.5 -3.3 2.25 -3.57 2.79c -0.36 0.72 -0.06 1.5 0.66 1.77c 0.24 0.12 0.69 0.09 0.99 0c 0.84 -0.3 1.92 -0.93 4.14 -2.37c 1.62 -1.08 2.37 -1.71 2.61 -2.19c 0.36 -0.72 0.06 -1.5 -0.66 -1.77zm 1.6399999999999864 -23.94500000000005L 430.71581249999997 559.0083287556967L 429.71581249999997 559.0083287556967L 429.71581249999997 533.1749954223633z"
     stroke="none"
     fill="#000000"
     class=""
     id="path412" />
  <rect
     x="420.34581249999997"
     y="533.1749954223633"
     width="10.37"
     height="31.19100000000003"
     fill="#000000"
     stroke="#000000"
     fill-opacity="0"
     stroke-opacity="0"
     id="rect414" />
  <path
     d="m 517.163459391747 548.4999954223633c 0.36 -0.03 1.2 0 1.53 0.06c 1.17 0.24 1.89 0.84 2.16 1.83c 0.06 0.18 0.06 0.3 0.06 0.66c 0 0.45 0 0.63 -0.15 1.08c -0.66 2.04 -3.06 3.93 -5.52 4.38c -0.54 0.09 -1.44 0.09 -1.83 0.03c -1.23 -0.27 -1.98 -0.87 -2.25 -1.86c -0.06 -0.18 -0.06 -0.3 -0.06 -0.66c 0 -0.45 0 -0.63 0.15 -1.08c 0.24 -0.78 0.75 -1.53 1.44 -2.22c 1.2 -1.2 2.85 -2.01 4.47 -2.22zm 3.7200000000000273 -23.075000000000045L 520.883459391747 551.2583287556967L 519.883459391747 551.2583287556967L 519.883459391747 525.4249954223633z"
     stroke="none"
     fill="#000000"
     class=""
     id="path416" />
  <rect
     x="511.073459391747"
     y="525.4249954223633"
     width="9.81"
     height="31.172000000000025"
     fill="#000000"
     stroke="#000000"
     fill-opacity="0"
     stroke-opacity="0"
     id="rect418" />
  <path
     d="m 575.22759375 556.4249954223633L 575.22759375 525.4249954223633L 575.82759375 525.4249954223633L 575.82759375 556.4249954223633z"
     stroke="none"
     fill="#000000"
     class=""
     id="path420" />
  <rect
     x="575.22759375"
     y="525.4249954223633"
     width="1"
     height="31"
     fill="#000000"
     stroke="#000000"
     fill-opacity="0"
     stroke-opacity="0"
     id="rect422" />
  <text
     font-size="16"
     font-style="normal"
     font-family="Helvetica"
     font-weight="normal"
     text-decoration="none"
     class=""
     font=""
     text-anchor="middle"
     x="599.11821875"
     y="503.7999954223633"
     dy="0.5em"
     id="text426"><tspan
       x="599.11821875"
       id="tspan424">Gm</tspan></text>
  <path
     d="m 606.55821875 544.6249954223633c 0.06 -0.03 0.27 -0.03 0.48 -0.03c 1.05 0 1.71 0.24 2.1 0.81c 0.42 0.6 0.45 1.35 0.18 2.4c -0.42 1.59 -1.14 2.73 -2.16 3.39c -1.41 0.93 -3.18 1.44 -5.4 1.53c -1.17 0.03 -1.89 -0.21 -2.28 -0.81c -0.42 -0.6 -0.45 -1.35 -0.18 -2.4c 0.42 -1.59 1.14 -2.73 2.16 -3.39c 0.63 -0.42 1.23 -0.72 1.98 -0.96c 0.9 -0.3 1.65 -0.42 3.12 -0.54zm 1.29 0.87c -0.27 -0.09 -0.63 -0.12 -0.9 -0.03c -0.72 0.24 -1.53 0.69 -3.27 1.8c -2.34 1.5 -3.3 2.25 -3.57 2.79c -0.36 0.72 -0.06 1.5 0.66 1.77c 0.24 0.12 0.69 0.09 0.99 0c 0.84 -0.3 1.92 -0.93 4.14 -2.37c 1.62 -1.08 2.37 -1.71 2.61 -2.19c 0.36 -0.72 0.06 -1.5 -0.66 -1.77zm 1.6399999999999864 -23.94500000000005L 609.48821875 547.3833287556967L 608.48821875 547.3833287556967L 608.48821875 521.5499954223633z"
     stroke="none"
     fill="#000000"
     class=""
     id="path428" />
  <rect
     x="599.11821875"
     y="496.7999954223633"
     width="12.890625"
     height="55.94100000000003"
     fill="#000000"
     stroke="#000000"
     fill-opacity="0"
     stroke-opacity="0"
     id="rect430" />
  <path
     d="m 695.9358656417471 548.4999954223633c 0.36 -0.03 1.2 0 1.53 0.06c 1.17 0.24 1.89 0.84 2.16 1.83c 0.06 0.18 0.06 0.3 0.06 0.66c 0 0.45 0 0.63 -0.15 1.08c -0.66 2.04 -3.06 3.93 -5.52 4.38c -0.54 0.09 -1.44 0.09 -1.83 0.03c -1.23 -0.27 -1.98 -0.87 -2.25 -1.86c -0.06 -0.18 -0.06 -0.3 -0.06 -0.66c 0 -0.45 0 -0.63 0.15 -1.08c 0.24 -0.78 0.75 -1.53 1.44 -2.22c 1.2 -1.2 2.85 -2.01 4.47 -2.22zm 3.7199999999999136 -23.075000000000045L 699.655865641747 551.2583287556967L 698.655865641747 551.2583287556967L 698.655865641747 525.4249954223633z"
     stroke="none"
     fill="#000000"
     class=""
     id="path432" />
  <rect
     x="689.8458656417471"
     y="525.4249954223633"
     width="9.81"
     height="31.172000000000025"
     fill="#000000"
     stroke="#000000"
     fill-opacity="0"
     stroke-opacity="0"
     id="rect434" />
  <path
     d="m 754.05 556.4249954223633L 754.05 525.4249954223633L 754.65 525.4249954223633L 754.65 556.4249954223633z"
     stroke="none"
     fill="#000000"
     class=""
     id="path436" />
  <rect
     x="754"
     y="525.4249954223633"
     width="1"
     height="31"
     fill="#000000"
     stroke="#000000"
     fill-opacity="0"
     stroke-opacity="0"
     id="rect438" />
  <path
     d="M 324.6181656082529 564.9499954223633 C 353.11177900589496 574.9499954223633 395.85219910235793 574.9499954223633 424.34581249999997 564.9499954223633 C 395.85219910235793 576.9499954223633 353.11177900589496 576.9499954223633 324.6181656082529 564.9499954223633 z"
     stroke="none"
     fill="#000000"
     class=""
     id="path440" />
  <path
     d="m 29.689999999999998 603.5949954223634c 0.09 -0.09 0.24 -0.06 0.36 0c 0.12 0.09 0.57 0.6 0.96 1.11c 1.77 2.34 3.21 5.85 3.57 8.73c 0.21 1.56 0.03 3.27 -0.45 4.86c -0.69 2.31 -1.92 4.47 -4.23 7.44c -0.3 0.39 -0.57 0.72 -0.6 0.75c -0.03 0.06 0 0.15 0.18 0.78c 0.54 1.68 1.38 4.44 1.68 5.49l 0.09 0.42l 0.39 0c 1.47 0.09 2.76 0.51 3.96 1.29c 1.83 1.23 3.06 3.21 3.39 5.52c 0.09 0.45 0.12 1.29 0.06 1.74c -0.09 1.02 -0.33 1.83 -0.75 2.73c -0.84 1.71 -2.28 3.06 -4.02 3.72l -0.33 0.12l 0.03 1.26c 0 1.74 -0.06 3.63 -0.21 4.62c -0.45 3.06 -2.19 5.49 -4.47 6.21c -0.57 0.18 -0.9 0.21 -1.59 0.21c -0.69 0 -1.02 -0.03 -1.65 -0.21c -1.14 -0.27 -2.13 -0.84 -2.94 -1.65c -0.99 -0.99 -1.56 -2.16 -1.71 -3.54c -0.09 -0.81 0.06 -1.53 0.45 -2.13c 0.63 -0.99 1.83 -1.56 3 -1.53c 1.5 0.09 2.64 1.32 2.73 2.94c 0.06 1.47 -0.93 2.7 -2.37 2.97c -0.45 0.06 -0.84 0.03 -1.29 -0.09l -0.21 -0.09l 0.09 0.12c 0.39 0.54 0.78 0.93 1.32 1.26c 1.35 0.87 3.06 1.02 4.35 0.36c 1.44 -0.72 2.52 -2.28 2.97 -4.35c 0.15 -0.66 0.24 -1.5 0.3 -3.03c 0.03 -0.84 0.03 -2.94 0 -3c -0.03 0 -0.18 0 -0.36 0.03c -0.66 0.12 -0.99 0.12 -1.83 0.12c -1.05 0 -1.71 -0.06 -2.61 -0.3c -4.02 -0.99 -7.11 -4.35 -7.8 -8.46c -0.12 -0.66 -0.12 -0.99 -0.12 -1.83c 0 -0.84 0 -1.14 0.15 -1.92c 0.36 -2.28 1.41 -4.62 3.3 -7.29l 2.79 -3.6c 0.54 -0.66 0.96 -1.2 0.96 -1.23c 0 -0.03 -0.09 -0.33 -0.18 -0.69c -0.96 -3.21 -1.41 -5.28 -1.59 -7.68c -0.12 -1.38 -0.15 -3.09 -0.06 -3.96c 0.33 -2.67 1.38 -5.07 3.12 -7.08c 0.36 -0.42 0.99 -1.05 1.17 -1.14zm 2.01 4.71c -0.15 -0.3 -0.3 -0.54 -0.3 -0.54c -0.03 0 -0.18 0.09 -0.3 0.21c -2.4 1.74 -3.87 4.2 -4.26 7.11c -0.06 0.54 -0.06 1.41 -0.03 1.89c 0.09 1.29 0.48 3.12 1.08 5.22c 0.15 0.42 0.24 0.78 0.24 0.81c 0 0.03 0.84 -1.11 1.23 -1.68c 1.89 -2.73 2.88 -5.07 3.15 -7.53c 0.09 -0.57 0.12 -1.74 0.06 -2.37c -0.09 -1.23 -0.27 -1.92 -0.87 -3.12zm -2.94 20.7c -0.21 -0.72 -0.39 -1.32 -0.42 -1.32c 0 0 -1.2 1.47 -1.86 2.37c -2.79 3.63 -4.02 6.3 -4.35 9.3c -0.03 0.21 -0.03 0.69 -0.03 1.08c 0 0.69 0 0.75 0.06 1.11c 0.12 0.54 0.27 0.99 0.51 1.47c 0.69 1.38 1.83 2.55 3.42 3.42c 0.96 0.54 2.07 0.9 3.21 1.08c 0.78 0.12 2.04 0.12 2.94 -0.03c 0.51 -0.06 0.45 -0.03 0.42 -0.3c -0.24 -3.33 -0.72 -6.33 -1.62 -10.08c -0.09 -0.39 -0.18 -0.75 -0.18 -0.78c -0.03 -0.03 -0.42 0 -0.81 0.09c -0.9 0.18 -1.65 0.57 -2.22 1.14c -0.72 0.72 -1.08 1.65 -1.05 2.64c 0.06 0.96 0.48 1.83 1.23 2.58c 0.36 0.36 0.72 0.63 1.17 0.9c 0.33 0.18 0.36 0.21 0.42 0.33c 0.18 0.42 -0.18 0.9 -0.6 0.87c -0.18 -0.03 -0.84 -0.36 -1.26 -0.63c -0.78 -0.51 -1.38 -1.11 -1.86 -1.83c -1.77 -2.7 -0.99 -6.42 1.71 -8.19c 0.3 -0.21 0.81 -0.48 1.17 -0.63c 0.3 -0.09 1.02 -0.3 1.14 -0.3c 0.06 0 0.09 0 0.09 -0.03c 0.03 -0.03 -0.51 -1.92 -1.23 -4.26zm 3.78 7.41c -0.18 -0.03 -0.36 -0.06 -0.39 -0.06c -0.03 0 0 0.21 0.18 1.02c 0.75 3.18 1.26 6.3 1.5 9.09c 0.06 0.72 0 0.69 0.51 0.42c 0.78 -0.36 1.44 -0.96 1.98 -1.77c 1.08 -1.62 1.2 -3.69 0.3 -5.55c -0.81 -1.62 -2.31 -2.79 -4.08 -3.15z"
     stroke="none"
     fill="#000000"
     class=""
     id="path442" />
  <rect
     x="15"
     y="606.1299954223633"
     width="24.051"
     height="54.25"
     fill="#000000"
     stroke="#000000"
     fill-opacity="0"
     stroke-opacity="0"
     id="rect444" />
  <path
     d="m 48.691 619.1849954223633c 0.33 -0.06 0.87 0 1.08 0.15c 0.06 0.03 0.06 0.36 -0.03 5.25c -0.06 2.85 -0.09 5.19 -0.09 5.19c 0 0.03 0.12 -0.03 0.24 -0.12c 0.63 -0.42 1.41 -0.66 2.19 -0.72c 0.81 -0.03 1.47 0.21 2.04 0.78c 0.57 0.54 0.87 1.26 0.93 2.04c 0.03 0.57 -0.09 1.08 -0.36 1.62c -0.42 0.81 -1.02 1.38 -2.82 2.61c -1.14 0.78 -1.44 1.02 -1.8 1.44c -0.18 0.18 -0.39 0.39 -0.45 0.42c -0.27 0.18 -0.57 0.15 -0.81 -0.06c -0.06 -0.09 -0.12 -0.18 -0.15 -0.27c -0.03 -0.06 -0.09 -3.27 -0.18 -8.34c -0.09 -4.53 -0.15 -8.58 -0.18 -9.03l 0 -0.78l 0.12 -0.06c 0.06 -0.03 0.18 -0.09 0.27 -0.12zm 3.18 11.01c -0.21 -0.12 -0.54 -0.15 -0.81 -0.06c -0.54 0.15 -0.99 0.63 -1.17 1.26c -0.06 0.3 -0.12 2.88 -0.06 3.87c 0.03 0.42 0.03 0.81 0.06 0.9l 0.03 0.12l 0.45 -0.39c 0.63 -0.54 1.26 -1.17 1.56 -1.59c 0.3 -0.42 0.6 -0.99 0.72 -1.41c 0.18 -0.69 0.09 -1.47 -0.18 -2.07c -0.15 -0.3 -0.33 -0.51 -0.6 -0.63z"
     stroke="none"
     fill="#000000"
     class=""
     id="path446" />
  <rect
     x="49.051"
     y="623.8544954223634"
     width="6.75"
     height="18.80099999999993"
     fill="#000000"
     stroke="#000000"
     fill-opacity="0"
     stroke-opacity="0"
     id="rect448" />
  <text
     font-size="16"
     font-style="normal"
     font-family="Helvetica"
     font-weight="normal"
     text-decoration="none"
     class=""
     font=""
     text-anchor="middle"
     x="71.801"
     y="596.1299954223633"
     dy="0.5em"
     id="text452"><tspan
       x="71.801"
       id="tspan450">A</tspan></text>
  <path
     d="m 86.491 643.1999954223634c 0.09 -0.03 0.27 -0.06 0.39 -0.06c 0.96 0 1.74 0.78 1.74 1.71c 0 0.96 -0.78 1.74 -1.71 1.74c -0.96 0 -1.74 -0.78 -1.74 -1.71c 0 -0.78 0.54 -1.5 1.32 -1.68zm -7.25 1.5049999999999955c 0.06 -0.03 0.27 -0.03 0.48 -0.03c 1.05 0 1.71 0.24 2.1 0.81c 0.42 0.6 0.45 1.35 0.18 2.4c -0.42 1.59 -1.14 2.73 -2.16 3.39c -1.41 0.93 -3.18 1.44 -5.4 1.53c -1.17 0.03 -1.89 -0.21 -2.28 -0.81c -0.42 -0.6 -0.45 -1.35 -0.18 -2.4c 0.42 -1.59 1.14 -2.73 2.16 -3.39c 0.63 -0.42 1.23 -0.72 1.98 -0.96c 0.9 -0.3 1.65 -0.42 3.12 -0.54zm 1.29 0.87c -0.27 -0.09 -0.63 -0.12 -0.9 -0.03c -0.72 0.24 -1.53 0.69 -3.27 1.8c -2.34 1.5 -3.3 2.25 -3.57 2.79c -0.36 0.72 -0.06 1.5 0.66 1.77c 0.24 0.12 0.69 0.09 0.99 0c 0.84 -0.3 1.92 -0.93 4.14 -2.37c 1.62 -1.08 2.37 -1.71 2.61 -2.19c 0.36 -0.72 0.06 -1.5 -0.66 -1.77zm 1.6400000000000006 -23.94500000000005L 82.171 647.4633287556967L 81.171 647.4633287556967L 81.171 621.6299954223633z"
     stroke="none"
     fill="#000000"
     class=""
     id="path454" />
  <rect
     x="71.801"
     y="589.1299954223633"
     width="16.82"
     height="63.69100000000003"
     fill="#000000"
     stroke="#000000"
     fill-opacity="0"
     stroke-opacity="0"
     id="rect456" />
  <path
     d="m 145.28569228349534 648.7549954223633L 145.28569228349534 617.7549954223633L 145.88569228349533 617.7549954223633L 145.88569228349533 648.7549954223633z"
     stroke="none"
     fill="#000000"
     class=""
     id="path458" />
  <rect
     x="145.28569228349534"
     y="617.7549954223633"
     width="1"
     height="31"
     fill="#000000"
     stroke="#000000"
     fill-opacity="0"
     stroke-opacity="0"
     id="rect460" />
  <path
     d="m 156.34569228349534 628.6349954223633l 0.09 -0.06l 5.46 0l 5.49 0l 0.09 0.06l 0.06 0.09l 0 2.19l 0 2.19l -0.06 0.09l -0.09 0.06l -5.49 0l -5.46 0l -0.09 -0.06l -0.06 -0.09l 0 -2.19l 0 -2.19z"
     stroke="none"
     fill="#000000"
     class=""
     id="path462" />
  <rect
     x="156.28569228349534"
     y="627.0399954223633"
     width="11.25"
     height="4.680000000000064"
     fill="#000000"
     stroke="#000000"
     fill-opacity="0"
     stroke-opacity="0"
     id="rect464" />
  <path
     d="m 222.37569228349534 660.2049954223634c 0.36 -0.03 1.2 0 1.53 0.06c 1.17 0.24 1.89 0.84 2.16 1.83c 0.06 0.18 0.06 0.3 0.06 0.66c 0 0.45 0 0.63 -0.15 1.08c -0.66 2.04 -3.06 3.93 -5.52 4.38c -0.54 0.09 -1.44 0.09 -1.83 0.03c -1.23 -0.27 -1.98 -0.87 -2.25 -1.86c -0.06 -0.18 -0.06 -0.3 -0.06 -0.66c 0 -0.45 0 -0.63 0.15 -1.08c 0.24 -0.78 0.75 -1.53 1.44 -2.22c 1.2 -1.2 2.85 -2.01 4.47 -2.22zm 3.719999999999999 -26.950000000000045L 226.09569228349534 662.9633287556967L 225.09569228349534 662.9633287556967L 225.09569228349534 633.2549954223633z"
     stroke="none"
     fill="#000000"
     class=""
     id="path466" />
  <rect
     x="216.28569228349534"
     y="633.2549954223633"
     width="9.81"
     height="35.047000000000025"
     fill="#000000"
     stroke="#000000"
     fill-opacity="0"
     stroke-opacity="0"
     id="rect468" />
  <path
     d="m 258.7120991546882 648.7549954223633L 258.7120991546882 617.7549954223633L 259.3120991546882 617.7549954223633L 259.3120991546882 648.7549954223633z"
     stroke="none"
     fill="#000000"
     class=""
     id="path470" />
  <rect
     x="258.7120991546882"
     y="617.7549954223633"
     width="1"
     height="31"
     fill="#000000"
     stroke="#000000"
     fill-opacity="0"
     stroke-opacity="0"
     id="rect472" />
  <text
     font-size="16"
     font-style="normal"
     font-family="Helvetica"
     font-weight="normal"
     text-decoration="none"
     class=""
     font=""
     text-anchor="middle"
     x="280.0480366546882"
     y="596.1299954223633"
     dy="0.5em"
     id="text476"><tspan
       x="280.0480366546882"
       id="tspan474">A7</tspan></text>
  <path
     d="m 287.4880366546882 640.8299954223634c 0.06 -0.03 0.27 -0.03 0.48 -0.03c 1.05 0 1.71 0.24 2.1 0.81c 0.42 0.6 0.45 1.35 0.18 2.4c -0.42 1.59 -1.14 2.73 -2.16 3.39c -1.41 0.93 -3.18 1.44 -5.4 1.53c -1.17 0.03 -1.89 -0.21 -2.28 -0.81c -0.42 -0.6 -0.45 -1.35 -0.18 -2.4c 0.42 -1.59 1.14 -2.73 2.16 -3.39c 0.63 -0.42 1.23 -0.72 1.98 -0.96c 0.9 -0.3 1.65 -0.42 3.12 -0.54zm 1.29 0.87c -0.27 -0.09 -0.63 -0.12 -0.9 -0.03c -0.72 0.24 -1.53 0.69 -3.27 1.8c -2.34 1.5 -3.3 2.25 -3.57 2.79c -0.36 0.72 -0.06 1.5 0.66 1.77c 0.24 0.12 0.69 0.09 0.99 0c 0.84 -0.3 1.92 -0.93 4.14 -2.37c 1.62 -1.08 2.37 -1.71 2.61 -2.19c 0.36 -0.72 0.06 -1.5 -0.66 -1.77zm 1.6399999999999864 -23.94500000000005L 290.4180366546882 643.5883287556967L 289.4180366546882 643.5883287556967L 289.4180366546882 617.7549954223633z"
     stroke="none"
     fill="#000000"
     class=""
     id="path478" />
  <rect
     x="280.0480366546882"
     y="589.1299954223633"
     width="10.37"
     height="59.81600000000003"
     fill="#000000"
     stroke="#000000"
     fill-opacity="0"
     stroke-opacity="0"
     id="rect480" />
  <path
     d="m 346.13803665468816 644.7049954223634c 0.36 -0.03 1.2 0 1.53 0.06c 1.17 0.24 1.89 0.84 2.16 1.83c 0.06 0.18 0.06 0.3 0.06 0.66c 0 0.45 0 0.63 -0.15 1.08c -0.66 2.04 -3.06 3.93 -5.52 4.38c -0.54 0.09 -1.44 0.09 -1.83 0.03c -1.23 -0.27 -1.98 -0.87 -2.25 -1.86c -0.06 -0.18 -0.06 -0.3 -0.06 -0.66c 0 -0.45 0 -0.63 0.15 -1.08c 0.24 -0.78 0.75 -1.53 1.44 -2.22c 1.2 -1.2 2.85 -2.01 4.47 -2.22zm 3.7200000000000273 -23.075000000000045L 349.8580366546882 647.4633287556967L 348.8580366546882 647.4633287556967L 348.8580366546882 621.6299954223633z"
     stroke="none"
     fill="#000000"
     class=""
     id="path482" />
  <rect
     x="340.0480366546882"
     y="621.6299954223633"
     width="9.81"
     height="31.172000000000025"
     fill="#000000"
     stroke="#000000"
     fill-opacity="0"
     stroke-opacity="0"
     id="rect484" />
  <path
     d="m 382.47444352588104 648.7549954223633L 382.47444352588104 617.7549954223633L 383.07444352588107 617.7549954223633L 383.07444352588107 648.7549954223633z"
     stroke="none"
     fill="#000000"
     class=""
     id="path486" />
  <rect
     x="382.47444352588104"
     y="617.7549954223633"
     width="1"
     height="31"
     fill="#000000"
     stroke="#000000"
     fill-opacity="0"
     stroke-opacity="0"
     id="rect488" />
  <text
     font-size="16"
     font-style="normal"
     font-family="Helvetica"
     font-weight="normal"
     text-decoration="none"
     class=""
     font=""
     text-anchor="middle"
     x="405.91975602588104"
     y="596.1299954223633"
     dy="0.5em"
     id="text492"><tspan
       x="405.91975602588104"
       id="tspan490">Dm</tspan></text>
  <path
     d="m 420.60975602588104 650.9499954223634c 0.09 -0.03 0.27 -0.06 0.39 -0.06c 0.96 0 1.74 0.78 1.74 1.71c 0 0.96 -0.78 1.74 -1.71 1.74c -0.96 0 -1.74 -0.78 -1.74 -1.71c 0 -0.78 0.54 -1.5 1.32 -1.68zm -7.25 -2.3700000000000045c 0.06 -0.03 0.27 -0.03 0.48 -0.03c 1.05 0 1.71 0.24 2.1 0.81c 0.42 0.6 0.45 1.35 0.18 2.4c -0.42 1.59 -1.14 2.73 -2.16 3.39c -1.41 0.93 -3.18 1.44 -5.4 1.53c -1.17 0.03 -1.89 -0.21 -2.28 -0.81c -0.42 -0.6 -0.45 -1.35 -0.18 -2.4c 0.42 -1.59 1.14 -2.73 2.16 -3.39c 0.63 -0.42 1.23 -0.72 1.98 -0.96c 0.9 -0.3 1.65 -0.42 3.12 -0.54zm 1.29 0.87c -0.27 -0.09 -0.63 -0.12 -0.9 -0.03c -0.72 0.24 -1.53 0.69 -3.27 1.8c -2.34 1.5 -3.3 2.25 -3.57 2.79c -0.36 0.72 -0.06 1.5 0.66 1.77c 0.24 0.12 0.69 0.09 0.99 0c 0.84 -0.3 1.92 -0.93 4.14 -2.37c 1.62 -1.08 2.37 -1.71 2.61 -2.19c 0.36 -0.72 0.06 -1.5 -0.66 -1.77zm 1.6399999999999864 -23.94500000000005L 416.28975602588105 651.3383287556967L 415.28975602588105 651.3383287556967L 415.28975602588105 625.5049954223633z"
     stroke="none"
     fill="#000000"
     class=""
     id="path494" />
  <rect
     x="405.91975602588104"
     y="589.1299954223633"
     width="16.82"
     height="67.56600000000003"
     fill="#000000"
     stroke="#000000"
     fill-opacity="0"
     stroke-opacity="0"
     id="rect496" />
  <path
     d="m 479.4044483093764 648.7549954223633L 479.4044483093764 617.7549954223633L 480.0044483093764 617.7549954223633L 480.0044483093764 648.7549954223633zm 4 0L 483.4044483093764 617.7549954223633L 487.4044483093764 617.7549954223633L 487.4044483093764 648.7549954223633z"
     stroke="none"
     fill="#000000"
     class=""
     id="path498" />
  <rect
     x="479.4044483093764"
     y="617.7549954223633"
     width="8"
     height="31"
     fill="#000000"
     stroke="#000000"
     fill-opacity="0"
     stroke-opacity="0"
     id="rect500" />
  <text
     font-size="21.333333333333332"
     font-style="normal"
     font-family="&quot;Times New Roman&quot;"
     font-weight="normal"
     text-decoration="none"
     class=""
     font=""
     text-anchor="start"
     x="15"
     y="699.3019954223633"
     dy="0.5em"
     id="text506"><tspan
       x="15"
       id="tspan502">Transcription: MTKft.</tspan><tspan
       x="15"
       dy="1.2em"
       id="tspan504" /></text>
</svg>
