<?xml version="1.0" encoding="UTF-8" standalone="no"?>
<!-- Created with Inkscape (http://www.inkscape.org/) -->

<svg
   width="845.92285"
   height="179.20334"
   viewBox="0 0 223.81709 47.414215"
   version="1.1"
   id="svg5"
   inkscape:version="1.1 (c68e22c387, 2021-05-23)"
   sodipodi:docname="budd.svg"
   xmlns:inkscape="http://www.inkscape.org/namespaces/inkscape"
   xmlns:sodipodi="http://sodipodi.sourceforge.net/DTD/sodipodi-0.dtd"
   xmlns="http://www.w3.org/2000/svg"
   xmlns:svg="http://www.w3.org/2000/svg">
  <sodipodi:namedview
     id="namedview7"
     pagecolor="#ffffff"
     bordercolor="#666666"
     borderopacity="1.0"
     inkscape:pageshadow="2"
     inkscape:pageopacity="1"
     inkscape:pagecheckerboard="false"
     inkscape:document-units="mm"
     showgrid="false"
     inkscape:snap-bbox="true"
     inkscape:snap-bbox-edge-midpoints="true"
     inkscape:snap-bbox-midpoints="true"
     inkscape:snap-page="false"
     inkscape:bbox-paths="true"
     inkscape:bbox-nodes="true"
     inkscape:zoom="4"
     inkscape:cx="605.625"
     inkscape:cy="108.375"
     inkscape:window-width="1920"
     inkscape:window-height="1017"
     inkscape:window-x="1912"
     inkscape:window-y="-8"
     inkscape:window-maximized="1"
     inkscape:current-layer="layer1"
     showguides="true"
     inkscape:guide-bbox="true"
     inkscape:snap-intersection-paths="true"
     inkscape:object-paths="true"
     inkscape:snap-smooth-nodes="true"
     inkscape:snap-global="true"
     borderlayer="true"
     inkscape:showpageshadow="false"
     units="px" />
  <defs
     id="defs2" />
  <g
     inkscape:label="Layer 1"
     inkscape:groupmode="layer"
     id="layer1"
     transform="translate(-132.39241,-11.969626)">
    <path
       style="display:inline;fill:#0000bb;fill-opacity:1;stroke:none;stroke-width:0.264583px;stroke-linecap:butt;stroke-linejoin:miter;stroke-opacity:1"
       d="m 164.75737,58.640225 h 14.95786 l 25.50357,-41.61802 h -14.95788 z"
       id="path3751"
       sodipodi:nodetypes="ccccc" />
    <path
       style="display:inline;fill:#0000bb;fill-opacity:1;stroke:none;stroke-width:0.264583px;stroke-linecap:butt;stroke-linejoin:miter;stroke-opacity:1"
       d="m 181.9927,58.640225 h 16.99948 c 14.8559,0 20.91994,-16.0393 6.96377,-16.0393 L 208.67208,36.345 c 17.39677,5e-6 19.66445,-18.666806 8.25682,-19.017521 l -9.92957,-0.305274 -0.68401,1.138382 c 8.86533,-2e-6 1.6201,16.880598 -10.14289,16.880594 l -5.20524,8.662977 c 10.31688,0.217833 7.36988,13.599947 -8.17167,13.599948 z"
       id="path4759"
       sodipodi:nodetypes="csccscccccc" />
    <path
       style="display:inline;fill:#0000bb;fill-opacity:1;stroke:none;stroke-width:0.264583px;stroke-linecap:butt;stroke-linejoin:miter;stroke-opacity:1"
       d="m 221.25024,42.435745 -5.15331,8.57654 c -2.87164,4.779218 4.57703,10.422727 9.41973,7.62794 v -1.187021 l 9.73663,-15.017459 z"
       id="path6911"
       sodipodi:nodetypes="cccccc" />
    <path
       style="display:inline;fill:#0000bb;fill-opacity:1;stroke:none;stroke-width:0.264583px;stroke-linecap:butt;stroke-linejoin:miter;stroke-opacity:1"
       d="m 228.62551,58.640225 h 13.16302 l 9.73663,-16.20448 h -13.16302 z"
       id="path9063" />
    <path
       style="display:inline;fill:#0000bb;fill-opacity:1;stroke:none;stroke-width:0.264583px;stroke-linecap:butt;stroke-linejoin:miter;stroke-opacity:1"
       d="M 259.16998,58.640225 V 57.47971 l 8.0213,-13.08957 1.05745,-0.610521 c -17.64919,-8.686725 -27.64861,18.840736 -9.07875,14.860606 z"
       id="path9549"
       sodipodi:nodetypes="ccccc" />
    <path
       style="display:inline;fill:#0000bb;fill-opacity:1;stroke:none;stroke-width:0.264583px;stroke-linecap:butt;stroke-linejoin:miter;stroke-opacity:1"
       d="m 261.59454,58.640225 h 12.67911 l 28.04253,-46.670599 h -12.12186 z"
       id="path10600" />
    <path
       style="display:inline;fill:#0000bb;fill-opacity:1;stroke:none;stroke-width:0.264583px;stroke-linecap:butt;stroke-linejoin:miter;stroke-opacity:1"
       d="M 291.383,58.640225 V 57.47971 l 8.0213,-13.08957 1.05745,-0.610521 C 282.81256,35.092894 272.81314,62.620355 291.383,58.640225 Z"
       id="path10734"
       sodipodi:nodetypes="ccccc" />
    <path
       style="display:inline;fill:#0000bb;fill-opacity:1;stroke:none;stroke-width:0.264583px;stroke-linecap:butt;stroke-linejoin:miter;stroke-opacity:1"
       d="m 293.80756,58.640225 h 12.67911 L 334.5292,11.969626 h -12.12186 z"
       id="path10736" />
    <path
       style="display:inline;fill:#ffffff;stroke:none;stroke-width:0.264583px;stroke-linecap:butt;stroke-linejoin:miter;stroke-opacity:1"
       d="m 136.13831,36.481366 -3.7459,6.23424 h 122.30922 l 2.0112,-0.958829 h 10.82776 l 1.35639,0.958829 h 17.70327 l 1.73057,-0.993909 H 299.79 l 1.6838,0.993909 h 50.98979 l 3.74591,-6.23424 z"
       id="path1622"
       sodipodi:nodetypes="ccccccccccccc" />
    <path
       style="fill:#ff0000;stroke:none;stroke-width:0.264583px;stroke-linecap:butt;stroke-linejoin:miter;stroke-opacity:1"
       d="m 135.28532,37.900985 -2.03992,3.395 h 220.07118 l 2.03992,-3.395 z"
       id="path1533"
       sodipodi:nodetypes="ccccc" />
  </g>
</svg>
