<?xml version="1.0" encoding="UTF-8" standalone="no"?>
<!-- Created with Inkscape (http://www.inkscape.org/) -->

<svg
   width="70.000252"
   height="70.000946"
   viewBox="0 0 18.5209 18.521084"
   version="1.1"
   id="svg1016"
   sodipodi:docname="chessie.svg"
   inkscape:version="1.1 (c68e22c387, 2021-05-23)"
   xmlns:inkscape="http://www.inkscape.org/namespaces/inkscape"
   xmlns:sodipodi="http://sodipodi.sourceforge.net/DTD/sodipodi-0.dtd"
   xmlns="http://www.w3.org/2000/svg"
   xmlns:svg="http://www.w3.org/2000/svg">
  <sodipodi:namedview
     id="namedview1018"
     pagecolor="#ffffff"
     bordercolor="#666666"
     borderopacity="1.0"
     inkscape:pageshadow="2"
     inkscape:pageopacity="0.0"
     inkscape:pagecheckerboard="0"
     inkscape:document-units="mm"
     showgrid="false"
     inkscape:showpageshadow="false"
     borderlayer="true"
     units="px"
     width="400px"
     inkscape:snap-object-midpoints="false"
     inkscape:snap-bbox="true"
     inkscape:snap-bbox-midpoints="true"
     inkscape:zoom="11.556987"
     inkscape:cx="30.630821"
     inkscape:cy="33.616028"
     inkscape:window-width="1920"
     inkscape:window-height="1017"
     inkscape:window-x="1912"
     inkscape:window-y="-8"
     inkscape:window-maximized="1"
     inkscape:current-layer="layer1" />
  <defs
     id="defs1013" />
  <g
     inkscape:label="Layer 1"
     inkscape:groupmode="layer"
     id="layer1"
     transform="translate(-0.35346679,-0.03230476)">
    <circle
       style="display:inline;fill:#feb52a;fill-opacity:1;stroke:none;stroke-width:0.01;stroke-miterlimit:4;stroke-dasharray:none"
       id="circle824"
       cx="9.6139507"
       cy="9.2927217"
       r="9.260417" />
    <path
       id="path1233"
       style="display:inline;fill:#000000;stroke:none;stroke-width:0.0377953;stroke-miterlimit:4;stroke-dasharray:none"
       d="m 36.335938,0.12304688 c -19.329966,2.8e-7 -35,15.67003412 -35.0000005,35.00000012 6e-7,19.329966 15.6700345,35 35.0000005,35 12.531554,-9.3e-4 24.106355,-6.701621 30.347656,-17.568359 l -13.640625,-7.91211 c -0.950391,7.077102 0.389143,7.451187 -8.400391,10.484375 -13.574667,10.074607 -20.344793,9.32765 -20.402344,3.972656 -0.04008,-3.7289 7.069458,-7.995797 15.128907,-12.433593 C 30.170964,44.090525 24.353317,36.173473 16.003906,32.5625 13.188472,31.344874 9.3763419,30.959581 7.1553714,29.75292 c -1.68638,-1.52194 0.2859058,-2.181297 0.9833005,-1.780264 0.8914545,0.512627 3.6938781,1.71074 8.9082031,2.074219 3.415804,-10.63814 11.346803,-14.960937 21.431641,-14.960937 0,-1e-6 2.088556,-7.3540781 5.535156,-8.554688 1.691438,0.8153587 1.925143,10.538596 1.925143,10.538596 4.754038,1.464346 5.849127,5.680287 6.184232,7.826638 l 13.978515,-8.18164 C 59.723824,6.4013471 48.462098,0.12389497 36.335938,0.12304688 Z"
       transform="scale(0.26458333)"
       sodipodi:nodetypes="csccccscscsccccccc" />
  </g>
</svg>
