<?xml version="1.0" encoding="UTF-8" standalone="no"?>
<!-- Created with Inkscape (http://www.inkscape.org/) -->

<svg
   version="1.1"
   id="svg824"
   width="3.732892in"
   height="3.6320031in"
   viewBox="0 0 358.35764 348.6723"
   sodipodi:docname="nycta.svg"
   inkscape:version="1.1 (c68e22c387, 2021-05-23)"
   xmlns:inkscape="http://www.inkscape.org/namespaces/inkscape"
   xmlns:sodipodi="http://sodipodi.sourceforge.net/DTD/sodipodi-0.dtd"
   xmlns="http://www.w3.org/2000/svg"
   xmlns:svg="http://www.w3.org/2000/svg">
  <defs
     id="defs828" />
  <sodipodi:namedview
     id="namedview826"
     pagecolor="#ffffff"
     bordercolor="#666666"
     borderopacity="1.0"
     inkscape:pageshadow="2"
     inkscape:pageopacity="0.0"
     inkscape:pagecheckerboard="0"
     showgrid="false"
     showguides="false"
     inkscape:guide-bbox="true"
     inkscape:object-paths="true"
     inkscape:snap-intersection-paths="true"
     inkscape:snap-smooth-nodes="true"
     inkscape:snap-object-midpoints="true"
     inkscape:zoom="1.5890261"
     inkscape:cx="127.12189"
     inkscape:cy="137.50561"
     inkscape:window-width="1920"
     inkscape:window-height="1017"
     inkscape:window-x="1912"
     inkscape:window-y="-8"
     inkscape:window-maximized="1"
     inkscape:current-layer="g830"
     inkscape:snap-midpoints="true"
     inkscape:snap-page="true"
     inkscape:snap-global="false"
     units="in"
     inkscape:document-units="in">
    <sodipodi:guide
       position="179.17882,174.33615"
       orientation="-0.07392116,0.99726409"
       id="guide827" />
    <sodipodi:guide
       position="179.17882,174.33615"
       orientation="-0.080873188,-0.9967244"
       id="guide869"
       inkscape:label=""
       inkscape:locked="false"
       inkscape:color="rgb(0,0,255)" />
  </sodipodi:namedview>
  <g
     inkscape:groupmode="layer"
     inkscape:label="Image"
     id="g830"
     transform="translate(-5.8211823,-5.6638489)">
    <ellipse
       style="display:inline;fill:#f2e3de;fill-opacity:1;stroke:none;stroke-width:10"
       id="path42493"
       cx="185"
       cy="180"
       rx="179.17882"
       ry="174.33615"
       inkscape:label="back" />
    <ellipse
       style="fill:none;fill-opacity:1;stroke:#08347d;stroke-width:2;stroke-miterlimit:4;stroke-dasharray:none;stroke-opacity:1"
       id="ellipse71000"
       cx="185"
       cy="180"
       rx="173.35854"
       ry="168.6723"
       inkscape:label="ring" />
    <path
       style="display:inline;fill:#08347d;fill-opacity:1;stroke:none;stroke-width:1px;stroke-linecap:butt;stroke-linejoin:miter;stroke-opacity:1"
       d="m 77.641898,112.25429 172.668662,2.75326 -5.03453,13.5303 -74.57398,-0.86531 -44.99612,104.07319 c -2.73122,6.31714 2.35117,12.74717 7.5518,12.82232 l 157.87972,2.28127 -5.9785,14.00228 -202.875844,-0.86531 c -9.189673,-0.0392 -25.983917,-16.88376 -17.85685,-35.16304 l 43.373494,-97.55502 -36.211369,-0.38937 z"
       id="path947"
       sodipodi:nodetypes="ccccccccccccc"
       inkscape:label="t" />
    <path
       style="display:inline;fill:#08347d;fill-opacity:1;stroke:none;stroke-width:1px;stroke-linecap:butt;stroke-linejoin:miter;stroke-opacity:1"
       d="m 123.10764,93.483614 2.82561,-6.821068 72.53399,-25.698393 -13.78396,33.523802 z"
       id="path21063"
       inkscape:label="t cap"
       sodipodi:nodetypes="ccccc" />
    <path
       style="display:inline;fill:#df213f;fill-opacity:1;stroke:none;stroke-width:1px;stroke-linecap:butt;stroke-linejoin:miter;stroke-opacity:1"
       d="m 76.272017,107.61867 6.404411,-14.794516 202.561182,3.30391 c 18.85508,0.307525 31.36273,15.647106 25.01532,30.679166 l -40.5909,96.12807 30.71851,0.74731 -7.27647,17.10954 -131.7631,-1.96662 c -10.07426,-0.16386 -21.03698,-10.07268 -15.33959,-23.04871 l 34.22112,-77.93998 c 1.25517,-2.85871 4.39748,-5.70327 8.34363,-5.67368 l 74.20272,0.55625 6.56366,-13.01607 c 1.22808,-2.43535 -0.18923,-8.59629 -4.67244,-8.67738 z"
       id="path22427"
       sodipodi:nodetypes="ccccccccccccccc"
       inkscape:label="a" />
    <path
       style="display:inline;fill:#f2e3de;fill-opacity:1;stroke:none;stroke-width:1px;stroke-linecap:butt;stroke-linejoin:miter;stroke-opacity:1"
       d="m 197.57726,222.38566 c -1.9317,-0.0263 -4.15114,-4.18421 -2.39185,-8.28801 l 26.75526,-62.41038 c 0.69499,-1.62117 3.7265,-3.26207 6.06304,-3.28183 l 26.31026,-0.2225 c 0.99343,-0.008 0.97527,2.32982 0.44499,3.55995 l -28.7021,66.5822 c -0.95314,2.21106 -1.90628,4.42212 -3.94932,4.39432 z"
       id="path34910"
       inkscape:label="a mask"
       sodipodi:nodetypes="ccccccccc" />
    <path
       style="fill:none;stroke:none;stroke-width:1px;stroke-linecap:butt;stroke-linejoin:miter;stroke-opacity:1"
       d="M 44.28136,120.79468 C 112.22728,-8.9900899 278.38455,11.502351 326.77444,124.60689"
       id="path3127"
       sodipodi:nodetypes="cc"
       inkscape:label="text guide top" />
    <g
       aria-label="NEW YORK CITY"
       id="text6429"
       style="font-weight:bold;font-size:16px;line-height:1.25;font-family:Miedinger;-inkscape-font-specification:'Miedinger, Bold';letter-spacing:13.5px;word-spacing:-1px;fill:#08347d;stroke-width:0.999994"
       inkscape:label="text top">
      <path
         d="m 43.205884,99.947234 9.689146,5.624096 -2.090406,3.60133 -10.95392,4.55393 6.216189,3.6082 -1.929606,3.32431 -9.70266,-5.63194 2.306114,-3.97295 10.461187,-4.3431 -5.92565,-3.43957 z"
         style="font-size:16px"
         id="path873" />
      <path
         d="m 66.578748,74.703096 -7.633137,8.94323 0.849756,0.725275 6.989011,-8.188553 2.192726,1.871514 -6.989011,8.188552 0.849755,0.725275 7.633137,-8.943231 2.311572,1.972951 L 62.65407,91.864974 54.132745,84.591939 64.261233,72.725073 Z"
         style="font-size:16px"
         id="path875" />
      <path
         d="m 85.818691,62.433958 -2.177201,-7.314522 2.966041,-2.281791 6.511707,3.979963 -1.97286,-7.471722 3.349954,-2.577138 2.91145,11.89494 -3.449028,2.653356 -5.936273,-3.565101 1.92995,6.647186 -3.449028,2.653356 -10.750714,-5.864152 3.349954,-2.577137 z"
         style="font-size:16px"
         id="path877" />
      <path
         d="m 140.97564,37.692442 -3.65967,1.149461 -1.10264,-3.510596 -9.12656,-5.019256 4.77769,-1.500621 5.21514,2.890384 2.63339,-5.355522 4.76278,-1.495939 -4.61213,9.301679 z"
         style="font-size:16px"
         id="path879" />
      <path
         d="m 160.48191,29.619915 q -0.43177,-0.962513 -0.54822,-2.152139 -0.11722,-1.197401 0.11893,-2.233149 0.23615,-1.035747 0.86379,-1.921421 0.63465,-0.894211 1.80269,-1.471695 1.17506,-0.58602 2.81566,-0.746621 l 5.69932,-0.55792 q 1.60949,-0.157558 2.88442,0.196477 1.28195,0.345498 2.07796,1.099658 0.80303,0.745623 1.25111,1.714389 0.44807,0.968767 0.56377,2.150618 0.11493,1.174075 -0.13753,2.203569 -0.25247,1.029495 -0.90419,1.909677 -0.64471,0.871646 -1.82053,1.449891 -1.16804,0.577483 -2.79309,0.736562 l -5.69931,0.55792 q -1.6406,0.160602 -2.90547,-0.170867 -1.2571,-0.332231 -2.05083,-1.063065 -0.78672,-0.73937 -1.21848,-1.701884 z m 3.27496,-2.549949 q 0.12178,1.244054 0.91094,1.928235 0.7884,0.676407 2.59228,0.499821 l 3.93432,-0.38514 q 3.26564,-0.319681 2.98918,-3.063613 -0.26945,-2.752468 -3.52731,-2.433548 l -3.93432,0.38514 q -3.23454,0.316637 -2.96509,3.069105 z"
         style="font-size:16px"
         id="path881" />
      <path
         d="m 193.67915,31.469503 1.22093,-11.136397 11.43927,1.254129 q 4.23245,0.464019 3.90976,3.407321 -0.10131,0.92415 -0.62646,1.699663 -0.51652,0.768599 -1.44111,0.958028 0.84796,0.509509 1.23879,1.102508 0.39944,0.586085 0.42356,1.1546 0.0241,0.568516 -0.0676,1.54873 -0.0917,0.980215 0.49099,1.830033 l -3.78203,-0.414637 q -0.30989,-0.112568 -0.39157,-0.514489 -0.0731,-0.408835 -0.0574,-0.910114 0.0165,-0.509045 -0.0394,-1.002455 -0.0473,-0.500324 -0.40678,-0.877683 -0.35945,-0.377358 -1.07392,-0.455688 l -6.58554,-0.721997 -0.38399,3.502451 z m 4.75633,-7.683667 -0.2086,1.902662 6.7098,0.73562 q 0.6834,0.07492 1.02394,-0.09208 0.3414,-0.174774 0.4027,-0.733923 0.0613,-0.55915 -0.2755,-0.784698 -0.3368,-0.225548 -1.00467,-0.29877 z"
         style="font-size:16px"
         id="path883" />
      <path
         d="m 228.23361,37.612343 -3.66334,-1.163786 3.39201,-10.677278 3.66334,1.163786 -1.14013,3.588876 6.90318,-1.758042 5.9343,1.885239 -9.3529,2.373338 6.69058,8.535752 -5.9492,-1.88997 -5.06805,-6.495612 z"
         style="font-size:16px"
         id="path885" />
      <path
         d="m 276.29278,54.291904 q -0.74034,1.007173 -0.60542,2.037172 0.13955,1.023704 1.59995,2.097196 l 2.66901,1.9619 q 1.98287,1.457543 3.35098,0.572457 l 3.19777,2.350578 q -1.46447,1.4251 -3.4323,1.529985 -1.95691,0.103217 -4.17899,-1.530157 l -4.09793,-3.012256 q -1.32821,-0.976322 -2.04813,-2.067881 -0.71362,-1.086931 -0.86935,-2.655817 -0.14481,-1.570554 1.3081,-3.547131 1.83234,-2.492753 4.07435,-2.522148 2.25293,-0.03106 4.3554,1.514395 l 4.09794,3.012256 q 2.14024,1.573221 2.64128,3.463798 0.51195,1.88891 -0.32083,3.681384 l -3.23555,-2.37834 q 0.28561,-1.496569 -1.57136,-2.861569 l -2.66901,-1.9619 q -2.61865,-1.924882 -4.26591,0.316078 z"
         style="font-size:16px"
         id="path887" />
      <path
         d="m 292.57044,74.855101 7.88475,-7.958688 2.7306,2.705228 -7.88475,7.958688 z"
         style="font-size:16px"
         id="path889" />
      <path
         d="m 319.42935,93.841729 -3.68315,-4.864509 -6.50262,4.923447 -2.31553,-3.058225 6.50262,-4.923447 -3.69259,-4.876966 2.42914,-1.839219 9.69127,12.7997 z"
         style="font-size:16px"
         id="path891" />
      <path
         d="m 324.47402,119.45803 -1.67826,-3.44932 3.30882,-1.60991 3.61373,-9.76873 2.19097,4.50309 -2.08698,5.58539 5.68619,1.81204 2.18414,4.48904 -9.88168,-3.18518 z"
         style="font-size:16px"
         id="path893" />
    </g>
    <path
       style="fill:none;stroke:none;stroke-width:1px;stroke-linecap:butt;stroke-linejoin:miter;stroke-opacity:1"
       d="M 21.565956,166.73913 C 7.9824326,385.6163 345.75305,404.98367 350.26481,171.84047"
       id="path77175"
       sodipodi:nodetypes="cc"
       inkscape:label="text guide bottom" />
    <g
       aria-label="TRANSIT AUTHORITY"
       id="text79119"
       style="font-weight:bold;font-size:16px;line-height:1.25;font-family:Miedinger;-inkscape-font-specification:'Miedinger, Bold';letter-spacing:17px;word-spacing:0px;fill:#08347d;stroke-width:0.999994"
       inkscape:label="text bottom">
      <path
         d="m 29.1937,183.12377 0.13607,-6.10005 -8.154221,-0.18189 0.08554,-3.83498 8.154221,0.18189 0.136419,-6.11567 3.046117,0.0679 -0.358034,16.0507 z"
         id="path840" />
      <path
         d="m 22.237229,201.19537 11.055255,-1.81421 1.863548,11.35592 q 0.6895,4.20161 -2.232356,4.6811 -0.917417,0.15055 -1.805459,-0.14707 -0.879068,-0.29117 -1.309806,-1.13094 -0.263106,0.95363 -0.729385,1.48933 -0.457304,0.54215 -0.998463,0.71804 -0.541159,0.1759 -1.510011,0.35072 -0.968852,0.17483 -1.630989,0.96435 l -0.616122,-3.75447 q 0.02522,-0.32874 0.39045,-0.51534 0.374202,-0.18017 0.861277,-0.29968 0.494784,-0.12078 0.955054,-0.30715 0.469244,-0.17993 0.736225,-0.62751 0.266982,-0.44758 0.150589,-1.15684 l -1.072837,-6.53756 -3.476931,0.57058 z m 8.678634,2.51847 -1.888798,0.30996 1.093079,6.6609 q 0.111332,0.67843 0.363646,0.96162 0.260024,0.28192 0.8151,0.19083 0.555075,-0.0911 0.681904,-0.47608 0.126829,-0.38499 0.01803,-1.048 z"
         id="path842" />
      <path
         d="m 44.173438,240.6626 -7.677801,10.88848 -1.639061,-4.04794 1.149334,-1.63696 -3.157905,-7.79898 -1.958601,-0.36167 -1.639061,-4.04794 13.090514,2.47913 z m -3.662245,-1.15528 -4.302063,-0.82035 1.779803,4.39552 z"
         id="path844" />
      <path
         d="m 64.183899,274.03748 -9.069886,6.57626 -2.444314,-3.37116 0.279062,-11.85954 -5.818895,4.21908 -2.25629,-3.11185 9.082536,-6.58543 2.696541,3.71904 -0.271969,11.32364 5.546925,-4.02188 z"
         style="letter-spacing:19.98px"
         id="path846" />
      <path
         d="m 82.563379,301.72111 q 0.23084,-0.28555 -0.157485,-0.69994 -0.38225,-0.40947 -2.0348,-1.7454 l -3.025627,-2.44592 q -1.008542,-0.81531 -1.631628,-1.61035 -0.623087,-0.79504 -0.832269,-1.40617 -0.203108,-0.60621 -0.161406,-1.36614 0.05269,-0.76109 0.661714,-1.51446 0.353628,-0.43744 0.722388,-0.73204 0.374836,-0.2897 0.949257,-0.47833 0.579332,-0.1947 1.230549,-0.13037 0.657293,0.0692 1.564083,0.50091 0.906789,0.43167 1.927482,1.2568 l 4.702479,3.8015 q 1.96848,1.59132 2.07157,2.66922 0.108003,1.07182 -0.08442,1.71994 -0.192426,0.64812 -0.667534,1.45952 l -2.970946,-2.40172 q 0.0986,-0.43264 -0.05835,-0.76043 -0.156944,-0.3278 -0.867784,-0.90244 l -2.576035,-2.08248 q -1.628248,-1.31628 -2.141689,-1.60075 -0.502453,-0.28563 -0.772585,0.0485 -0.230841,0.28555 0.146497,0.70109 0.388325,0.41439 2.040876,1.75031 l 3.025626,2.44593 q 1.008542,0.81531 1.631629,1.61035 0.627998,0.78896 0.831105,1.39518 0.209183,0.61113 0.156494,1.37222 -0.0417,0.75992 -0.650727,1.51329 -0.353627,0.43744 -0.728463,0.72714 -0.368761,0.2946 -1.619069,0.71039 -1.239321,0.41462 -4.046227,-1.8545 l -5.200675,-4.20424 q -1.974555,-1.59623 -2.082557,-2.66805 -0.09701,-1.07299 0.0905,-1.71503 0.192426,-0.64813 0.667534,-1.45953 l 2.970946,2.40173 q -0.0986,0.43264 0.05835,0.76043 0.161855,0.32172 0.872695,0.89636 l 3.074231,2.48522 q 1.628248,1.31628 2.130702,1.60191 0.51344,0.28447 0.783573,-0.0497 z"
         style="letter-spacing:19px"
         id="path848" />
      <path
         d="m 100.75262,317.71583 5.239,-9.90267 3.39757,1.79748 -5.239,9.90267 z"
         id="path850" />
      <path
         d="m 138.57573,324.47071 -5.78901,-1.9278 -2.57699,7.73844 -3.63944,-1.21197 2.57698,-7.73844 -5.80383,-1.93274 0.96266,-2.8908 15.23229,5.07251 z"
         id="path852" />
      <path
         d="m 193.07908,327.58551 7.51749,10.99978 -4.36553,0.12057 -1.13189,-1.64907 -8.41086,0.2323 -1.02353,1.7086 -4.36552,0.12057 6.89889,-11.39794 z m -2.36264,3.02732 -2.2725,3.74386 4.74038,-0.13093 z"
         style="letter-spacing:16px"
         id="path854" />
      <path
         d="m 219.45513,330.3522 q 0.2703,1.20442 1.11282,1.71194 0.84252,0.50751 2.62628,0.1072 l 3.01104,-0.67575 q 3.20161,-0.71851 2.63365,-3.24931 l -1.26595,-5.64094 3.75046,-0.84169 1.26937,5.65619 q 0.53889,2.40121 -0.62239,4.25518 -1.16298,1.84635 -4.25025,2.5392 l -4.74906,1.0658 q -1.60843,0.36096 -2.89932,0.21029 -1.28326,-0.15238 -2.5545,-1.03609 -1.27295,-0.89132 -1.80157,-3.2468 l -1.26937,-5.65618 3.74284,-0.83998 z"
         style="letter-spacing:16px"
         id="path856" />
      <path
         d="m 257.8786,314.99441 -5.62953,2.35319 3.14561,7.52525 -3.53918,1.47941 -3.14561,-7.52526 -5.64394,2.35921 -1.17509,-2.81116 14.81265,-6.1918 z"
         style="letter-spacing:16px"
         id="path858" />
      <path
         d="m 287.3023,306.52525 -2.37558,-3.39137 -7.91534,5.54449 2.37557,3.39138 -3.14822,2.20525 -6.42749,-9.17591 3.14822,-2.20525 2.30386,3.28899 7.91534,-5.54449 -2.30386,-3.289 3.14183,-2.20076 6.42749,9.17591 z"
         style="letter-spacing:16px"
         id="path860" />
      <path
         d="m 301.3423,290.14829 q -0.97187,-0.41028 -1.8677,-1.20164 -0.90169,-0.79654 -1.43459,-1.71553 -0.53291,-0.919 -0.67702,-1.99491 -0.14479,-1.08693 0.31663,-2.3055 0.46075,-1.22959 1.5521,-2.46502 l 3.79129,-4.29181 q 1.07067,-1.21202 2.24505,-1.82162 1.1737,-0.62062 2.2702,-0.61103 1.09581,-10e-4 2.08387,0.4023 0.98807,0.40375 1.87805,1.18994 0.88412,0.78101 1.40083,1.70655 0.5167,0.92553 0.63944,2.01383 0.12205,1.07728 -0.34454,2.3017 -0.46143,1.21856 -1.54244,2.44229 l -3.79129,4.29181 q -1.09135,1.23543 -2.243,1.85469 -1.14647,0.61341 -2.2254,0.61933 -1.07962,-0.005 -2.05148,-0.41538 z m 0.6595,-4.09789 q 0.93682,0.82757 1.98062,0.79061 1.03794,-0.0421 2.23792,-1.40052 l 2.61718,-2.9627 q 2.17236,-2.45915 0.10033,-4.27911 -2.07272,-1.831 -4.23991,0.6223 l -2.61718,2.9627 q -2.15167,2.43573 -0.079,4.26672 z"
         style="letter-spacing:16px"
         id="path862" />
      <path
         d="m 324.55872,266.16086 -9.78771,-5.45075 5.59899,-10.0539 q 2.07158,-3.71988 4.65844,-2.27927 0.81223,0.45232 1.32286,1.23747 0.50762,0.77451 0.32304,1.70008 0.79887,-0.58347 1.49712,-0.71328 0.69522,-0.14042 1.22846,0.0582 0.53325,0.1986 1.40086,0.66389 0.86761,0.46528 1.87705,0.2584 l -1.85113,3.324 q -0.2241,0.24183 -0.62619,0.16099 -0.40511,-0.0915 -0.86095,-0.30062 -0.46266,-0.21294 -0.93905,-0.35305 -0.47942,-0.15074 -0.96677,0.0339 -0.48735,0.18466 -0.83705,0.8126 l -3.22332,5.78799 3.07829,1.71429 z m -5.23284,-7.36741 1.67223,0.93127 3.28414,-5.8972 q 0.33449,-0.60064 0.31287,-0.97932 -0.0284,-0.38247 -0.51987,-0.65615 -0.49144,-0.27367 -0.8301,-0.0509 -0.33866,0.22275 -0.66555,0.80974 z"
         style="letter-spacing:15px"
         id="path864" />
      <path
         d="m 338.75625,236.63497 -10.55718,-3.74911 1.2863,-3.62213 10.55719,3.74911 z"
         style="letter-spacing:15px"
         id="path866" />
      <path
         d="m 339.87933,200.08959 -1.1902,5.98435 7.99957,1.59101 -0.74826,3.76225 -7.99957,-1.59101 -1.19326,5.99968 -2.98834,-0.59434 3.13172,-15.74628 z"
         style="letter-spacing:15px"
         id="path868" />
      <path
         d="m 350.14766,176.22651 -0.17657,3.83187 -3.67579,-0.16938 -7.84703,6.84917 0.23052,-5.00251 4.50489,-3.90614 -4.12621,-4.3117 0.2298,-4.98689 7.15339,7.52476 z"
         style="letter-spacing:15px"
         id="path870" />
    </g>
  </g>
</svg>
