<?xml version="1.0" encoding="UTF-8" standalone="no"?>
<!-- Created with Inkscape (http://www.inkscape.org/) -->

<svg
   width="35.297794mm"
   height="7.4426765mm"
   viewBox="0 0 35.297794 7.4426765"
   version="1.1"
   id="svg5"
   inkscape:export-xdpi="1381.6163"
   inkscape:export-ydpi="1381.6163"
   inkscape:version="1.1 (c68e22c387, 2021-05-23)"
   sodipodi:docname="ptc.svg"
   xmlns:inkscape="http://www.inkscape.org/namespaces/inkscape"
   xmlns:sodipodi="http://sodipodi.sourceforge.net/DTD/sodipodi-0.dtd"
   xmlns="http://www.w3.org/2000/svg"
   xmlns:svg="http://www.w3.org/2000/svg">
  <sodipodi:namedview
     id="namedview7"
     pagecolor="#ffffff"
     bordercolor="#666666"
     borderopacity="1.0"
     inkscape:pageshadow="2"
     inkscape:pageopacity="0.0"
     inkscape:pagecheckerboard="0"
     inkscape:document-units="mm"
     showgrid="false"
     inkscape:object-paths="true"
     inkscape:snap-intersection-paths="true"
     inkscape:snap-smooth-nodes="true"
     showguides="true"
     inkscape:guide-bbox="true"
     inkscape:zoom="2.8284272"
     inkscape:cx="15.379572"
     inkscape:cy="20.682873"
     inkscape:window-width="1920"
     inkscape:window-height="1017"
     inkscape:window-x="1912"
     inkscape:window-y="-8"
     inkscape:window-maximized="1"
     inkscape:current-layer="layer1" />
  <defs
     id="defs2" />
  <g
     inkscape:label="Layer 1"
     inkscape:groupmode="layer"
     id="layer1"
     transform="translate(-87.776173,-151.80355)">
    <path
       id="path1337"
       style="display:inline;fill:#ebc795;fill-opacity:1;stroke:#000000;stroke-width:0.264583px;stroke-linecap:butt;stroke-linejoin:miter;stroke-opacity:1"
       d="m 97.269368,156.61686 c 0.354852,1.35079 0.999735,2.37891 2.43596,2.37891 h 18.943192 c 1.83055,0 4.25555,-2.24377 4.29275,-3.4311 0.0331,-1.05563 -2.13377,-3.59575 -4.24835,-3.62882 l -30.788787,0.14522 m 4.728378,2.19143 c 0.354852,1.35079 1.110851,2.42359 2.591697,2.35207 l 9.818122,-0.037 m -17.138207,-4.5065 c 0.354852,1.35079 1.043321,2.28017 2.524167,2.20865 l 16.15467,-0.12621"
       sodipodi:nodetypes="cssscccccccc" />
    <path
       d="m 109.93754,152.02574 c 0.43878,0 0.7941,0.0389 1.06595,0.11664 0.27596,0.0736 0.49566,0.1903 0.6591,0.34991 0.16756,0.15552 0.28255,0.35401 0.34496,0.59547 0.0661,0.24145 0.0819,0.52179 0.0474,0.84102 -0.0663,0.61388 -0.25471,1.14592 -0.56514,1.5961 -0.31044,0.45018 -0.70208,0.78168 -1.17493,0.99449 -0.46915,0.21282 -1.01716,0.31922 -1.64401,0.31922 -0.3761,0 -0.68862,-0.008 -0.93762,-0.0246 l -0.6626,2.19157 0.0346,0.24067 -1.42146,-1e-4 0.22491,-0.24957 1.93918,-6.29028 c 0.0369,-0.36817 -0.11994,-0.37285 -0.2536,-0.37896 l 0.0933,-0.3008 z m -1.47998,4.27877 c 3.18914,-0.18847 4.35123,-4.59579 0.37809,-3.72012 l -0.95334,3.72014 z"
       id="path15616"
       style="font-style:italic;font-size:11.9337px;line-height:1.25;font-family:Cambria;-inkscape-font-specification:'Cambria, Italic';display:inline;fill:#ff0000;stroke-width:0.264583"
       sodipodi:nodetypes="scccsscsccccccccscccc" />
    <path
       d="m 111.32971,158.99577 1.3242,-4.80992 h -2.07886 l 0.1547,-0.50384 4.60056,-0.008 -0.20297,0.51184 h -1.62228 l -1.26771,4.80992 z"
       id="path15613"
       style="font-style:italic;font-size:8.28782px;line-height:1.25;font-family:Cambria;-inkscape-font-specification:'Cambria, Italic';display:inline;fill:#ff0000;stroke-width:0.264583"
       sodipodi:nodetypes="ccccccccc" />
    <g
       aria-label="C"
       transform="matrix(1.0048611,0,0.06438057,0.99516245,0,0)"
       id="text8256"
       style="font-style:italic;font-size:6.71774px;line-height:1.25;font-family:Cambria;-inkscape-font-specification:'Cambria, Italic';display:inline;fill:#ff0000;stroke-width:0.264583">
      <path
         d="m 106.72142,155.58691 -0.10561,1.54468 -0.36162,-0.0616 0.0297,-0.71181 c -2.56145,-1.42277 -2.80042,4.64827 -0.52484,2.42399 h 0.31489 l -0.20008,0.93156 c -0.22305,0.0612 -0.43845,0.10493 -0.64619,0.1312 -0.20775,0.0263 -0.42096,0.0394 -0.63963,0.0394 -0.27116,0 -0.50186,-0.0558 -0.69211,-0.16728 -0.19025,-0.11371 -0.33349,-0.27663 -0.4297,-0.48874 -0.0962,-0.21431 -0.14433,-0.47125 -0.14433,-0.77084 0,-0.15745 0.0109,-0.31052 0.0328,-0.45922 0.0263,-0.18369 0.0678,-0.38378 0.12465,-0.60027 0.0722,-0.26897 0.16291,-0.51388 0.27225,-0.73475 0.11809,-0.23398 0.25257,-0.44063 0.40346,-0.61995 0.14214,-0.16619 0.29631,-0.30505 0.4625,-0.41658 0.15307,-0.10277 0.31817,-0.18259 0.4953,-0.23945 0.17713,-0.0569 0.36519,-0.0853 0.56419,-0.0853 0.19899,0 0.38268,0.012 0.55106,0.0361 0.19048,0.0472 0.37422,0.13128 0.49331,0.24889 z"
         id="path15610"
         sodipodi:nodetypes="cccccccssccscccccsscc" />
    </g>
  </g>
</svg>
