<?xml version="1.0" encoding="UTF-8" standalone="no"?>
<!-- Created with Inkscape (http://www.inkscape.org/) -->

<svg
   width="190.5mm"
   height="35.454166mm"
   viewBox="0 0 190.5 35.454166"
   version="1.1"
   id="svg5"
   xmlns:xlink="http://www.w3.org/1999/xlink"
   xmlns="http://www.w3.org/2000/svg"
   xmlns:svg="http://www.w3.org/2000/svg">
  <defs
     id="defs2" />
  <g
     id="layer1"
     transform="translate(-12.56224,-82.443293)">
    <path
       style="display:inline;fill:#078555;fill-opacity:1;stroke-width:2.64567;stroke-linecap:round;stroke-linejoin:bevel"
       d="M 32.980846,96.015244 C -14.739244,2.1836587 529.48214,46.75033 696.31754,61.407314 360.63617,5.3440707 145.39576,-0.55123309 61.722102,19.372964 -6.2155582,35.550138 -11.839652,73.670328 32.980846,96.015244 Z"
       id="path874"
       transform="matrix(0.26458333,0,0,0.26458333,12.56224,82.443293)" />
    <path
       style="display:inline;fill:#bc9a69;fill-opacity:1;stroke-width:2.64567;stroke-linecap:round;stroke-linejoin:bevel"
       d="M 28.852848,91.887246 C 0.49164668,10.012621 420.17303,38.496788 585.39798,49.127654 401.46587,27.000499 90.507114,14.073954 34.564355,59.765624 16.721133,74.33921 21.102881,89.392877 28.852848,91.887246 Z"
       id="path16965"
       transform="matrix(0.26458333,0,0,0.26458333,12.56224,82.443293)" />
    <text
       xml:space="preserve"
       style="font-style:normal;font-variant:normal;font-weight:normal;font-stretch:normal;font-size:7.55906px;font-family:'Atkinson Hyperlegible';-inkscape-font-specification:'Atkinson Hyperlegible';text-orientation:upright;fill:#000000;fill-opacity:1;stroke-width:2.64567;stroke-linecap:round;stroke-linejoin:bevel"
       x="41.564674"
       y="182.20131"
       id="text40069"
       transform="matrix(0.26458333,0,0,0.26458333,129.4718,68.689865)"><tspan
         id="tspan40067"
         x="41.564674"
         y="182.20131">Font approximated by modifying Olney W01 Black Italic (CC-BY 4.0)</tspan></text>
    <g
       aria-label="TRANS-BRIDGE LINES"
       transform="matrix(0.28354214,0,0,0.26458333,9.6381993,82.283506)"
       id="text2104"
       style="font-size:56.6929px;font-family:OlneyW01-BlackItalic;-inkscape-font-specification:'OlneyW01-BlackItalic, Normal';text-orientation:upright;stroke:none;stroke-width:2.55569;stroke-linecap:round;stroke-linejoin:bevel">
      <path
         d="m 47.475433,85.645196 1.700787,-8.674014 h 33.165348 l -1.700787,8.674014 H 69.132122 L 63.576217,114.44519 H 53.428188 l 5.555904,-28.799994 z"
         id="path829"
         transform="matrix(0.98653095,0,-0.09524119,1,11.069732,0)"
         style="fill:#078555;fill-opacity:1;stroke:none;stroke-width:2.57308" />
      <path
         d="m 110.74469,101.12236 c 6.62787,1.80391 3.79507,8.05696 3.06142,13.32283 h -12.0189 l 1.31555,-6.79192 c 0.32933,-1.70025 -0.66083,-2.5697 -1.70574,-2.5697 H 90.504441 l -1.813288,9.36162 h -10.14803 l 7.256692,-37.474008 h 23.640935 c 2.38111,0 4.30867,0.302362 5.78268,0.907087 1.47401,0.604724 2.53228,1.455117 3.1748,2.55118 0.68032,1.096063 0.8693,2.4 0.56693,3.911811 l -1.92756,9.97795 c -0.18897,0.944882 -0.56692,1.927559 -1.13385,2.948031 -0.56693,1.020473 -1.34174,1.870866 -2.32441,2.551181 -0.94489,0.680308 -1.88977,1.114958 -2.83465,1.303938 z M 94.126116,86.285428 92.112677,96.680386 h 10.480883 c 0.94488,0 1.70079,-0.09449 2.26772,-0.283465 0.56693,-0.226771 0.96378,-0.944881 1.19055,-2.15433 l 1.04966,-5.519369 c 0.15118,-0.755905 0.13228,-1.341732 -0.0567,-1.75748 -0.15118,-0.453543 -0.96378,-0.680314 -2.43779,-0.680314 z"
         id="path831"
         transform="matrix(1,0,-0.09273485,1,10.613057,0)"
         style="fill:#078555;fill-opacity:1;stroke:none" />
      <path
         d="m 114.93996,114.44519 20.06929,-37.474008 h 17.5748 l 5.5559,37.474008 h -11.79212 l -0.68032,-5.21575 h -16.32755 l -2.60787,5.21575 z M 142.49271,83.774331 133.762,100.7822 h 10.77166 z"
         id="path833"
         transform="matrix(0.92390506,0,-0.09683632,1,19.171341,0)"
         style="fill:#078555;fill-opacity:1;stroke:none;stroke-width:2.65886" />
      <path
         d="m 161.54157,114.44519 7.2567,-37.474008 h 17.19688 l 5.21264,26.759048 5.71016,-26.759048 h 10.20472 l -7.25669,37.474008 h -17.3823 l -5.63502,-26.759049 -5.15906,26.759049 z"
         id="path835"
         transform="matrix(1.0746278,0,-0.09570178,1,-7.4630811,0)"
         style="fill:#078555;fill-opacity:1;stroke:none;stroke-width:2.46535" />
      <path
         d="m 220.35758,124.8206 0.56693,-2.83464 -10.40903,-1.17062 c -6.3874,-1.17165 -9.90396,-5.00891 -9.03467,-9.43096 l 0.62362,-3.1748 c 0.64252,-3.28819 2.13543,-5.80157 4.47874,-7.54016 2.38111,-1.776374 5.34804,-2.664561 8.90079,-2.664561 h 18.65196 l -1.64409,8.503931 h -17.12126 c -1.57429,-0.007 -2.30548,-0.0828 -2.61424,1.46104 l -0.85107,4.25537 11.17555,1.25682 c 3.40157,0.60473 5.74488,1.5874 7.02992,2.94803 1.28504,1.36063 1.68189,3.2504 1.19055,5.66929 l -0.62362,3.1748 c -0.60473,3.25039 -2.09764,5.76378 -4.47874,7.54016 -2.34331,1.77638 -5.29134,2.66457 -8.84409,2.66457 H 197.569 l 1.68484,-7.76814 h 18.25511 c 1.29938,-0.007 2.51461,-1.38447 2.84863,-2.89013 z"
         id="path16544"
         transform="matrix(1.1680835,0,-0.05252799,1,-23.093259,-21.033676)"
         style="-inkscape-font-specification:OlneyW01-BlackItalic;fill:#078555;fill-opacity:1;stroke-width:2.36467" />
      <path
         d="m 243.57616,103.1633 1.64409,-8.503932 h 21.6 l -1.6441,8.503932 z"
         id="path839"
         transform="matrix(0.70047585,0,-0.08423105,1,79.955884,5.2842799)"
         style="fill:#078555;fill-opacity:1;stroke:none;stroke-width:3.05359" />
      <path
         d="m 268.69113,114.44519 7.25669,-37.474008 H 300.836 c 3.40157,0 5.89606,0.585827 7.48346,1.75748 1.58741,1.171653 2.11654,3.231496 1.58741,6.179527 l -0.68032,3.288188 c -0.37795,2.040945 -1.21724,4.593591 -2.65346,5.87863 -1.43622,1.285039 -2.92913,1.889764 -4.47874,1.814173 1.17165,0.07559 2.15433,0.415748 2.94803,1.020472 0.7937,0.604725 1.34173,1.379528 1.6441,2.324409 0.34015,0.944879 0.37795,2.078739 0.11338,3.401569 l -0.97488,3.87255 c -0.37795,1.92756 -1.07717,3.45827 -2.09764,4.59213 -0.98268,1.09606 -2.30551,1.92756 -3.9685,2.49449 -1.66299,0.56693 -3.72284,0.85039 -6.17953,0.85039 z m 13.56008,-14.24857 -1.30394,6.91653 h 11.4155 c 1.13386,0 1.31553,-0.17008 1.80687,-0.51023 0.49134,-0.34016 0.83149,-0.98268 1.02047,-1.92756 l 0.39685,-2.04095 c 0.15118,-0.71811 0.11339,-1.30393 -0.11339,-1.75747 -0.22677,-0.45355 -0.40844,-0.68032 -1.80686,-0.68032 z m 2.80462,-14.0785 -1.41732,7.199998 h 10.69062 c 1.13386,0 1.1827,-0.170079 1.67404,-0.510236 0.52914,-0.340157 0.86929,-0.982677 1.02047,-1.927559 l 0.45354,-2.324409 c 0.15118,-0.71811 0.11339,-1.303936 -0.11338,-1.757479 -0.18898,-0.453543 -0.21892,-0.680315 -1.61735,-0.680315 z"
         id="path841"
         transform="matrix(1,0,-0.07620697,1,-0.0450612,0)"
         style="fill:#078555;fill-opacity:1;stroke:none" />
      <path
         d="m 110.74469,101.12236 c 6.62787,1.80391 3.79507,8.05696 3.06142,13.32283 h -12.0189 l 1.31555,-6.79192 c 0.32933,-1.70025 -0.66083,-2.5697 -1.70574,-2.5697 H 90.504441 l -1.813288,9.36162 h -10.14803 l 7.256692,-37.474008 h 23.640935 c 2.38111,0 4.30867,0.302362 5.78268,0.907087 1.47401,0.604724 2.53228,1.455117 3.1748,2.55118 0.68032,1.096063 0.8693,2.4 0.56693,3.911811 l -1.92756,9.97795 c -0.18897,0.944882 -0.56692,1.927559 -1.13385,2.948031 -0.56693,1.020473 -1.34174,1.870866 -2.32441,2.551181 -0.94489,0.680308 -1.88977,1.114958 -2.83465,1.303938 z M 94.126116,86.285428 92.112677,96.680386 h 10.480883 c 0.94488,0 1.70079,-0.09449 2.26772,-0.283465 0.56693,-0.226771 0.96378,-0.944881 1.19055,-2.15433 l 1.04966,-5.519369 c 0.15118,-0.755905 0.13228,-1.341732 -0.0567,-1.75748 -0.15118,-0.453543 -0.96378,-0.680314 -2.43779,-0.680314 z"
         id="path24811"
         transform="matrix(1,0,-0.09273485,1,231.2358,0)"
         style="fill:#078555;fill-opacity:1;stroke:none" />
      <path
         d="m 350.89588,114.44519 7.2567,-37.474008 h 10.14802 l -7.25669,37.474008 z"
         id="path845"
         transform="matrix(1,0,-0.08329599,1,-1.0933346,0)"
         style="fill:#078555;fill-opacity:1;stroke:none" />
      <path
         d="m 408.60925,86.608976 -3.51496,18.198424 q -0.90709,4.53543 -4.53543,7.08661 -3.57166,2.55118 -8.61733,2.55118 h -23.52755 l 7.25669,-37.474008 h 23.52756 q 2.43779,0 4.36535,0.623622 1.98425,0.623622 3.2315,1.870866 1.30393,1.247244 1.75748,3.061417 0.51023,1.814173 0.0567,4.081889 z m -24.43464,-1.133858 -3.96851,20.466142 h 10.99843 q 3.51496,0 4.25196,-3.57166 l 2.60788,-13.322829 q 0.62362,-3.571653 -2.89134,-3.571653 z"
         id="path847"
         transform="matrix(1.0558805,0,-0.06911795,1,-24.830616,0)"
         style="fill:#078555;fill-opacity:1;stroke:none;stroke-width:2.48714" />
      <path
         id="path849"
         style="fill:#078555;fill-opacity:1;stroke:none;stroke-width:2.64567"
         d="m 441.56641,91.761719 -2.07618,7.136719 h 7.54297 l -1.71289,5.890622 c -0.42534,1.46226 -2.16861,1.91563 -3.02539,1.95703 h -9.09375 c -1.6096,-0.0768 -3.21636,-3.06855 -2.57226,-4.98047 l 3.91211,-13.322261 c 0.3482,-1.285039 0.87383,-2.193522 1.57617,-2.722656 0.70471,-0.566929 1.70429,-0.849609 2.99804,-0.849609 h 9.57422 c 3.15688,-0.132764 3.68028,1.426467 2.86133,3.849609 h 11.22461 c 2.66063,-6.857513 1.20768,-12.272786 -7.01758,-12.353515 h -17.04687 c -3.92585,0 -7.2574,0.849994 -9.9961,2.550781 -2.73632,1.662992 -4.55722,4.026473 -5.46289,7.08789 l -5.28906,18.197261 c -0.90566,3.06141 -0.47608,5.44375 1.29102,7.14454 1.76946,1.66299 4.61712,2.49414 8.54297,2.49414 h 23.0039 c 2.13277,0 5.21855,-2.36132 6.75391,-7.17578 l 2.25976,-7.767582 h 4.67969 l -4.80469,14.943362 h 32.13867 l 2.73243,-8.50391 h -21.26563 l 1.99414,-6.292968 h 19.44141 l 2.73047,-8.503906 h -19.44141 l 1.86133,-5.669922 h 21.26367 l 2.73242,-8.503906 h -32.14062 l -4.94922,15.394531 z"
         transform="matrix(0.93313584,0,0,1,10.312544,0.60391938)" />
      <path
         d="m 502.60612,114.44519 7.25669,-37.474008 h 10.14803 l -5.6126,28.970078 h 18.25512 l -1.6441,8.50393 z"
         id="path853"
         transform="matrix(1,0,-0.11342433,1,6.6715859,0)"
         style="fill:#078555;fill-opacity:1;stroke:none" />
      <path
         d="m 535.54466,114.44519 7.25669,-37.474008 h 10.14803 l -7.25669,37.474008 z"
         id="path855"
         transform="matrix(1,0,-0.08861276,1,3.8984344,0)"
         style="fill:#078555;fill-opacity:1;stroke:none" />
      <path
         d="m 161.54157,114.44519 7.2567,-37.474008 h 17.19688 l 5.21264,26.759048 5.71016,-26.759048 h 10.20472 l -7.25669,37.474008 h -17.3823 l -5.63502,-26.759049 -5.15906,26.759049 z"
         id="path36418"
         transform="matrix(1.0746278,0,-0.09570178,1,383.84336,0)"
         style="fill:#078555;fill-opacity:1;stroke:none;stroke-width:2.46535" />
      <path
         d="m 598.75724,114.44519 7.25669,-37.474008 h 29.99055 l -1.6441,8.503936 h -19.84251 l -1.13386,5.66929 h 18.14173 l -1.64409,8.503935 h -18.14173 l -1.19055,6.292917 h 19.84251 l -1.64409,8.50393 z"
         id="path859"
         transform="matrix(1,0,-0.0708902,1,3.7961653,0)"
         style="display:none;stroke:none" />
      <path
         d="m 163.84273,135.47887 8.87659,-37.47462 h 28.17848 l -2.01317,8.50391 h -18.64238 l -1.3769,5.66992 h 17.04476 l -2.01145,8.50391 h -17.04477 l -1.63665,7.02874 h 42.29171 c 1.29938,-0.007 2.51461,-1.38447 2.84863,-2.89013 l 0.56693,-2.83464 -10.40903,-1.17062 c -6.3874,-1.17165 -9.90396,-5.00891 -9.03467,-9.43096 l 0.62362,-3.1748 c 0.64252,-3.28819 2.13543,-5.80157 4.47874,-7.54016 2.38111,-1.776374 5.34804,-2.664561 8.90079,-2.664561 h 18.65196 l -1.64409,8.503931 h -17.12126 c -1.57429,-0.007 -2.30548,-0.0828 -2.61424,1.46104 l -0.85107,4.25537 11.17555,1.25682 c 3.40157,0.60473 5.74488,1.5874 7.02992,2.94803 1.28504,1.36063 1.68189,3.2504 1.19055,5.66929 l -0.62362,3.1748 c -0.60473,3.25039 -2.09764,5.76378 -4.47874,7.54016 -2.34331,1.77638 -5.29134,2.66457 -8.84409,2.66457 z"
         id="path21308"
         transform="matrix(1.064343,0,-0.04786284,1,426.5399,-21.03368)"
         style="-inkscape-font-specification:OlneyW01-BlackItalic;fill:#078555;fill-opacity:1;stroke-width:2.47723" />
    </g>
  </g>
</svg>
