<?xml version="1.0" encoding="UTF-8" standalone="no"?>
<!-- Created with Inkscape (http://www.inkscape.org/) -->

<svg
   width="7.25in"
   height="10.5in"
   viewBox="0 0 184.15 266.7"
   version="1.1"
   id="svg5"
   inkscape:version="1.1 (c68e22c387, 2021-05-23)"
   sodipodi:docname="weregettingthere.svg"
   inkscape:export-xdpi="240"
   inkscape:export-ydpi="240"
   xmlns:inkscape="http://www.inkscape.org/namespaces/inkscape"
   xmlns:sodipodi="http://sodipodi.sourceforge.net/DTD/sodipodi-0.dtd"
   xmlns="http://www.w3.org/2000/svg"
   xmlns:svg="http://www.w3.org/2000/svg">
  <sodipodi:namedview
     id="namedview7"
     pagecolor="#000000"
     bordercolor="#666666"
     borderopacity="1.0"
     inkscape:pageshadow="2"
     inkscape:pageopacity="1"
     inkscape:pagecheckerboard="0"
     inkscape:document-units="mm"
     showgrid="false"
     borderlayer="true"
     inkscape:showpageshadow="false"
     units="in"
     inkscape:snap-page="true"
     inkscape:snap-bbox="false"
     inkscape:bbox-paths="true"
     inkscape:bbox-nodes="true"
     inkscape:snap-nodes="true"
     inkscape:zoom="0.56750931"
     inkscape:cx="274.88536"
     inkscape:cy="573.55887"
     inkscape:window-width="1920"
     inkscape:window-height="1017"
     inkscape:window-x="1912"
     inkscape:window-y="-8"
     inkscape:window-maximized="1"
     inkscape:current-layer="layer1"
     inkscape:snap-bbox-edge-midpoints="true"
     inkscape:snap-bbox-midpoints="true"
     showguides="true"
     inkscape:guide-bbox="true"
     inkscape:object-paths="true"
     inkscape:snap-intersection-paths="true"
     inkscape:snap-smooth-nodes="true"
     inkscape:snap-midpoints="true"
     guidecolor="#69fff3"
     guideopacity="0.49803922" />
  <defs
     id="defs2" />
  <g
     inkscape:label="Layer 1"
     inkscape:groupmode="layer"
     id="layer1">
    <rect
       style="fill:#000000;stroke-width:0.529167;fill-opacity:1"
       id="rect915"
       width="184.14999"
       height="266.69998"
       x="0"
       y="0" />
    <g
       id="g4640"
       transform="matrix(0.11749466,0,0,0.11749466,70.04795,199.97682)"
       style="stroke-width:2.25187">
      <rect
         x="54.099998"
         y="14.666"
         fill="#ffffff"
         width="391.79999"
         height="340.38901"
         id="rect4630"
         style="stroke-width:3.38063" />
      <path
         id="path4632"
         fill="#f14728"
         d="M 441.775,14.666 H 340.441 L 180.888,127.332 H 329.553 L 445.332,242.665 333.556,355.107 h 108.22 c 25.555,0 44.221,-25.332 44.221,-43.331 V 58.221 C 485.996,39.998 467.33,14.666 441.775,14.666 Z"
         style="stroke-width:3.38063" />
      <path
         id="path4634"
         fill="#1f4fa3"
         d="M 58.666,355.107 H 159.777 L 319.331,242.888 H 170.887 L 54.666,127.332 167.11,14.666 H 58.666 c -25.778,0 -44,25.332 -44,43.776 v 253.555 c 0,17.778 18.222,43.11 44,43.11 z"
         style="stroke-width:3.38063" />
      <path
         id="path4636"
         fill="#f14728"
         d="M 206.443,137.998 H 192.22 l 87.111,87.107 c 4.001,3.338 7.11,7.336 13.999,6.893 h 14.89 l -87.555,-86.889 c -4,-4.445 -6.889,-7.111 -14.222,-7.111 z"
         style="stroke-width:3.38063" />
      <path
         id="path4638"
         style="fill:none;stroke:#ffffff;stroke-width:2.83465;stroke-miterlimit:4;stroke-dasharray:none"
         d="m 571.61133,913.51172 h 48.05859 c 11.34832,0 19.63672,-11.2493 19.63672,-19.24219 V 781.67188 c -4.4e-4,-8.09237 -8.2884,-19.3418 -19.63672,-19.3418 h -45 -76.97265 -48.15625 c -11.44735,0 -19.53907,11.24894 -19.53907,19.43945 v 112.59766 c 0,7.89475 8.09172,19.14453 19.53907,19.14453 h 44.90039 z"
         transform="matrix(2.2518754,0,0,2.2518754,-953.64291,-1702.0077)"
         sodipodi:nodetypes="csscsccsssscc" />
    </g>
    <g
       id="g4628"
       transform="matrix(0.11749466,0,0,0.11749466,71.04795,199.97682)"
       style="stroke-width:2.25187">
      <rect
         x="54.099998"
         y="14.666"
         fill="#ffffff"
         width="391.79999"
         height="340.38901"
         id="rect4618"
         style="stroke-width:3.38063" />
      <path
         id="path4620"
         fill="#f14728"
         d="M 441.775,14.666 H 340.441 L 180.888,127.332 H 329.553 L 445.332,242.665 333.556,355.107 h 108.22 c 25.555,0 44.221,-25.332 44.221,-43.331 V 58.221 C 485.996,39.998 467.33,14.666 441.775,14.666 Z"
         style="stroke-width:3.38063" />
      <path
         id="path4622"
         fill="#1f4fa3"
         d="M 58.666,355.107 H 159.777 L 319.331,242.888 H 170.887 L 54.666,127.332 167.11,14.666 H 58.666 c -25.778,0 -44,25.332 -44,43.776 v 253.555 c 0,17.778 18.222,43.11 44,43.11 z"
         style="stroke-width:3.38063" />
      <path
         id="path4624"
         fill="#f14728"
         d="M 206.443,137.998 H 192.22 l 87.111,87.107 c 4.001,3.338 7.11,7.336 13.999,6.893 h 14.89 l -87.555,-86.889 c -4,-4.445 -6.889,-7.111 -14.222,-7.111 z"
         style="stroke-width:3.38063" />
      <path
         id="path4626"
         style="fill:none;stroke:#ffffff;stroke-width:2.83465;stroke-miterlimit:4;stroke-dasharray:none"
         d="m 571.61133,913.51172 h 48.05859 c 11.34832,0 19.63672,-11.2493 19.63672,-19.24219 V 781.67188 c -4.4e-4,-8.09237 -8.2884,-19.3418 -19.63672,-19.3418 h -45 -76.97265 -48.15625 c -11.44735,0 -19.53907,11.24894 -19.53907,19.43945 v 112.59766 c 0,7.89475 8.09172,19.14453 19.53907,19.14453 h 44.90039 z"
         transform="matrix(2.2518754,0,0,2.2518754,-953.64291,-1702.0077)"
         sodipodi:nodetypes="csscsccsssscc" />
    </g>
    <g
       id="g4616"
       transform="matrix(0.11749466,0,0,0.11749466,72.04795,199.97682)"
       style="stroke-width:2.25187">
      <rect
         x="54.099998"
         y="14.666"
         fill="#ffffff"
         width="391.79999"
         height="340.38901"
         id="rect4606"
         style="stroke-width:3.38063" />
      <path
         id="path4608"
         fill="#f14728"
         d="M 441.775,14.666 H 340.441 L 180.888,127.332 H 329.553 L 445.332,242.665 333.556,355.107 h 108.22 c 25.555,0 44.221,-25.332 44.221,-43.331 V 58.221 C 485.996,39.998 467.33,14.666 441.775,14.666 Z"
         style="stroke-width:3.38063" />
      <path
         id="path4610"
         fill="#1f4fa3"
         d="M 58.666,355.107 H 159.777 L 319.331,242.888 H 170.887 L 54.666,127.332 167.11,14.666 H 58.666 c -25.778,0 -44,25.332 -44,43.776 v 253.555 c 0,17.778 18.222,43.11 44,43.11 z"
         style="stroke-width:3.38063" />
      <path
         id="path4612"
         fill="#f14728"
         d="M 206.443,137.998 H 192.22 l 87.111,87.107 c 4.001,3.338 7.11,7.336 13.999,6.893 h 14.89 l -87.555,-86.889 c -4,-4.445 -6.889,-7.111 -14.222,-7.111 z"
         style="stroke-width:3.38063" />
      <path
         id="path4614"
         style="fill:none;stroke:#ffffff;stroke-width:2.83465;stroke-miterlimit:4;stroke-dasharray:none"
         d="m 571.61133,913.51172 h 48.05859 c 11.34832,0 19.63672,-11.2493 19.63672,-19.24219 V 781.67188 c -4.4e-4,-8.09237 -8.2884,-19.3418 -19.63672,-19.3418 h -45 -76.97265 -48.15625 c -11.44735,0 -19.53907,11.24894 -19.53907,19.43945 v 112.59766 c 0,7.89475 8.09172,19.14453 19.53907,19.14453 h 44.90039 z"
         transform="matrix(2.2518754,0,0,2.2518754,-953.64291,-1702.0077)"
         sodipodi:nodetypes="csscsccsssscc" />
    </g>
    <g
       id="g4452"
       transform="matrix(0.11749466,0,0,0.11749466,73.04795,199.97682)"
       style="stroke-width:2.25187">
      <rect
         x="54.099998"
         y="14.666"
         fill="#ffffff"
         width="391.79999"
         height="340.38901"
         id="rect4442"
         style="stroke-width:3.38063" />
      <path
         id="path4444"
         fill="#f14728"
         d="M 441.775,14.666 H 340.441 L 180.888,127.332 H 329.553 L 445.332,242.665 333.556,355.107 h 108.22 c 25.555,0 44.221,-25.332 44.221,-43.331 V 58.221 C 485.996,39.998 467.33,14.666 441.775,14.666 Z"
         style="stroke-width:3.38063" />
      <path
         id="path4446"
         fill="#1f4fa3"
         d="M 58.666,355.107 H 159.777 L 319.331,242.888 H 170.887 L 54.666,127.332 167.11,14.666 H 58.666 c -25.778,0 -44,25.332 -44,43.776 v 253.555 c 0,17.778 18.222,43.11 44,43.11 z"
         style="stroke-width:3.38063" />
      <path
         id="path4448"
         fill="#f14728"
         d="M 206.443,137.998 H 192.22 l 87.111,87.107 c 4.001,3.338 7.11,7.336 13.999,6.893 h 14.89 l -87.555,-86.889 c -4,-4.445 -6.889,-7.111 -14.222,-7.111 z"
         style="stroke-width:3.38063" />
      <path
         id="path4450"
         style="fill:none;stroke:#ffffff;stroke-width:2.83465;stroke-miterlimit:4;stroke-dasharray:none"
         d="m 571.61133,913.51172 h 48.05859 c 11.34832,0 19.63672,-11.2493 19.63672,-19.24219 V 781.67188 c -4.4e-4,-8.09237 -8.2884,-19.3418 -19.63672,-19.3418 h -45 -76.97265 -48.15625 c -11.44735,0 -19.53907,11.24894 -19.53907,19.43945 v 112.59766 c 0,7.89475 8.09172,19.14453 19.53907,19.14453 h 44.90039 z"
         transform="matrix(2.2518754,0,0,2.2518754,-953.64291,-1702.0077)"
         sodipodi:nodetypes="csscsccsssscc" />
    </g>
    <g
       id="g4440"
       transform="matrix(0.11749466,0,0,0.11749466,75.04795,199.97682)"
       style="stroke-width:2.25187">
      <rect
         x="54.099998"
         y="14.666"
         fill="#ffffff"
         width="391.79999"
         height="340.38901"
         id="rect4430"
         style="stroke-width:3.38063" />
      <path
         id="path4432"
         fill="#f14728"
         d="M 441.775,14.666 H 340.441 L 180.888,127.332 H 329.553 L 445.332,242.665 333.556,355.107 h 108.22 c 25.555,0 44.221,-25.332 44.221,-43.331 V 58.221 C 485.996,39.998 467.33,14.666 441.775,14.666 Z"
         style="stroke-width:3.38063" />
      <path
         id="path4434"
         fill="#1f4fa3"
         d="M 58.666,355.107 H 159.777 L 319.331,242.888 H 170.887 L 54.666,127.332 167.11,14.666 H 58.666 c -25.778,0 -44,25.332 -44,43.776 v 253.555 c 0,17.778 18.222,43.11 44,43.11 z"
         style="stroke-width:3.38063" />
      <path
         id="path4436"
         fill="#f14728"
         d="M 206.443,137.998 H 192.22 l 87.111,87.107 c 4.001,3.338 7.11,7.336 13.999,6.893 h 14.89 l -87.555,-86.889 c -4,-4.445 -6.889,-7.111 -14.222,-7.111 z"
         style="stroke-width:3.38063" />
      <path
         id="path4438"
         style="fill:none;stroke:#ffffff;stroke-width:2.83465;stroke-miterlimit:4;stroke-dasharray:none"
         d="m 571.61133,913.51172 h 48.05859 c 11.34832,0 19.63672,-11.2493 19.63672,-19.24219 V 781.67188 c -4.4e-4,-8.09237 -8.2884,-19.3418 -19.63672,-19.3418 h -45 -76.97265 -48.15625 c -11.44735,0 -19.53907,11.24894 -19.53907,19.43945 v 112.59766 c 0,7.89475 8.09172,19.14453 19.53907,19.14453 h 44.90039 z"
         transform="matrix(2.2518754,0,0,2.2518754,-953.64291,-1702.0077)"
         sodipodi:nodetypes="csscsccsssscc" />
    </g>
    <g
       id="g4428"
       transform="matrix(0.11749466,0,0,0.11749466,78.04795,199.97682)"
       style="stroke-width:2.25187">
      <rect
         x="54.099998"
         y="14.666"
         fill="#ffffff"
         width="391.79999"
         height="340.38901"
         id="rect4418"
         style="stroke-width:3.38063" />
      <path
         id="path4420"
         fill="#f14728"
         d="M 441.775,14.666 H 340.441 L 180.888,127.332 H 329.553 L 445.332,242.665 333.556,355.107 h 108.22 c 25.555,0 44.221,-25.332 44.221,-43.331 V 58.221 C 485.996,39.998 467.33,14.666 441.775,14.666 Z"
         style="stroke-width:3.38063" />
      <path
         id="path4422"
         fill="#1f4fa3"
         d="M 58.666,355.107 H 159.777 L 319.331,242.888 H 170.887 L 54.666,127.332 167.11,14.666 H 58.666 c -25.778,0 -44,25.332 -44,43.776 v 253.555 c 0,17.778 18.222,43.11 44,43.11 z"
         style="stroke-width:3.38063" />
      <path
         id="path4424"
         fill="#f14728"
         d="M 206.443,137.998 H 192.22 l 87.111,87.107 c 4.001,3.338 7.11,7.336 13.999,6.893 h 14.89 l -87.555,-86.889 c -4,-4.445 -6.889,-7.111 -14.222,-7.111 z"
         style="stroke-width:3.38063" />
      <path
         id="path4426"
         style="fill:none;stroke:#ffffff;stroke-width:2.83465;stroke-miterlimit:4;stroke-dasharray:none"
         d="m 571.61133,913.51172 h 48.05859 c 11.34832,0 19.63672,-11.2493 19.63672,-19.24219 V 781.67188 c -4.4e-4,-8.09237 -8.2884,-19.3418 -19.63672,-19.3418 h -45 -76.97265 -48.15625 c -11.44735,0 -19.53907,11.24894 -19.53907,19.43945 v 112.59766 c 0,7.89475 8.09172,19.14453 19.53907,19.14453 h 44.90039 z"
         transform="matrix(2.2518754,0,0,2.2518754,-953.64291,-1702.0077)"
         sodipodi:nodetypes="csscsccsssscc" />
    </g>
    <g
       id="g4416"
       transform="matrix(0.11749466,0,0,0.11749466,82.04795,199.97682)"
       style="stroke-width:2.25187">
      <rect
         x="54.099998"
         y="14.666"
         fill="#ffffff"
         width="391.79999"
         height="340.38901"
         id="rect4406"
         style="stroke-width:3.38063" />
      <path
         id="path4408"
         fill="#f14728"
         d="M 441.775,14.666 H 340.441 L 180.888,127.332 H 329.553 L 445.332,242.665 333.556,355.107 h 108.22 c 25.555,0 44.221,-25.332 44.221,-43.331 V 58.221 C 485.996,39.998 467.33,14.666 441.775,14.666 Z"
         style="stroke-width:3.38063" />
      <path
         id="path4410"
         fill="#1f4fa3"
         d="M 58.666,355.107 H 159.777 L 319.331,242.888 H 170.887 L 54.666,127.332 167.11,14.666 H 58.666 c -25.778,0 -44,25.332 -44,43.776 v 253.555 c 0,17.778 18.222,43.11 44,43.11 z"
         style="stroke-width:3.38063" />
      <path
         id="path4412"
         fill="#f14728"
         d="M 206.443,137.998 H 192.22 l 87.111,87.107 c 4.001,3.338 7.11,7.336 13.999,6.893 h 14.89 l -87.555,-86.889 c -4,-4.445 -6.889,-7.111 -14.222,-7.111 z"
         style="stroke-width:3.38063" />
      <path
         id="path4414"
         style="fill:none;stroke:#ffffff;stroke-width:2.83465;stroke-miterlimit:4;stroke-dasharray:none"
         d="m 571.61133,913.51172 h 48.05859 c 11.34832,0 19.63672,-11.2493 19.63672,-19.24219 V 781.67188 c -4.4e-4,-8.09237 -8.2884,-19.3418 -19.63672,-19.3418 h -45 -76.97265 -48.15625 c -11.44735,0 -19.53907,11.24894 -19.53907,19.43945 v 112.59766 c 0,7.89475 8.09172,19.14453 19.53907,19.14453 h 44.90039 z"
         transform="matrix(2.2518754,0,0,2.2518754,-953.64291,-1702.0077)"
         sodipodi:nodetypes="csscsccsssscc" />
    </g>
    <g
       id="g4404"
       transform="matrix(0.11749466,0,0,0.11749466,87.04795,199.97682)"
       style="stroke-width:2.25187">
      <rect
         x="54.099998"
         y="14.666"
         fill="#ffffff"
         width="391.79999"
         height="340.38901"
         id="rect4394"
         style="stroke-width:3.38063" />
      <path
         id="path4396"
         fill="#f14728"
         d="M 441.775,14.666 H 340.441 L 180.888,127.332 H 329.553 L 445.332,242.665 333.556,355.107 h 108.22 c 25.555,0 44.221,-25.332 44.221,-43.331 V 58.221 C 485.996,39.998 467.33,14.666 441.775,14.666 Z"
         style="stroke-width:3.38063" />
      <path
         id="path4398"
         fill="#1f4fa3"
         d="M 58.666,355.107 H 159.777 L 319.331,242.888 H 170.887 L 54.666,127.332 167.11,14.666 H 58.666 c -25.778,0 -44,25.332 -44,43.776 v 253.555 c 0,17.778 18.222,43.11 44,43.11 z"
         style="stroke-width:3.38063" />
      <path
         id="path4400"
         fill="#f14728"
         d="M 206.443,137.998 H 192.22 l 87.111,87.107 c 4.001,3.338 7.11,7.336 13.999,6.893 h 14.89 l -87.555,-86.889 c -4,-4.445 -6.889,-7.111 -14.222,-7.111 z"
         style="stroke-width:3.38063" />
      <path
         id="path4402"
         style="fill:none;stroke:#ffffff;stroke-width:2.83465;stroke-miterlimit:4;stroke-dasharray:none"
         d="m 571.61133,913.51172 h 48.05859 c 11.34832,0 19.63672,-11.2493 19.63672,-19.24219 V 781.67188 c -4.4e-4,-8.09237 -8.2884,-19.3418 -19.63672,-19.3418 h -45 -76.97265 -48.15625 c -11.44735,0 -19.53907,11.24894 -19.53907,19.43945 v 112.59766 c 0,7.89475 8.09172,19.14453 19.53907,19.14453 h 44.90039 z"
         transform="matrix(2.2518754,0,0,2.2518754,-953.64291,-1702.0077)"
         sodipodi:nodetypes="csscsccsssscc" />
    </g>
    <g
       id="g4386"
       transform="matrix(0.11749466,0,0,0.11749466,97.04795,199.97682)"
       style="stroke-width:2.25187">
      <rect
         x="54.099998"
         y="14.666"
         fill="#ffffff"
         width="391.79999"
         height="340.38901"
         id="rect4376"
         style="stroke-width:3.38063" />
      <path
         id="path4378"
         fill="#f14728"
         d="M 441.775,14.666 H 340.441 L 180.888,127.332 H 329.553 L 445.332,242.665 333.556,355.107 h 108.22 c 25.555,0 44.221,-25.332 44.221,-43.331 V 58.221 C 485.996,39.998 467.33,14.666 441.775,14.666 Z"
         style="stroke-width:3.38063" />
      <path
         id="path4380"
         fill="#1f4fa3"
         d="M 58.666,355.107 H 159.777 L 319.331,242.888 H 170.887 L 54.666,127.332 167.11,14.666 H 58.666 c -25.778,0 -44,25.332 -44,43.776 v 253.555 c 0,17.778 18.222,43.11 44,43.11 z"
         style="stroke-width:3.38063" />
      <path
         id="path4382"
         fill="#f14728"
         d="M 206.443,137.998 H 192.22 l 87.111,87.107 c 4.001,3.338 7.11,7.336 13.999,6.893 h 14.89 l -87.555,-86.889 c -4,-4.445 -6.889,-7.111 -14.222,-7.111 z"
         style="stroke-width:3.38063" />
      <path
         id="path4384"
         style="fill:none;stroke:#ffffff;stroke-width:2.83465;stroke-miterlimit:4;stroke-dasharray:none"
         d="m 571.61133,913.51172 h 48.05859 c 11.34832,0 19.63672,-11.2493 19.63672,-19.24219 V 781.67188 c -4.4e-4,-8.09237 -8.2884,-19.3418 -19.63672,-19.3418 h -45 -76.97265 -48.15625 c -11.44735,0 -19.53907,11.24894 -19.53907,19.43945 v 112.59766 c 0,7.89475 8.09172,19.14453 19.53907,19.14453 h 44.90039 z"
         transform="matrix(2.2518754,0,0,2.2518754,-953.64291,-1702.0077)"
         sodipodi:nodetypes="csscsccsssscc" />
    </g>
    <g
       id="g829"
       transform="matrix(0.11749466,0,0,0.11749466,112.04795,199.97682)"
       style="stroke-width:2.25187">
      <rect
         x="54.099998"
         y="14.666"
         fill="#ffffff"
         width="391.79999"
         height="340.38901"
         id="rect824"
         style="stroke-width:3.38063" />
      <path
         id="path2578"
         fill="#f14728"
         d="M 441.775,14.666 H 340.441 L 180.888,127.332 H 329.553 L 445.332,242.665 333.556,355.107 h 108.22 c 25.555,0 44.221,-25.332 44.221,-43.331 V 58.221 C 485.996,39.998 467.33,14.666 441.775,14.666 Z"
         style="stroke-width:3.38063" />
      <path
         id="path2580"
         fill="#1f4fa3"
         d="M 58.666,355.107 H 159.777 L 319.331,242.888 H 170.887 L 54.666,127.332 167.11,14.666 H 58.666 c -25.778,0 -44,25.332 -44,43.776 v 253.555 c 0,17.778 18.222,43.11 44,43.11 z"
         style="stroke-width:3.38063" />
      <path
         id="path2582"
         fill="#f14728"
         d="M 206.443,137.998 H 192.22 l 87.111,87.107 c 4.001,3.338 7.11,7.336 13.999,6.893 h 14.89 l -87.555,-86.889 c -4,-4.445 -6.889,-7.111 -14.222,-7.111 z"
         style="stroke-width:3.38063" />
      <path
         id="path4384-8"
         style="fill:none;stroke:#ffffff;stroke-width:6.38328;stroke-miterlimit:4;stroke-dasharray:none"
         d="m 333.55268,355.10678 h 108.22196 c 25.555,0 44.21945,-25.33202 44.21945,-43.33101 V 58.219887 C 485.99309,39.996878 467.32964,14.664563 441.77464,14.664563 H 340.44024 167.10743 58.66555 c -25.778,0 -43.99955,25.331212 -43.99955,43.77522 V 311.99568 c 0,17.778 18.22155,43.1111 43.99955,43.1111 h 101.11009 z"
         sodipodi:nodetypes="csscsccsssscc" />
      <path
         style="fill:#ff0000;fill-opacity:1;stroke:none;stroke-width:0;stroke-linecap:butt;stroke-linejoin:miter;stroke-miterlimit:4;stroke-dasharray:none;stroke-opacity:1;paint-order:normal"
         d="m 14.666,62.758418 -575.44466,-6.8e-5 182.79534,6.383354 392.64932,-4e-6"
         id="path3702"
         sodipodi:nodetypes="cccc" />
      <path
         d="m 15.31956,52.124515 -269.66274,-0.06713 -306.43548,10.700963 H 14.666007"
         style="fill:#ffffff;stroke:none;stroke-width:6.38328;stroke-linecap:butt;stroke-linejoin:miter;stroke-miterlimit:4;stroke-dasharray:none;paint-order:normal"
         id="path5540"
         sodipodi:nodetypes="cccc" />
      <path
         d="M 71.666124,127.332 H -380.35445 l -305.43474,10.666 H 71.666124"
         style="fill:#ffffff;stroke:none;stroke-width:6.38328;stroke-linecap:butt;stroke-linejoin:miter;stroke-miterlimit:4;stroke-dasharray:none;paint-order:normal"
         id="path6049"
         sodipodi:nodetypes="cccc" />
      <path
         style="fill:#ff0000;fill-opacity:1;stroke:none;stroke-width:0;stroke-linecap:butt;stroke-linejoin:miter;stroke-miterlimit:4;stroke-dasharray:none;stroke-opacity:1;paint-order:normal"
         d="m 54.665974,135.44447 -740.455174,2.55353 107.84465,3.76602 H 54.665974"
         id="path6047"
         sodipodi:nodetypes="cccc" />
      <path
         style="fill:#ff0000;fill-opacity:1;stroke:none;stroke-width:0;stroke-linecap:butt;stroke-linejoin:miter;stroke-miterlimit:4;stroke-dasharray:none;stroke-opacity:1;paint-order:normal"
         d="m 320.17634,242.88793 h -963.66981 l 183.53861,6.38333 771.0544,-5e-5"
         id="path6684"
         sodipodi:nodetypes="cccc" />
      <path
         d="m 171.08907,232.22193 h -508.40433 l -305.43421,10.666 h 813.83854"
         style="fill:#ffffff;stroke:none;stroke-width:6.38328;stroke-linecap:butt;stroke-linejoin:miter;stroke-miterlimit:4;stroke-dasharray:none;paint-order:normal"
         id="path6686"
         sodipodi:nodetypes="cccc" />
      <path
         style="fill:#ff0000;fill-opacity:1;stroke:none;stroke-width:0;stroke-linecap:butt;stroke-linejoin:miter;stroke-miterlimit:4;stroke-dasharray:none;stroke-opacity:1;paint-order:normal"
         d="m 11.474394,345.48009 -612.127004,-7e-5 182.79534,6.38335 H 11.474394"
         id="path8513"
         sodipodi:nodetypes="cccc" />
      <path
         d="m 22.70424,334.81402 h -317.92169 l -305.43516,10.666 612.127004,7e-5 v 9.57492 h 24.665333 v -6.94743"
         style="fill:#ffffff;stroke:none;stroke-width:6.38328;stroke-linecap:butt;stroke-linejoin:miter;stroke-miterlimit:4;stroke-dasharray:none;paint-order:normal"
         id="path8515"
         sodipodi:nodetypes="ccccccc" />
    </g>
    <text
       xml:space="preserve"
       style="font-style:normal;font-variant:normal;font-weight:bold;font-stretch:normal;font-size:48px;line-height:0.8;font-family:'Century Schoolbook';-inkscape-font-specification:'Century Schoolbook, Bold';font-variant-ligatures:normal;font-variant-caps:normal;font-variant-numeric:normal;font-variant-east-asian:normal;letter-spacing:-4.7625px;fill:#ffffff;stroke-width:0.264583"
       x="13.151562"
       y="46.995312"
       id="text3461"><tspan
         sodipodi:role="line"
         id="tspan3459"
         style="font-style:normal;font-variant:normal;font-weight:bold;font-stretch:normal;font-size:48px;font-family:'Century Schoolbook';-inkscape-font-specification:'Century Schoolbook, Bold';font-variant-ligatures:normal;font-variant-caps:normal;font-variant-numeric:normal;font-variant-east-asian:normal;fill:#ffffff;stroke-width:0.264583"
         x="13.151562"
         y="46.995312"
         dx="0 0 0 0">We’re</tspan><tspan
         sodipodi:role="line"
         style="font-style:normal;font-variant:normal;font-weight:bold;font-stretch:normal;font-size:48px;font-family:'Century Schoolbook';-inkscape-font-specification:'Century Schoolbook, Bold';font-variant-ligatures:normal;font-variant-caps:normal;font-variant-numeric:normal;font-variant-east-asian:normal;fill:#ffffff;stroke-width:0.264583"
         x="13.151562"
         y="85.395309"
         id="tspan3463">Getting</tspan><tspan
         sodipodi:role="line"
         style="font-style:normal;font-variant:normal;font-weight:bold;font-stretch:normal;font-size:48px;font-family:'Century Schoolbook';-inkscape-font-specification:'Century Schoolbook, Bold';font-variant-ligatures:normal;font-variant-caps:normal;font-variant-numeric:normal;font-variant-east-asian:normal;fill:#ffffff;stroke-width:0.264583"
         x="13.151562"
         y="123.79531"
         id="tspan3465">There.</tspan></text>
  </g>
</svg>
