<?xml version="1.0" encoding="UTF-8" standalone="no"?>
<!-- Created with Inkscape (http://www.inkscape.org/) -->

<svg
   width="7.25in"
   height="10.5in"
   viewBox="0 0 184.15 266.7"
   version="1.1"
   id="svg5"
   inkscape:version="1.1 (c68e22c387, 2021-05-23)"
   sodipodi:docname="weregettingthere.svg"
   inkscape:export-xdpi="240"
   inkscape:export-ydpi="240"
   xmlns:inkscape="http://www.inkscape.org/namespaces/inkscape"
   xmlns:sodipodi="http://sodipodi.sourceforge.net/DTD/sodipodi-0.dtd"
   xmlns="http://www.w3.org/2000/svg"
   xmlns:svg="http://www.w3.org/2000/svg">
  <sodipodi:namedview
     id="namedview7"
     pagecolor="#000000"
     bordercolor="#666666"
     borderopacity="1.0"
     inkscape:pageshadow="2"
     inkscape:pageopacity="1"
     inkscape:pagecheckerboard="0"
     inkscape:document-units="mm"
     showgrid="false"
     borderlayer="true"
     inkscape:showpageshadow="false"
     units="in"
     inkscape:snap-page="true"
     inkscape:snap-bbox="false"
     inkscape:bbox-paths="true"
     inkscape:bbox-nodes="true"
     inkscape:snap-nodes="true"
     inkscape:zoom="0.56750931"
     inkscape:cx="274.00432"
     inkscape:cy="573.55887"
     inkscape:window-width="1920"
     inkscape:window-height="1017"
     inkscape:window-x="1912"
     inkscape:window-y="-8"
     inkscape:window-maximized="1"
     inkscape:current-layer="layer1"
     inkscape:snap-bbox-edge-midpoints="true"
     inkscape:snap-bbox-midpoints="true"
     showguides="true"
     inkscape:guide-bbox="true"
     inkscape:object-paths="true"
     inkscape:snap-intersection-paths="true"
     inkscape:snap-smooth-nodes="true"
     inkscape:snap-midpoints="true"
     guidecolor="#69fff3"
     guideopacity="0.49803922" />
  <defs
     id="defs2" />
  <g
     inkscape:label="Layer 1"
     inkscape:groupmode="layer"
     id="layer1">
    <rect
       style="fill:#000000;fill-opacity:1;stroke-width:0.529167"
       id="rect915"
       width="184.14999"
       height="266.69998"
       x="0"
       y="0" />
    <g
       id="g4640"
       transform="matrix(0.11749466,0,0,0.11749466,70.04795,199.97682)"
       style="stroke-width:2.25187">
      <rect
         x="54.099998"
         y="14.666"
         fill="#ffffff"
         width="391.79999"
         height="340.38901"
         id="rect4630"
         style="stroke-width:3.38063" />
      <path
         id="path4632"
         fill="#f14728"
         d="M 441.775,14.666 H 340.441 L 180.888,127.332 H 329.553 L 445.332,242.665 333.556,355.107 h 108.22 c 25.555,0 44.221,-25.332 44.221,-43.331 V 58.221 C 485.996,39.998 467.33,14.666 441.775,14.666 Z"
         style="stroke-width:3.38063" />
      <path
         id="path4634"
         fill="#1f4fa3"
         d="M 58.666,355.107 H 159.777 L 319.331,242.888 H 170.887 L 54.666,127.332 167.11,14.666 H 58.666 c -25.778,0 -44,25.332 -44,43.776 v 253.555 c 0,17.778 18.222,43.11 44,43.11 z"
         style="stroke-width:3.38063" />
      <path
         id="path4636"
         fill="#f14728"
         d="M 206.443,137.998 H 192.22 l 87.111,87.107 c 4.001,3.338 7.11,7.336 13.999,6.893 h 14.89 l -87.555,-86.889 c -4,-4.445 -6.889,-7.111 -14.222,-7.111 z"
         style="stroke-width:3.38063" />
      <path
         id="path4638"
         style="fill:none;stroke:#ffffff;stroke-width:2.83465;stroke-miterlimit:4;stroke-dasharray:none"
         d="m 571.61133,913.51172 h 48.05859 c 11.34832,0 19.63672,-11.2493 19.63672,-19.24219 V 781.67188 c -4.4e-4,-8.09237 -8.2884,-19.3418 -19.63672,-19.3418 h -45 -76.97265 -48.15625 c -11.44735,0 -19.53907,11.24894 -19.53907,19.43945 v 112.59766 c 0,7.89475 8.09172,19.14453 19.53907,19.14453 h 44.90039 z"
         transform="matrix(2.2518754,0,0,2.2518754,-953.64291,-1702.0077)"
         sodipodi:nodetypes="csscsccsssscc" />
    </g>
    <g
       id="g4628"
       transform="matrix(0.11749466,0,0,0.11749466,71.04795,199.97682)"
       style="stroke-width:2.25187">
      <rect
         x="54.099998"
         y="14.666"
         fill="#ffffff"
         width="391.79999"
         height="340.38901"
         id="rect4618"
         style="stroke-width:3.38063" />
      <path
         id="path4620"
         fill="#f14728"
         d="M 441.775,14.666 H 340.441 L 180.888,127.332 H 329.553 L 445.332,242.665 333.556,355.107 h 108.22 c 25.555,0 44.221,-25.332 44.221,-43.331 V 58.221 C 485.996,39.998 467.33,14.666 441.775,14.666 Z"
         style="stroke-width:3.38063" />
      <path
         id="path4622"
         fill="#1f4fa3"
         d="M 58.666,355.107 H 159.777 L 319.331,242.888 H 170.887 L 54.666,127.332 167.11,14.666 H 58.666 c -25.778,0 -44,25.332 -44,43.776 v 253.555 c 0,17.778 18.222,43.11 44,43.11 z"
         style="stroke-width:3.38063" />
      <path
         id="path4624"
         fill="#f14728"
         d="M 206.443,137.998 H 192.22 l 87.111,87.107 c 4.001,3.338 7.11,7.336 13.999,6.893 h 14.89 l -87.555,-86.889 c -4,-4.445 -6.889,-7.111 -14.222,-7.111 z"
         style="stroke-width:3.38063" />
      <path
         id="path4626"
         style="fill:none;stroke:#ffffff;stroke-width:2.83465;stroke-miterlimit:4;stroke-dasharray:none"
         d="m 571.61133,913.51172 h 48.05859 c 11.34832,0 19.63672,-11.2493 19.63672,-19.24219 V 781.67188 c -4.4e-4,-8.09237 -8.2884,-19.3418 -19.63672,-19.3418 h -45 -76.97265 -48.15625 c -11.44735,0 -19.53907,11.24894 -19.53907,19.43945 v 112.59766 c 0,7.89475 8.09172,19.14453 19.53907,19.14453 h 44.90039 z"
         transform="matrix(2.2518754,0,0,2.2518754,-953.64291,-1702.0077)"
         sodipodi:nodetypes="csscsccsssscc" />
    </g>
    <g
       id="g4616"
       transform="matrix(0.11749466,0,0,0.11749466,72.04795,199.97682)"
       style="stroke-width:2.25187">
      <rect
         x="54.099998"
         y="14.666"
         fill="#ffffff"
         width="391.79999"
         height="340.38901"
         id="rect4606"
         style="stroke-width:3.38063" />
      <path
         id="path4608"
         fill="#f14728"
         d="M 441.775,14.666 H 340.441 L 180.888,127.332 H 329.553 L 445.332,242.665 333.556,355.107 h 108.22 c 25.555,0 44.221,-25.332 44.221,-43.331 V 58.221 C 485.996,39.998 467.33,14.666 441.775,14.666 Z"
         style="stroke-width:3.38063" />
      <path
         id="path4610"
         fill="#1f4fa3"
         d="M 58.666,355.107 H 159.777 L 319.331,242.888 H 170.887 L 54.666,127.332 167.11,14.666 H 58.666 c -25.778,0 -44,25.332 -44,43.776 v 253.555 c 0,17.778 18.222,43.11 44,43.11 z"
         style="stroke-width:3.38063" />
      <path
         id="path4612"
         fill="#f14728"
         d="M 206.443,137.998 H 192.22 l 87.111,87.107 c 4.001,3.338 7.11,7.336 13.999,6.893 h 14.89 l -87.555,-86.889 c -4,-4.445 -6.889,-7.111 -14.222,-7.111 z"
         style="stroke-width:3.38063" />
      <path
         id="path4614"
         style="fill:none;stroke:#ffffff;stroke-width:2.83465;stroke-miterlimit:4;stroke-dasharray:none"
         d="m 571.61133,913.51172 h 48.05859 c 11.34832,0 19.63672,-11.2493 19.63672,-19.24219 V 781.67188 c -4.4e-4,-8.09237 -8.2884,-19.3418 -19.63672,-19.3418 h -45 -76.97265 -48.15625 c -11.44735,0 -19.53907,11.24894 -19.53907,19.43945 v 112.59766 c 0,7.89475 8.09172,19.14453 19.53907,19.14453 h 44.90039 z"
         transform="matrix(2.2518754,0,0,2.2518754,-953.64291,-1702.0077)"
         sodipodi:nodetypes="csscsccsssscc" />
    </g>
    <g
       id="g4452"
       transform="matrix(0.11749466,0,0,0.11749466,73.04795,199.97682)"
       style="stroke-width:2.25187">
      <rect
         x="54.099998"
         y="14.666"
         fill="#ffffff"
         width="391.79999"
         height="340.38901"
         id="rect4442"
         style="stroke-width:3.38063" />
      <path
         id="path4444"
         fill="#f14728"
         d="M 441.775,14.666 H 340.441 L 180.888,127.332 H 329.553 L 445.332,242.665 333.556,355.107 h 108.22 c 25.555,0 44.221,-25.332 44.221,-43.331 V 58.221 C 485.996,39.998 467.33,14.666 441.775,14.666 Z"
         style="stroke-width:3.38063" />
      <path
         id="path4446"
         fill="#1f4fa3"
         d="M 58.666,355.107 H 159.777 L 319.331,242.888 H 170.887 L 54.666,127.332 167.11,14.666 H 58.666 c -25.778,0 -44,25.332 -44,43.776 v 253.555 c 0,17.778 18.222,43.11 44,43.11 z"
         style="stroke-width:3.38063" />
      <path
         id="path4448"
         fill="#f14728"
         d="M 206.443,137.998 H 192.22 l 87.111,87.107 c 4.001,3.338 7.11,7.336 13.999,6.893 h 14.89 l -87.555,-86.889 c -4,-4.445 -6.889,-7.111 -14.222,-7.111 z"
         style="stroke-width:3.38063" />
      <path
         id="path4450"
         style="fill:none;stroke:#ffffff;stroke-width:2.83465;stroke-miterlimit:4;stroke-dasharray:none"
         d="m 571.61133,913.51172 h 48.05859 c 11.34832,0 19.63672,-11.2493 19.63672,-19.24219 V 781.67188 c -4.4e-4,-8.09237 -8.2884,-19.3418 -19.63672,-19.3418 h -45 -76.97265 -48.15625 c -11.44735,0 -19.53907,11.24894 -19.53907,19.43945 v 112.59766 c 0,7.89475 8.09172,19.14453 19.53907,19.14453 h 44.90039 z"
         transform="matrix(2.2518754,0,0,2.2518754,-953.64291,-1702.0077)"
         sodipodi:nodetypes="csscsccsssscc" />
    </g>
    <g
       id="g4440"
       transform="matrix(0.11749466,0,0,0.11749466,75.04795,199.97682)"
       style="stroke-width:2.25187">
      <rect
         x="54.099998"
         y="14.666"
         fill="#ffffff"
         width="391.79999"
         height="340.38901"
         id="rect4430"
         style="stroke-width:3.38063" />
      <path
         id="path4432"
         fill="#f14728"
         d="M 441.775,14.666 H 340.441 L 180.888,127.332 H 329.553 L 445.332,242.665 333.556,355.107 h 108.22 c 25.555,0 44.221,-25.332 44.221,-43.331 V 58.221 C 485.996,39.998 467.33,14.666 441.775,14.666 Z"
         style="stroke-width:3.38063" />
      <path
         id="path4434"
         fill="#1f4fa3"
         d="M 58.666,355.107 H 159.777 L 319.331,242.888 H 170.887 L 54.666,127.332 167.11,14.666 H 58.666 c -25.778,0 -44,25.332 -44,43.776 v 253.555 c 0,17.778 18.222,43.11 44,43.11 z"
         style="stroke-width:3.38063" />
      <path
         id="path4436"
         fill="#f14728"
         d="M 206.443,137.998 H 192.22 l 87.111,87.107 c 4.001,3.338 7.11,7.336 13.999,6.893 h 14.89 l -87.555,-86.889 c -4,-4.445 -6.889,-7.111 -14.222,-7.111 z"
         style="stroke-width:3.38063" />
      <path
         id="path4438"
         style="fill:none;stroke:#ffffff;stroke-width:2.83465;stroke-miterlimit:4;stroke-dasharray:none"
         d="m 571.61133,913.51172 h 48.05859 c 11.34832,0 19.63672,-11.2493 19.63672,-19.24219 V 781.67188 c -4.4e-4,-8.09237 -8.2884,-19.3418 -19.63672,-19.3418 h -45 -76.97265 -48.15625 c -11.44735,0 -19.53907,11.24894 -19.53907,19.43945 v 112.59766 c 0,7.89475 8.09172,19.14453 19.53907,19.14453 h 44.90039 z"
         transform="matrix(2.2518754,0,0,2.2518754,-953.64291,-1702.0077)"
         sodipodi:nodetypes="csscsccsssscc" />
    </g>
    <g
       id="g4428"
       transform="matrix(0.11749466,0,0,0.11749466,78.04795,199.97682)"
       style="stroke-width:2.25187">
      <rect
         x="54.099998"
         y="14.666"
         fill="#ffffff"
         width="391.79999"
         height="340.38901"
         id="rect4418"
         style="stroke-width:3.38063" />
      <path
         id="path4420"
         fill="#f14728"
         d="M 441.775,14.666 H 340.441 L 180.888,127.332 H 329.553 L 445.332,242.665 333.556,355.107 h 108.22 c 25.555,0 44.221,-25.332 44.221,-43.331 V 58.221 C 485.996,39.998 467.33,14.666 441.775,14.666 Z"
         style="stroke-width:3.38063" />
      <path
         id="path4422"
         fill="#1f4fa3"
         d="M 58.666,355.107 H 159.777 L 319.331,242.888 H 170.887 L 54.666,127.332 167.11,14.666 H 58.666 c -25.778,0 -44,25.332 -44,43.776 v 253.555 c 0,17.778 18.222,43.11 44,43.11 z"
         style="stroke-width:3.38063" />
      <path
         id="path4424"
         fill="#f14728"
         d="M 206.443,137.998 H 192.22 l 87.111,87.107 c 4.001,3.338 7.11,7.336 13.999,6.893 h 14.89 l -87.555,-86.889 c -4,-4.445 -6.889,-7.111 -14.222,-7.111 z"
         style="stroke-width:3.38063" />
      <path
         id="path4426"
         style="fill:none;stroke:#ffffff;stroke-width:2.83465;stroke-miterlimit:4;stroke-dasharray:none"
         d="m 571.61133,913.51172 h 48.05859 c 11.34832,0 19.63672,-11.2493 19.63672,-19.24219 V 781.67188 c -4.4e-4,-8.09237 -8.2884,-19.3418 -19.63672,-19.3418 h -45 -76.97265 -48.15625 c -11.44735,0 -19.53907,11.24894 -19.53907,19.43945 v 112.59766 c 0,7.89475 8.09172,19.14453 19.53907,19.14453 h 44.90039 z"
         transform="matrix(2.2518754,0,0,2.2518754,-953.64291,-1702.0077)"
         sodipodi:nodetypes="csscsccsssscc" />
    </g>
    <g
       id="g4416"
       transform="matrix(0.11749466,0,0,0.11749466,82.04795,199.97682)"
       style="stroke-width:2.25187">
      <rect
         x="54.099998"
         y="14.666"
         fill="#ffffff"
         width="391.79999"
         height="340.38901"
         id="rect4406"
         style="stroke-width:3.38063" />
      <path
         id="path4408"
         fill="#f14728"
         d="M 441.775,14.666 H 340.441 L 180.888,127.332 H 329.553 L 445.332,242.665 333.556,355.107 h 108.22 c 25.555,0 44.221,-25.332 44.221,-43.331 V 58.221 C 485.996,39.998 467.33,14.666 441.775,14.666 Z"
         style="stroke-width:3.38063" />
      <path
         id="path4410"
         fill="#1f4fa3"
         d="M 58.666,355.107 H 159.777 L 319.331,242.888 H 170.887 L 54.666,127.332 167.11,14.666 H 58.666 c -25.778,0 -44,25.332 -44,43.776 v 253.555 c 0,17.778 18.222,43.11 44,43.11 z"
         style="stroke-width:3.38063" />
      <path
         id="path4412"
         fill="#f14728"
         d="M 206.443,137.998 H 192.22 l 87.111,87.107 c 4.001,3.338 7.11,7.336 13.999,6.893 h 14.89 l -87.555,-86.889 c -4,-4.445 -6.889,-7.111 -14.222,-7.111 z"
         style="stroke-width:3.38063" />
      <path
         id="path4414"
         style="fill:none;stroke:#ffffff;stroke-width:2.83465;stroke-miterlimit:4;stroke-dasharray:none"
         d="m 571.61133,913.51172 h 48.05859 c 11.34832,0 19.63672,-11.2493 19.63672,-19.24219 V 781.67188 c -4.4e-4,-8.09237 -8.2884,-19.3418 -19.63672,-19.3418 h -45 -76.97265 -48.15625 c -11.44735,0 -19.53907,11.24894 -19.53907,19.43945 v 112.59766 c 0,7.89475 8.09172,19.14453 19.53907,19.14453 h 44.90039 z"
         transform="matrix(2.2518754,0,0,2.2518754,-953.64291,-1702.0077)"
         sodipodi:nodetypes="csscsccsssscc" />
    </g>
    <g
       id="g4404"
       transform="matrix(0.11749466,0,0,0.11749466,87.04795,199.97682)"
       style="stroke-width:2.25187">
      <rect
         x="54.099998"
         y="14.666"
         fill="#ffffff"
         width="391.79999"
         height="340.38901"
         id="rect4394"
         style="stroke-width:3.38063" />
      <path
         id="path4396"
         fill="#f14728"
         d="M 441.775,14.666 H 340.441 L 180.888,127.332 H 329.553 L 445.332,242.665 333.556,355.107 h 108.22 c 25.555,0 44.221,-25.332 44.221,-43.331 V 58.221 C 485.996,39.998 467.33,14.666 441.775,14.666 Z"
         style="stroke-width:3.38063" />
      <path
         id="path4398"
         fill="#1f4fa3"
         d="M 58.666,355.107 H 159.777 L 319.331,242.888 H 170.887 L 54.666,127.332 167.11,14.666 H 58.666 c -25.778,0 -44,25.332 -44,43.776 v 253.555 c 0,17.778 18.222,43.11 44,43.11 z"
         style="stroke-width:3.38063" />
      <path
         id="path4400"
         fill="#f14728"
         d="M 206.443,137.998 H 192.22 l 87.111,87.107 c 4.001,3.338 7.11,7.336 13.999,6.893 h 14.89 l -87.555,-86.889 c -4,-4.445 -6.889,-7.111 -14.222,-7.111 z"
         style="stroke-width:3.38063" />
      <path
         id="path4402"
         style="fill:none;stroke:#ffffff;stroke-width:2.83465;stroke-miterlimit:4;stroke-dasharray:none"
         d="m 571.61133,913.51172 h 48.05859 c 11.34832,0 19.63672,-11.2493 19.63672,-19.24219 V 781.67188 c -4.4e-4,-8.09237 -8.2884,-19.3418 -19.63672,-19.3418 h -45 -76.97265 -48.15625 c -11.44735,0 -19.53907,11.24894 -19.53907,19.43945 v 112.59766 c 0,7.89475 8.09172,19.14453 19.53907,19.14453 h 44.90039 z"
         transform="matrix(2.2518754,0,0,2.2518754,-953.64291,-1702.0077)"
         sodipodi:nodetypes="csscsccsssscc" />
    </g>
    <g
       id="g4386"
       transform="matrix(0.11749466,0,0,0.11749466,97.04795,199.97682)"
       style="stroke-width:2.25187">
      <rect
         x="54.099998"
         y="14.666"
         fill="#ffffff"
         width="391.79999"
         height="340.38901"
         id="rect4376"
         style="stroke-width:3.38063" />
      <path
         id="path4378"
         fill="#f14728"
         d="M 441.775,14.666 H 340.441 L 180.888,127.332 H 329.553 L 445.332,242.665 333.556,355.107 h 108.22 c 25.555,0 44.221,-25.332 44.221,-43.331 V 58.221 C 485.996,39.998 467.33,14.666 441.775,14.666 Z"
         style="stroke-width:3.38063" />
      <path
         id="path4380"
         fill="#1f4fa3"
         d="M 58.666,355.107 H 159.777 L 319.331,242.888 H 170.887 L 54.666,127.332 167.11,14.666 H 58.666 c -25.778,0 -44,25.332 -44,43.776 v 253.555 c 0,17.778 18.222,43.11 44,43.11 z"
         style="stroke-width:3.38063" />
      <path
         id="path4382"
         fill="#f14728"
         d="M 206.443,137.998 H 192.22 l 87.111,87.107 c 4.001,3.338 7.11,7.336 13.999,6.893 h 14.89 l -87.555,-86.889 c -4,-4.445 -6.889,-7.111 -14.222,-7.111 z"
         style="stroke-width:3.38063" />
      <path
         id="path4384"
         style="fill:none;stroke:#ffffff;stroke-width:2.83465;stroke-miterlimit:4;stroke-dasharray:none"
         d="m 571.61133,913.51172 h 48.05859 c 11.34832,0 19.63672,-11.2493 19.63672,-19.24219 V 781.67188 c -4.4e-4,-8.09237 -8.2884,-19.3418 -19.63672,-19.3418 h -45 -76.97265 -48.15625 c -11.44735,0 -19.53907,11.24894 -19.53907,19.43945 v 112.59766 c 0,7.89475 8.09172,19.14453 19.53907,19.14453 h 44.90039 z"
         transform="matrix(2.2518754,0,0,2.2518754,-953.64291,-1702.0077)"
         sodipodi:nodetypes="csscsccsssscc" />
    </g>
    <g
       id="g829"
       transform="matrix(0.11749466,0,0,0.11749466,112.04795,199.97682)"
       style="stroke-width:2.25187">
      <rect
         x="54.099998"
         y="14.666"
         fill="#ffffff"
         width="391.79999"
         height="340.38901"
         id="rect824"
         style="stroke-width:3.38063" />
      <path
         id="path2578"
         fill="#f14728"
         d="M 441.775,14.666 H 340.441 L 180.888,127.332 H 329.553 L 445.332,242.665 333.556,355.107 h 108.22 c 25.555,0 44.221,-25.332 44.221,-43.331 V 58.221 C 485.996,39.998 467.33,14.666 441.775,14.666 Z"
         style="stroke-width:3.38063" />
      <path
         id="path2580"
         fill="#1f4fa3"
         d="M 58.666,355.107 H 159.777 L 319.331,242.888 H 170.887 L 54.666,127.332 167.11,14.666 H 58.666 c -25.778,0 -44,25.332 -44,43.776 v 253.555 c 0,17.778 18.222,43.11 44,43.11 z"
         style="stroke-width:3.38063" />
      <path
         id="path2582"
         fill="#f14728"
         d="M 206.443,137.998 H 192.22 l 87.111,87.107 c 4.001,3.338 7.11,7.336 13.999,6.893 h 14.89 l -87.555,-86.889 c -4,-4.445 -6.889,-7.111 -14.222,-7.111 z"
         style="stroke-width:3.38063" />
      <path
         id="path4384-8"
         style="fill:none;stroke:#ffffff;stroke-width:6.38328;stroke-miterlimit:4;stroke-dasharray:none"
         d="m 333.55268,355.10678 h 108.22196 c 25.555,0 44.21945,-25.33202 44.21945,-43.33101 V 58.219887 C 485.99309,39.996878 467.32964,14.664563 441.77464,14.664563 H 340.44024 167.10743 58.66555 c -25.778,0 -43.99955,25.331212 -43.99955,43.77522 V 311.99568 c 0,17.778 18.22155,43.1111 43.99955,43.1111 h 101.11009 z"
         sodipodi:nodetypes="csscsccsssscc" />
      <path
         style="fill:#ff0000;fill-opacity:1;stroke:none;stroke-width:0;stroke-linecap:butt;stroke-linejoin:miter;stroke-miterlimit:4;stroke-dasharray:none;stroke-opacity:1;paint-order:normal"
         d="m 14.666,62.758418 -575.44466,-6.8e-5 182.79534,6.383354 392.64932,-4e-6"
         id="path3702"
         sodipodi:nodetypes="cccc" />
      <path
         d="m 15.31956,52.124515 -269.66274,-0.06713 -306.43548,10.700963 H 14.666007"
         style="fill:#ffffff;stroke:none;stroke-width:6.38328;stroke-linecap:butt;stroke-linejoin:miter;stroke-miterlimit:4;stroke-dasharray:none;paint-order:normal"
         id="path5540"
         sodipodi:nodetypes="cccc" />
      <path
         d="M 71.666124,127.332 H -380.35445 l -305.43474,10.666 H 71.666124"
         style="fill:#ffffff;stroke:none;stroke-width:6.38328;stroke-linecap:butt;stroke-linejoin:miter;stroke-miterlimit:4;stroke-dasharray:none;paint-order:normal"
         id="path6049"
         sodipodi:nodetypes="cccc" />
      <path
         style="fill:#ff0000;fill-opacity:1;stroke:none;stroke-width:0;stroke-linecap:butt;stroke-linejoin:miter;stroke-miterlimit:4;stroke-dasharray:none;stroke-opacity:1;paint-order:normal"
         d="m 54.665974,135.44447 -740.455174,2.55353 107.84465,3.76602 H 54.665974"
         id="path6047"
         sodipodi:nodetypes="cccc" />
      <path
         style="fill:#ff0000;fill-opacity:1;stroke:none;stroke-width:0;stroke-linecap:butt;stroke-linejoin:miter;stroke-miterlimit:4;stroke-dasharray:none;stroke-opacity:1;paint-order:normal"
         d="m 320.17634,242.88793 h -963.66981 l 183.53861,6.38333 771.0544,-5e-5"
         id="path6684"
         sodipodi:nodetypes="cccc" />
      <path
         d="m 171.08907,232.22193 h -508.40433 l -305.43421,10.666 h 813.83854"
         style="fill:#ffffff;stroke:none;stroke-width:6.38328;stroke-linecap:butt;stroke-linejoin:miter;stroke-miterlimit:4;stroke-dasharray:none;paint-order:normal"
         id="path6686"
         sodipodi:nodetypes="cccc" />
      <path
         style="fill:#ff0000;fill-opacity:1;stroke:none;stroke-width:0;stroke-linecap:butt;stroke-linejoin:miter;stroke-miterlimit:4;stroke-dasharray:none;stroke-opacity:1;paint-order:normal"
         d="m 11.474394,345.48009 -612.127004,-7e-5 182.79534,6.38335 H 11.474394"
         id="path8513"
         sodipodi:nodetypes="cccc" />
      <path
         d="m 22.70424,334.81402 h -317.92169 l -305.43516,10.666 612.127004,7e-5 v 9.57492 h 24.665333 v -6.94743"
         style="fill:#ffffff;stroke:none;stroke-width:6.38328;stroke-linecap:butt;stroke-linejoin:miter;stroke-miterlimit:4;stroke-dasharray:none;paint-order:normal"
         id="path8515"
         sodipodi:nodetypes="ccccccc" />
    </g>
    <g
       aria-label="We’re
Getting
There."
       id="text3461"
       style="font-weight:bold;font-size:48px;line-height:0.8;font-family:'Century Schoolbook';-inkscape-font-specification:'Century Schoolbook, Bold';letter-spacing:-4.7625px;fill:#ffffff;stroke-width:0.264583">
      <path
         d="m 11.440624,12.331249 h 13.945313 v 2.179688 h -1.3125 q -1.242188,0 -1.6875,0.304687 -0.421875,0.28125 -0.421875,0.867188 0,0.421875 0.164062,0.960937 l 6.890625,20.460938 6,-17.859375 -1.03125,-2.976563 q -0.328125,-0.9375 -0.914062,-1.289062 -0.773438,-0.46875 -2.039063,-0.46875 h -1.6875 v -2.179688 h 16.054688 v 2.179688 h -1.476563 q -1.617187,0 -2.203125,0.375 -0.5625,0.375 -0.5625,1.101562 0,0.304688 0.117188,0.65625 l 6.84375,20.460938 5.742187,-18.023438 q 0.28125,-0.820312 0.28125,-1.59375 0,-1.429687 -0.773437,-2.203125 -0.75,-0.773437 -1.992188,-0.773437 h -0.984375 v -2.179688 h 11.296875 v 2.179688 q -1.875,0.04687 -3,0.890625 -1.101562,0.820312 -1.617187,2.460937 L 47.464062,47.628124 H 44.581249 L 36.424999,23.299999 28.245312,47.628124 H 25.385937 L 14.792187,16.268749 q -0.328125,-0.984375 -0.867188,-1.359375 -0.539062,-0.398437 -1.382812,-0.398437 h -1.101563 z"
         id="path894" />
      <path
         d="M 80.482811,36.167187 H 65.084373 q 0.07031,4.617187 1.851563,6.820312 1.804687,2.179688 4.617187,2.179688 2.015625,0 3.820313,-1.125 1.804687,-1.125 3.703125,-4.078125 l 1.710937,1.054687 q -1.992187,3.515625 -4.570312,5.039063 -2.554688,1.5 -6.257813,1.5 -5.390625,0 -8.71875,-3.28125 -3.328125,-3.28125 -3.328125,-8.414063 0,-5.132812 3.351563,-8.578125 3.351562,-3.445312 8.226562,-3.445312 3.375,0 5.789063,1.382812 2.4375,1.382813 3.773437,4.054688 1.359375,2.648437 1.429688,6.890625 z M 65.084373,34.057812 h 7.335938 q 1.03125,0 1.476562,-0.515625 0.445313,-0.515625 0.445313,-1.875 0,-2.71875 -1.242188,-4.195313 -1.242187,-1.5 -3.164062,-1.5 -2.273438,0 -3.492188,2.015625 -1.195312,2.015625 -1.359375,6.070313 z"
         id="path896" />
      <path
         d="m 80.384373,27.354687 -0.773438,-1.429688 q 2.625,-1.3125 4.007813,-3.046875 1.382812,-1.734375 1.382812,-2.90625 0,-0.703125 -0.679687,-0.703125 l -0.65625,0.07031 q -0.492188,0.09375 -0.773438,0.09375 -1.570312,0 -2.765625,-1.171875 -1.171875,-1.195313 -1.171875,-2.8125 0,-1.640625 1.171875,-2.8125 1.195313,-1.195313 2.929688,-1.195313 2.132812,0 3.632812,1.6875 1.523438,1.6875 1.523438,4.265625 0,2.71875 -2.039063,5.484375 -2.039062,2.765625 -5.789062,4.476563 z"
         id="path898" />
      <path
         d="m 102.45781,44.815624 v 2.179688 H 87.129688 v -2.179688 h 1.898438 q 1.171875,0 1.710937,-0.445312 0.539063,-0.46875 0.539063,-1.242188 V 30.143749 q 0,-1.570312 -0.726563,-2.296875 -0.703125,-0.726562 -1.992187,-0.726562 h -1.242188 v -2.0625 l 9.375,-0.492188 v 7.148438 q 0.820313,-3.585938 2.859375,-5.507813 2.039067,-1.921875 4.593747,-1.921875 2.17969,0 3.44532,1.171875 1.26562,1.148438 1.26562,2.976563 0,1.570312 -0.89062,2.554687 -0.86719,0.960938 -2.13282,0.960938 -1.125,0 -1.94531,-0.84375 -0.79687,-0.84375 -0.79687,-2.15625 0,-0.726563 0.39843,-1.523438 0.21094,-0.445312 0.21094,-0.632812 0,-0.328125 -0.16406,-0.46875 -0.14063,-0.164063 -0.46875,-0.164063 -0.84375,0 -1.85156,0.984375 -1.546879,1.523438 -2.601567,4.757813 -1.054687,3.210937 -1.054687,6.492187 v 4.734375 q 0,0.820313 0.445312,1.265625 0.445313,0.421875 1.242188,0.421875 z"
         id="path900" />
      <path
         d="m 130.25,36.167187 h -15.39844 q 0.0703,4.617187 1.85156,6.820312 1.80469,2.179688 4.61719,2.179688 2.01562,0 3.82031,-1.125 1.80469,-1.125 3.70313,-4.078125 l 1.71093,1.054687 q -1.99218,3.515625 -4.57031,5.039063 -2.55469,1.5 -6.25781,1.5 -5.39063,0 -8.71875,-3.28125 -3.32813,-3.28125 -3.32813,-8.414063 0,-5.132812 3.35157,-8.578125 3.35156,-3.445312 8.22656,-3.445312 3.375,0 5.78906,1.382812 2.4375,1.382813 3.77344,4.054688 1.35937,2.648437 1.42969,6.890625 z m -15.39844,-2.109375 h 7.33594 q 1.03125,0 1.47656,-0.515625 0.44531,-0.515625 0.44531,-1.875 0,-2.71875 -1.24219,-4.195313 -1.24218,-1.5 -3.16406,-1.5 -2.27344,0 -3.49219,2.015625 -1.19531,2.015625 -1.35937,6.070313 z"
         id="path902" />
      <path
         d="m 43.878124,49.840625 h 1.664063 l 0.84375,13.851562 h -2.085938 q -1.664062,-6.210937 -4.523437,-8.953125 -2.835938,-2.765625 -6.328125,-2.765625 -2.671875,0 -4.875,1.59375 -2.179688,1.59375 -3.421875,4.992188 -1.242188,3.375 -1.242188,9.234375 0,6.585937 1.03125,9.796875 1.03125,3.210937 3.140625,4.78125 2.109375,1.546875 4.851563,1.546875 3.609375,0 5.648437,-2.039063 2.039063,-2.039062 2.039063,-5.414062 v -3.164063 q 0,-0.867187 -0.46875,-1.289062 -0.445313,-0.445313 -1.3125,-0.445313 h -3.632813 v -2.132812 h 16.78125 v 2.132812 h -2.109375 q -1.125,0 -1.640625,0.46875 -0.492187,0.445313 -0.492187,1.265625 V 86.075 h -1.828125 l -2.929688,-5.835938 q -1.96875,3.046875 -4.59375,4.453125 -2.601562,1.40625 -6.140625,1.40625 -4.710937,0 -8.578125,-2.25 -3.867187,-2.25 -5.976562,-6.164062 -2.109375,-3.914063 -2.109375,-9.398438 0,-8.085937 4.96875,-13.265625 4.96875,-5.179687 12.164062,-5.179687 2.671875,0 4.757813,0.796875 2.085937,0.773437 4.429687,2.742187 z"
         id="path904" />
      <path
         d="M 73.381248,74.567187 H 57.982811 q 0.07031,4.617188 1.851562,6.820313 1.804688,2.179687 4.617188,2.179687 2.015625,0 3.820312,-1.125 1.804688,-1.125 3.703125,-4.078125 l 1.710938,1.054688 q -1.992188,3.515625 -4.570313,5.039062 -2.554687,1.5 -6.257812,1.5 -5.390625,0 -8.71875,-3.28125 -3.328125,-3.28125 -3.328125,-8.414062 0,-5.132813 3.351562,-8.578125 3.351563,-3.445313 8.226563,-3.445313 3.375,0 5.789062,1.382813 2.4375,1.382812 3.773438,4.054687 1.359375,2.648438 1.429687,6.890625 z M 57.982811,72.457812 h 7.335937 q 1.03125,0 1.476563,-0.515625 0.445312,-0.515625 0.445312,-1.875 0,-2.71875 -1.242187,-4.195312 -1.242188,-1.5 -3.164063,-1.5 -2.273437,0 -3.492187,2.015625 -1.195313,2.015625 -1.359375,6.070312 z"
         id="path906" />
      <path
         d="m 80.243748,54.434375 h 2.109375 v 9.023437 h 7.242187 v 2.53125 h -7.242187 v 13.945313 q 0,1.382812 0.703125,2.15625 0.703125,0.75 1.851562,0.75 3.28125,0 3.46875,-6.117188 h 2.109375 q -0.07031,3.257813 -1.03125,5.25 -0.960937,1.96875 -2.765625,3.046875 -1.78125,1.078125 -4.03125,1.078125 -1.96875,0 -3.421875,-0.796875 -1.429687,-0.796875 -2.296875,-2.367187 -0.84375,-1.59375 -0.84375,-3.445313 v -13.5 h -3.890625 v -2.15625 q 3.5625,-0.46875 5.554688,-2.742187 1.992187,-2.273438 2.484375,-6.65625 z"
         id="path908" />
      <path
         d="m 95.918751,54.434375 h 2.109375 v 9.023437 h 7.242184 v 2.53125 h -7.242184 v 13.945313 q 0,1.382812 0.703125,2.15625 0.703125,0.75 1.851559,0.75 3.28125,0 3.46875,-6.117188 h 2.10938 q -0.0703,3.257813 -1.03125,5.25 -0.96094,1.96875 -2.76563,3.046875 -1.78125,1.078125 -4.031247,1.078125 -1.96875,0 -3.421875,-0.796875 -1.429687,-0.796875 -2.296875,-2.367187 -0.84375,-1.59375 -0.84375,-3.445313 v -13.5 h -3.890625 v -2.15625 q 3.5625,-0.46875 5.554688,-2.742187 1.992187,-2.273438 2.484375,-6.65625 z"
         id="path910" />
      <path
         d="m 111.21875,50.801562 q 1.57031,0 2.69531,1.125 1.125,1.101563 1.125,2.695313 0,1.59375 -1.125,2.71875 -1.125,1.101562 -2.69531,1.101562 -1.59375,0 -2.71875,-1.125 -1.125,-1.125 -1.125,-2.695312 0,-1.59375 1.125,-2.695313 1.125,-1.125 2.71875,-1.125 z m -6.02344,12.65625 9.75,-0.445312 v 18.632812 q 0,0.75 0.46875,1.171875 0.49219,0.398438 1.47656,0.398438 h 1.47656 v 2.179687 h -13.17187 v -2.179687 h 1.45312 q 1.17188,0 1.64063,-0.539063 0.49219,-0.539062 0.49219,-1.875 V 68.098437 q 0,-1.195312 -0.70313,-1.851562 -0.67969,-0.65625 -1.89844,-0.65625 h -0.98437 z"
         id="path912" />
      <path
         d="m 147.09687,83.215625 v 2.179687 h -13.19531 v -2.179687 h 1.38281 q 1.10157,0 1.64063,-0.5625 0.53906,-0.5625 0.53906,-1.640625 v -9.515625 q 0,-2.4375 -1.125,-3.726563 -1.10156,-1.3125 -2.90625,-1.3125 -2.46094,0 -4.00781,1.851563 -1.54688,1.828125 -1.54688,5.367187 V 81.0125 q 0,1.078125 0.53907,1.640625 0.5625,0.5625 1.42968,0.5625 h 1.66407 v 2.179687 h -13.6875 v -2.179687 h 1.78125 q 1.03125,0 1.54687,-0.5625 0.53906,-0.5625 0.53906,-1.640625 V 67.957812 q 0,-1.125 -0.77343,-1.78125 -0.75,-0.679687 -1.99219,-0.679687 h -0.9375 v -2.039063 l 9.14062,-0.492187 q 0.49219,2.015625 0.75,4.804687 1.92188,-2.601562 4.10157,-3.890625 2.17968,-1.289062 4.59375,-1.289062 3.28125,0 5.17968,2.179687 1.875,2.179688 1.875,6.070313 V 81.0125 q 0,1.171875 0.53907,1.6875 0.53906,0.515625 1.71093,0.515625 z"
         id="path914" />
      <path
         d="m 164.0375,63.457812 q 2.8125,-3.351562 5.57813,-3.351562 1.40625,0 2.25,0.820312 0.84375,0.820313 0.84375,2.109375 0,1.148438 -0.65625,1.851563 -0.63282,0.679687 -1.61719,0.679687 -1.38281,0 -1.99219,-1.476562 Q 168.06875,63.2 167.55313,63.2 q -0.65625,0 -1.78125,1.382812 2.53125,2.554688 2.53125,5.390625 0,2.203125 -1.19532,3.984375 -1.19531,1.78125 -3.63281,2.835938 -2.41406,1.054687 -6.04687,1.054687 l -2.50782,-0.04687 q -2.78906,0 -3.77343,0.5625 -1.00782,0.5625 -1.00782,1.453125 0,0.773438 0.63282,1.148438 0.82031,0.515625 2.625,0.515625 l 2.15625,-0.07031 q 3.49218,-0.1875 5.13281,-0.1875 5.46094,0 7.59375,1.546875 2.13281,1.546875 2.13281,4.289063 0,3.28125 -2.46094,5.273437 -3,2.4375 -10.47656,2.4375 -6.375,0 -8.95312,-1.476562 -2.57813,-1.476563 -2.57813,-3.46875 0,-1.242188 1.10156,-2.179688 1.10157,-0.9375 4.66407,-1.757812 -2.32032,-0.46875 -3.49219,-1.59375 -1.17188,-1.125 -1.17188,-2.90625 0,-1.617188 0.86719,-2.742188 0.89063,-1.125 3.16406,-1.992187 -2.15625,-1.171875 -3.25781,-2.789063 -1.07812,-1.617187 -1.07812,-3.679687 0,-2.226563 1.19531,-4.007813 1.19531,-1.804687 3.67969,-2.859375 2.48437,-1.078125 6.04687,-1.078125 1.6875,0 3.28125,0.304688 1.59375,0.304687 3.09375,0.914062 z m -6.51562,0.84375 q -1.61719,0 -2.78907,1.523438 -1.14843,1.5 -1.14843,4.335937 0,2.742188 1.14843,4.195313 1.14844,1.453125 2.8125,1.453125 1.64063,0 2.8125,-1.5 1.17188,-1.5 1.17188,-4.21875 0,-2.742188 -1.17188,-4.265625 -1.17187,-1.523438 -2.83593,-1.523438 z m 9.1875,24.914063 q 0,-1.382813 -1.54688,-2.015625 -1.05469,-0.445313 -4.6875,-0.445313 -6.5625,0 -8.46094,0.890625 -1.89843,0.890625 -1.89843,2.226563 0,1.265625 1.47656,2.109375 1.47656,0.867187 5.60156,0.867187 5.36719,0 7.73438,-1.242187 1.78125,-0.960938 1.78125,-2.390625 z"
         id="path916" />
      <path
         d="m 15.518749,89.13125 h 30.304688 l 0.773437,13.17188 h -2.132812 q -0.75,-4.218755 -1.945313,-6.585942 -1.195312,-2.367188 -2.742187,-3.351563 -1.523438,-1.007812 -3.351563,-1.007812 -1.054687,0 -1.546875,0.445312 -0.492187,0.421875 -0.492187,1.242188 v 26.812497 q 0,0.77344 0.46875,1.26563 0.492187,0.49219 1.171875,0.49219 h 3.9375 v 2.17968 H 21.424999 v -2.17968 h 3.75 q 0.84375,0 1.335938,-0.46875 0.492187,-0.49219 0.492187,-1.28907 V 93.185938 q 0,-0.9375 -0.515625,-1.382813 -0.492187,-0.445312 -1.570312,-0.445312 -5.976563,0 -8.085938,10.945317 h -2.0625 z"
         id="path918" />
      <path
         d="m 44.787498,89.13125 10.359375,-0.515625 v 17.062505 q 2.367188,-2.90625 4.359375,-3.96094 1.992188,-1.07813 4.359375,-1.07813 3.28125,0 5.015625,1.99219 1.96875,2.29688 1.96875,6.49219 v 10.40625 q 0,1.07812 0.492188,1.59375 0.492187,0.49219 1.429687,0.49219 h 1.523438 v 2.17968 H 61.053123 v -2.17968 h 1.429688 q 1.195312,0 1.617187,-0.44532 0.585938,-0.58593 0.585938,-1.64062 v -10.21875 q 0,-2.20313 -1.195313,-3.49219 -1.171875,-1.3125 -2.953125,-1.3125 -2.203125,0 -3.796875,1.85156 -1.59375,1.85157 -1.59375,5.03907 v 8.13281 q 0,1.05469 0.492188,1.57031 0.515625,0.51563 1.453125,0.51563 h 1.59375 v 2.17968 H 45.045311 v -2.17968 h 1.898437 q 1.007813,0 1.523438,-0.53907 0.515625,-0.53906 0.515625,-1.54687 V 93.725 q 0,-1.125 -0.726563,-1.757812 -0.703125,-0.65625 -1.898437,-0.65625 h -1.570313 z"
         id="path920" />
      <path
         d="M 96.181248,112.96719 H 80.78281 q 0.07031,4.61719 1.851563,6.82031 1.804687,2.17969 4.617187,2.17969 2.015625,0 3.820313,-1.125 1.804687,-1.125 3.703125,-4.07813 l 1.710937,1.05469 q -1.992187,3.51563 -4.570312,5.03906 -2.554688,1.5 -6.257813,1.5 -5.390625,0 -8.71875,-3.28125 -3.328125,-3.28125 -3.328125,-8.41406 0,-5.13281 3.351563,-8.57812 3.351562,-3.44532 8.226562,-3.44532 3.375,0 5.789063,1.38282 2.4375,1.38281 3.773437,4.05468 1.359375,2.64844 1.429688,6.89063 z M 80.78281,110.85781 h 7.335938 q 1.03125,0 1.476562,-0.51562 0.445313,-0.51563 0.445313,-1.875 0,-2.71875 -1.242188,-4.19531 -1.242187,-1.5 -3.164062,-1.5 -2.273438,0 -3.492188,2.01562 -1.195312,2.01563 -1.359375,6.07031 z"
         id="path922" />
      <path
         d="m 111.34063,121.61563 v 2.17968 H 96.012501 v -2.17968 h 1.898437 q 1.171875,0 1.710938,-0.44532 0.539064,-0.46875 0.539064,-1.24218 v -12.98438 q 0,-1.57031 -0.726564,-2.29687 -0.703125,-0.72657 -1.992188,-0.72657 h -1.242187 v -2.0625 l 9.374999,-0.49218 v 7.14843 q 0.82031,-3.58593 2.85938,-5.50781 2.03906,-1.92187 4.59375,-1.92187 2.17968,0 3.44531,1.17187 1.26562,1.14844 1.26562,2.97656 0,1.57032 -0.89062,2.55469 -0.86719,0.96094 -2.13281,0.96094 -1.125,0 -1.94532,-0.84375 -0.79687,-0.84375 -0.79687,-2.15625 0,-0.72656 0.39844,-1.52344 0.21093,-0.44531 0.21093,-0.63281 0,-0.32813 -0.16406,-0.46875 -0.14062,-0.16406 -0.46875,-0.16406 -0.84375,0 -1.85156,0.98437 -1.54688,1.52344 -2.60156,4.75781 -1.05469,3.21094 -1.05469,6.49219 v 4.73438 q 0,0.82031 0.44531,1.26562 0.44531,0.42188 1.24219,0.42188 z"
         id="path924" />
      <path
         d="m 139.13281,112.96719 h -15.39844 q 0.0703,4.61719 1.85156,6.82031 1.80469,2.17969 4.61719,2.17969 2.01563,0 3.82031,-1.125 1.80469,-1.125 3.70313,-4.07813 l 1.71094,1.05469 q -1.99219,3.51563 -4.57032,5.03906 -2.55468,1.5 -6.25781,1.5 -5.39062,0 -8.71875,-3.28125 -3.32812,-3.28125 -3.32812,-8.41406 0,-5.13281 3.35156,-8.57812 3.35156,-3.44532 8.22656,-3.44532 3.375,0 5.78906,1.38282 2.4375,1.38281 3.77344,4.05468 1.35938,2.64844 1.42969,6.89063 z m -15.39844,-2.10938 h 7.33594 q 1.03125,0 1.47656,-0.51562 0.44531,-0.51563 0.44531,-1.875 0,-2.71875 -1.24218,-4.19531 -1.24219,-1.5 -3.16407,-1.5 -2.27343,0 -3.49218,2.01562 -1.19532,2.01563 -1.35938,6.07031 z"
         id="path926" />
      <path
         d="m 143.58125,116.50625 q 1.64062,0 2.78906,1.17188 1.17188,1.17187 1.17188,2.8125 0,1.66406 -1.17188,2.83593 -1.14844,1.17188 -2.78906,1.17188 -1.61719,0 -2.78906,-1.17188 -1.14844,-1.17187 -1.14844,-2.83593 0,-1.64063 1.14844,-2.8125 1.17187,-1.17188 2.78906,-1.17188 z"
         id="path928" />
    </g>
  </g>
</svg>
