<?xml version="1.0" encoding="UTF-8" standalone="no"?>
<!-- Created with Inkscape (http://www.inkscape.org/) -->

<svg
   width="64.739998mm"
   height="20.695mm"
   viewBox="0 0 64.739998 20.695"
   version="1.1"
   id="svg1"
   xmlns:xlink="http://www.w3.org/1999/xlink"
   xmlns="http://www.w3.org/2000/svg"
   xmlns:svg="http://www.w3.org/2000/svg">
  <defs
     id="defs1" />
  <g
     id="layer1"
     style="display:inline"
     transform="translate(-7.7666172,-15.534137)">
    <path
       style="fill:none;stroke:#ff0000;stroke-width:7.96894;stroke-linejoin:round;stroke-miterlimit:10;stroke-dasharray:none"
       d="M 38.708479,68.066033 H 114.60319"
       id="path1"
       transform="matrix(0.52704595,0,0,0.52704595,-5.159529,-12.864789)" />
    <path
       style="fill:none;stroke:#55d400;stroke-width:4.74342;stroke-linejoin:round;stroke-miterlimit:10;stroke-dasharray:none"
       d="M 38.708479,68.066035 H 114.60319"
       id="path2"
       transform="matrix(0.52704595,0,0,0.52704595,-5.159529,-8.5149285)" />
    <path
       style="fill:none;stroke:#3ec5fe;stroke-width:2.84605;stroke-linejoin:round;stroke-miterlimit:10;stroke-dasharray:none;stroke-opacity:1"
       d="M 38.708479,81.024526 H 114.60319"
       id="path3"
       transform="matrix(0.52704595,0,0,0.52704595,-5.159529,-12.344448)" />
    <circle
       style="fill:#ff0000;fill-opacity:1;stroke:#ffffff;stroke-width:2.83465;stroke-linejoin:round;stroke-miterlimit:10;stroke-dasharray:none;stroke-opacity:1;paint-order:normal"
       id="path4"
       cx="80.787643"
       cy="44.57999"
       transform="matrix(0.26458333,0,0,0.26458333,-6.133446,11.214015)"
       r="7.9370079" />
    <use
       x="0"
       y="0"
       xlink:href="#path4"
       id="use4"
       transform="translate(20)" />
    <circle
       style="fill:#000000;fill-opacity:1;stroke:#000000;stroke-width:1.51181;stroke-linejoin:round;stroke-miterlimit:10;stroke-dasharray:none;stroke-opacity:1;paint-order:normal"
       id="circle4"
       cx="80.787643"
       cy="44.57999"
       transform="matrix(0.26458333,0,0,0.26458333,-6.133446,15.563878)"
       r="4.7244096" />
    <circle
       style="fill:#ffffff;fill-opacity:1;stroke:#000000;stroke-width:1.51181;stroke-linejoin:round;stroke-miterlimit:10;stroke-dasharray:none;stroke-opacity:1;paint-order:normal"
       id="circle5"
       cx="80.787643"
       cy="44.57999"
       transform="matrix(0.26458333,0,0,0.26458333,13.866554,15.563878)"
       r="4.7244096" />
    <circle
       style="fill:#000000;fill-opacity:1;stroke:#000000;stroke-width:0.907087;stroke-linejoin:round;stroke-miterlimit:10;stroke-dasharray:none;stroke-opacity:1;paint-order:normal"
       id="circle7"
       cx="80.787643"
       cy="44.57999"
       transform="matrix(0.26458333,0,0,0.26458333,-6.133446,18.564078)"
       r="2.8346457" />
    <circle
       style="fill:#ffffff;fill-opacity:1;stroke:#000000;stroke-width:0.907087;stroke-linejoin:round;stroke-miterlimit:10;stroke-dasharray:none;stroke-opacity:1;paint-order:normal"
       id="circle8"
       cx="80.787643"
       cy="44.57999"
       transform="matrix(0.26458333,0,0,0.26458333,13.866554,18.564078)"
       r="2.8346457" />
    <path
       d="m 154.10402,61.821751 h 2.50809 v 4.04787 h 4.36535 v -4.04787 h 2.50809 v 10.603832 h -2.50809 v -4.349476 h -4.36535 v 4.349476 h -2.50809 z m 10.73084,9.238668 q 0,-0.650834 0.44447,-1.095306 0.46034,-0.444472 1.11118,-0.444472 0.31748,0 0.58734,0.126992 0.28573,0.111118 0.49209,0.31748 0.22224,0.206362 0.33335,0.492094 0.127,0.285732 0.127,0.603212 0,0.31748 -0.127,0.603212 -0.11111,0.285732 -0.33335,0.507968 -0.20636,0.206362 -0.49209,0.31748 -0.26986,0.126992 -0.58734,0.126992 -0.65084,0 -1.11118,-0.444472 -0.44447,-0.460346 -0.44447,-1.11118 z m 1.55565,-6.730576 q 0.31748,0 0.58734,0.126992 0.28573,0.111118 0.49209,0.333354 0.22224,0.206362 0.33335,0.492094 0.127,0.285732 0.127,0.603212 0,0.31748 -0.127,0.603212 -0.11111,0.269858 -0.33335,0.47622 -0.20636,0.206362 -0.49209,0.333354 -0.26986,0.111118 -0.58734,0.111118 -0.31748,0 -0.60321,-0.111118 -0.28574,-0.126992 -0.50797,-0.333354 -0.20636,-0.206362 -0.33336,-0.47622 -0.11111,-0.285732 -0.11111,-0.603212 0,-0.650834 0.44447,-1.095306 0.46034,-0.460346 1.11118,-0.460346 z m 7.63539,4.095492 5.15905,-6.603584 h 2.41285 v 6.238482 h 1.46041 v 2.127116 h -1.46041 v 2.238234 h -2.41285 v -2.238234 h -5.15905 z m 2.61921,-0.365102 h 2.53984 v -3.079556 z m 7.60364,3.000186 q 0,-0.650834 0.44447,-1.095306 0.46035,-0.444472 1.11118,-0.444472 0.31748,0 0.58734,0.126992 0.28573,0.111118 0.4921,0.31748 0.22223,0.206362 0.33335,0.492094 0.12699,0.285732 0.12699,0.603212 0,0.31748 -0.12699,0.603212 -0.11112,0.285732 -0.33335,0.507968 -0.20637,0.206362 -0.4921,0.31748 -0.26986,0.126992 -0.58734,0.126992 -0.65083,0 -1.11118,-0.444472 -0.44447,-0.460346 -0.44447,-1.11118 z m 4.28599,1.365164 v -1.98425 l 0.68258,-0.492094 q 0.44447,-0.31748 0.98419,-0.698456 0.55559,-0.39685 1.11118,-0.825448 0.55559,-0.444472 1.06356,-0.904818 0.52384,-0.47622 0.92069,-0.95244 0.41272,-0.492094 0.65083,-0.968314 0.25399,-0.47622 0.25399,-0.920692 0,-0.619086 -0.44448,-0.936566 -0.42859,-0.31748 -1.01593,-0.31748 -0.25399,0 -0.50797,0.0635 -0.23811,0.0635 -0.46035,0.222236 -0.22223,0.142866 -0.39685,0.39685 -0.15874,0.253984 -0.25398,0.619086 l -2.19061,-0.7937 q 0.4286,-1.11118 1.46041,-1.698518 1.04768,-0.603212 2.46047,-0.603212 0.80957,0 1.49215,0.206362 0.69846,0.206362 1.20643,0.603212 0.50796,0.380976 0.7937,0.968314 0.28573,0.571464 0.28573,1.317542 0,0.809574 -0.34923,1.555652 -0.34923,0.730204 -1.00006,1.42866 -0.63496,0.698456 -1.57153,1.381038 -0.92069,0.666708 -2.09537,1.34929 h 5.06381 v 1.98425 h -8.14336 z"
       id="text15"
       style="font-weight:bold;font-size:15.874px;line-height:1;font-family:'Atkinson Hyperlegible';-inkscape-font-specification:'Atkinson Hyperlegible Bold';letter-spacing:0px;text-orientation:upright;stroke-width:0.907087;stroke-linejoin:round;stroke-miterlimit:10"
       transform="matrix(0.26458333,0,0,0.26458333,15.468645,5.2493337)"
       aria-label="H: 4.2" />
    <path
       d="m 160.94116,71.112197 v 1.313386 h -4.51653 v -6.311811 h 1.49291 v 4.998425 z m 0.52914,0.500787 q 0,-0.387401 0.26457,-0.651968 0.27402,-0.264567 0.66142,-0.264567 0.18898,0 0.34961,0.07559 0.17007,0.06614 0.29291,0.188976 0.13228,0.122835 0.19842,0.292913 0.0756,0.170079 0.0756,0.359055 0,0.188977 -0.0756,0.359056 -0.0661,0.170078 -0.19842,0.302362 -0.12284,0.122834 -0.29291,0.188976 -0.16063,0.07559 -0.34961,0.07559 -0.3874,0 -0.66142,-0.264567 -0.26457,-0.274016 -0.26457,-0.661418 z m 0.92599,-4.006299 q 0.18898,0 0.34961,0.07559 0.17007,0.06614 0.29291,0.198425 0.13228,0.122835 0.19842,0.292913 0.0756,0.170079 0.0756,0.359055 0,0.188977 -0.0756,0.359056 -0.0661,0.160629 -0.19842,0.283464 -0.12284,0.122835 -0.29291,0.198425 -0.16063,0.06614 -0.34961,0.06614 -0.18898,0 -0.35906,-0.06614 -0.17008,-0.07559 -0.30236,-0.198425 -0.12283,-0.122835 -0.19842,-0.283464 -0.0661,-0.170079 -0.0661,-0.359056 0,-0.387401 0.26457,-0.651968 0.27402,-0.274016 0.66142,-0.274016 z m 4.64882,4.818898 V 71.24448 l 0.4063,-0.292913 q 0.26457,-0.188976 0.58583,-0.415748 0.3307,-0.23622 0.66141,-0.491339 0.33071,-0.264566 0.63307,-0.538582 0.31181,-0.283465 0.54803,-0.566929 0.24567,-0.292914 0.38741,-0.576378 0.15118,-0.283465 0.15118,-0.548032 0,-0.368504 -0.26457,-0.55748 -0.25512,-0.188977 -0.60472,-0.188977 -0.15118,0 -0.30237,0.0378 -0.14173,0.0378 -0.27401,0.132283 -0.13229,0.08504 -0.23622,0.236221 -0.0945,0.151181 -0.15118,0.368504 l -1.30394,-0.472441 q 0.25512,-0.661418 0.86929,-1.011024 0.62362,-0.359055 1.46457,-0.359055 0.48189,0 0.88819,0.122835 0.41575,0.122834 0.71811,0.359055 0.30236,0.226771 0.47244,0.576378 0.17008,0.340157 0.17008,0.784252 0,0.481889 -0.20788,0.925984 -0.20787,0.434646 -0.59527,0.850394 -0.37796,0.415748 -0.93544,0.822047 -0.54803,0.39685 -1.24724,0.803149 h 3.01417 v 1.181103 h -4.84724 z m 5.60315,-0.812599 q 0,-0.387401 0.26457,-0.651968 0.27401,-0.264567 0.66142,-0.264567 0.18897,0 0.3496,0.07559 0.17008,0.06614 0.29292,0.188976 0.13228,0.122835 0.19842,0.292913 0.0756,0.170079 0.0756,0.359055 0,0.188977 -0.0756,0.359056 -0.0661,0.170078 -0.19842,0.302362 -0.12284,0.122834 -0.29292,0.188976 -0.16063,0.07559 -0.3496,0.07559 -0.38741,0 -0.66142,-0.264567 -0.26457,-0.274016 -0.26457,-0.661418 z m 2.61733,-0.500787 1.24724,-0.453543 q 0.13229,0.462992 0.4252,0.642519 0.30236,0.170079 0.65197,0.170079 0.50079,0 0.82205,-0.283464 0.32126,-0.292914 0.32126,-0.850394 0,-0.292914 -0.0945,-0.500788 -0.085,-0.217322 -0.24567,-0.359055 -0.15118,-0.141732 -0.35906,-0.207874 -0.19842,-0.06614 -0.41574,-0.06614 -0.69922,0 -1.03937,0.614173 l -1.27559,-0.472441 0.39685,-3.231496 h 4.22362 v 1.171653 h -3.03307 l -0.14173,1.181103 q 0.21732,-0.16063 0.56692,-0.24567 0.35906,-0.08504 0.68977,-0.08504 0.4252,0 0.82205,0.141732 0.39685,0.132284 0.69921,0.415748 0.31181,0.274016 0.50079,0.689764 0.18897,0.406299 0.18897,0.954331 0,0.538583 -0.20787,0.954331 -0.20788,0.415748 -0.55748,0.689763 -0.34961,0.274016 -0.8126,0.415748 -0.46299,0.141733 -0.97323,0.141733 -0.8315,0 -1.46457,-0.359055 -0.63307,-0.359056 -0.93543,-1.067717 z"
       id="text16"
       style="font-weight:bold;font-size:9.44882px;line-height:1;font-family:'Atkinson Hyperlegible';-inkscape-font-specification:'Atkinson Hyperlegible Bold';letter-spacing:0px;text-orientation:upright;stroke-width:0.907087;stroke-linejoin:round;stroke-miterlimit:10"
       transform="matrix(0.26458333,0,0,0.26458333,16.52545,9.0313971)"
       aria-label="L: 2.5" />
    <path
       d="m 144.549,70.481016 -1.3096,-1.842519 h 1.07149 l 0.77102,1.088504 0.7767,-1.088504 h 1.07149 l -1.3096,1.842519 1.38897,1.944567 h -1.07716 l -0.8504,-1.19622 -0.84472,1.19622 h -1.07716 z m 2.6022,-1.842519 h 3.32788 v 0.788031 h -1.2189 v 2.999055 h -0.89008 v -2.999055 h -1.2189 z m 3.64536,3.299527 q 0,-0.232441 0.15874,-0.391181 0.16441,-0.15874 0.39685,-0.15874 0.11339,0 0.20976,0.04535 0.10205,0.03968 0.17575,0.113386 0.0794,0.0737 0.11906,0.175748 0.0454,0.102047 0.0454,0.215433 0,0.113386 -0.0454,0.215433 -0.0397,0.102047 -0.11906,0.181417 -0.0737,0.0737 -0.17575,0.113386 -0.0964,0.04535 -0.20976,0.04535 -0.23244,0 -0.39685,-0.15874 -0.15874,-0.164409 -0.15874,-0.39685 z m 0.55559,-2.403779 q 0.11339,0 0.20976,0.04535 0.10205,0.03968 0.17575,0.119055 0.0794,0.0737 0.11906,0.175748 0.0454,0.102048 0.0454,0.215433 0,0.113386 -0.0454,0.215433 -0.0397,0.09638 -0.11906,0.170079 -0.0737,0.0737 -0.17575,0.119055 -0.0964,0.03968 -0.20976,0.03968 -0.11339,0 -0.21543,-0.03968 -0.10205,-0.04535 -0.18142,-0.119055 -0.0737,-0.0737 -0.11906,-0.170079 -0.0397,-0.102047 -0.0397,-0.215433 0,-0.232441 0.15874,-0.391181 0.16441,-0.164409 0.39685,-0.164409 z m 2.86299,0.351496 v -0.697323 q 0.2211,0 0.38551,-0.01134 0.17008,-0.01701 0.29481,-0.0737 0.12472,-0.05669 0.21543,-0.16441 0.0964,-0.107716 0.17008,-0.300472 h 0.65197 v 3.787086 h -0.85607 V 69.88574 Z m 2.50583,2.052283 q 0,-0.232441 0.15874,-0.391181 0.16441,-0.15874 0.39685,-0.15874 0.11338,0 0.20976,0.04535 0.10205,0.03968 0.17575,0.113386 0.0794,0.0737 0.11905,0.175748 0.0454,0.102047 0.0454,0.215433 0,0.113386 -0.0454,0.215433 -0.0397,0.102047 -0.11905,0.181417 -0.0737,0.0737 -0.17575,0.113386 -0.0964,0.04535 -0.20976,0.04535 -0.23244,0 -0.39685,-0.15874 -0.15874,-0.164409 -0.15874,-0.39685 z m 1.57039,-0.300472 0.74835,-0.272126 q 0.0794,0.277795 0.25512,0.385511 0.18142,0.102048 0.39118,0.102048 0.30047,0 0.49323,-0.170079 0.19275,-0.175748 0.19275,-0.510236 0,-0.175748 -0.0567,-0.300473 -0.051,-0.130393 -0.1474,-0.215433 -0.0907,-0.08504 -0.21543,-0.124724 -0.11906,-0.03968 -0.24945,-0.03968 -0.41953,0 -0.62363,0.368504 l -0.76535,-0.283465 0.23811,-1.938897 h 2.53417 v 0.702992 h -1.81984 l -0.085,0.708661 q 0.1304,-0.09638 0.34016,-0.147401 0.21543,-0.05102 0.41386,-0.05102 0.25512,0 0.49323,0.08504 0.23811,0.07937 0.41952,0.249448 0.18709,0.16441 0.30048,0.413858 0.11338,0.24378 0.11338,0.572599 0,0.323149 -0.12472,0.572598 -0.12473,0.249449 -0.33449,0.413858 -0.20976,0.16441 -0.48756,0.249449 -0.27779,0.08504 -0.58394,0.08504 -0.49889,0 -0.87874,-0.215433 -0.37984,-0.215433 -0.56126,-0.640629 z"
       id="text17"
       style="font-weight:bold;font-size:5.66929px;line-height:1;font-family:'Atkinson Hyperlegible';-inkscape-font-specification:'Atkinson Hyperlegible Bold';letter-spacing:0px;text-orientation:upright;stroke-width:0.907087;stroke-linejoin:round;stroke-miterlimit:10"
       transform="matrix(0.26458333,0,0,0.26458333,19.447546,11.688597)"
       aria-label="XT: 1.5" />
  </g>
</svg>
