<?xml version="1.0" encoding="UTF-8" standalone="no"?>
<!-- Created with Inkscape (http://www.inkscape.org/) -->

<svg
   version="1.1"
   id="svg824"
   width="60mm"
   height="60mm"
   viewBox="0 0 60.000001 60"
   xmlns="http://www.w3.org/2000/svg"
   xmlns:svg="http://www.w3.org/2000/svg">
  <defs
     id="defs828">
    <linearGradient
       id="linearGradient8072">
      <stop
         style="stop-color:#ffff00;stop-opacity:1;"
         offset="0"
         id="stop8070" />
    </linearGradient>
  </defs>
  <g
     id="layer4"
     style="display:inline">
    <path
       style="fill:#000000;fill-opacity:1;stroke:none;stroke-width:0.264583px;stroke-linecap:butt;stroke-linejoin:miter;stroke-opacity:1"
       d="M 0,59.999998 V 59 h 18 v 0.999996 l -18,2e-6"
       id="path16079" />
    <path
       style="fill:#000000;fill-opacity:1;stroke:none;stroke-width:0.264583px;stroke-linecap:butt;stroke-linejoin:miter;stroke-opacity:1"
       d="M 0,57.999998 V 57 h 18 v 0.999996 l -18,2e-6"
       id="path16079-2" />
    <path
       style="fill:#000000;fill-opacity:1;stroke:none;stroke-width:0.264583px;stroke-linecap:butt;stroke-linejoin:miter;stroke-opacity:1"
       d="m 0,56 v -0.999998 h 18 v 0.999996 L 0,56"
       id="path16079-28" />
    <path
       style="fill:#000000;fill-opacity:1;stroke:none;stroke-width:0.264583px;stroke-linecap:butt;stroke-linejoin:miter;stroke-opacity:1"
       d="m 0,54 v -0.999998 h 18 v 0.999996 L 0,54"
       id="path16079-2-8" />
    <path
       style="fill:#000000;fill-opacity:1;stroke:none;stroke-width:0.264583px;stroke-linecap:butt;stroke-linejoin:miter;stroke-opacity:1"
       d="M 0,51.999998 V 51 h 18 v 0.999996 l -18,2e-6"
       id="path16079-2-87" />
    <path
       style="fill:#000000;fill-opacity:1;stroke:none;stroke-width:0.264583px;stroke-linecap:butt;stroke-linejoin:miter;stroke-opacity:1"
       d="m 0,50 v -0.999998 h 18 v 0.999996 L 0,50"
       id="path16079-28-1" />
    <path
       style="fill:#000000;fill-opacity:1;stroke:none;stroke-width:0.264583px;stroke-linecap:butt;stroke-linejoin:miter;stroke-opacity:1"
       d="m 0,48 v -0.999998 h 18 v 0.999996 L 0,48"
       id="path16079-2-8-2" />
    <path
       style="fill:#000000;fill-opacity:1;stroke:none;stroke-width:0.264583px;stroke-linecap:butt;stroke-linejoin:miter;stroke-opacity:1"
       d="m 42,59.999994 v -0.999998 h 18 v 0.999996 l -18,2e-6"
       id="path16079-5" />
    <path
       style="fill:#000000;fill-opacity:1;stroke:none;stroke-width:0.264583px;stroke-linecap:butt;stroke-linejoin:miter;stroke-opacity:1"
       d="m 42,57.999994 v -0.999998 h 18 v 0.999996 l -18,2e-6"
       id="path16079-2-5" />
    <path
       style="fill:#000000;fill-opacity:1;stroke:none;stroke-width:0.264583px;stroke-linecap:butt;stroke-linejoin:miter;stroke-opacity:1"
       d="m 42,55.999996 v -0.999998 h 18 v 0.999996 l -18,2e-6"
       id="path16079-28-3" />
    <path
       style="fill:#000000;fill-opacity:1;stroke:none;stroke-width:0.264583px;stroke-linecap:butt;stroke-linejoin:miter;stroke-opacity:1"
       d="m 42,53.999996 v -0.999998 h 18 v 0.999996 l -18,2e-6"
       id="path16079-2-8-8" />
    <path
       style="fill:#000000;fill-opacity:1;stroke:none;stroke-width:0.264583px;stroke-linecap:butt;stroke-linejoin:miter;stroke-opacity:1"
       d="m 42,51.999994 v -0.999998 h 18 v 0.999996 l -18,2e-6"
       id="path16079-2-87-9" />
    <path
       style="fill:#000000;fill-opacity:1;stroke:none;stroke-width:0.264583px;stroke-linecap:butt;stroke-linejoin:miter;stroke-opacity:1"
       d="m 42,49.999996 v -0.999998 h 18 v 0.999996 l -18,2e-6"
       id="path16079-28-1-8" />
    <path
       style="fill:#000000;fill-opacity:1;stroke:none;stroke-width:0.264583px;stroke-linecap:butt;stroke-linejoin:miter;stroke-opacity:1"
       d="m 42,47.999996 v -0.999998 h 18 v 0.999996 l -18,2e-6"
       id="path16079-2-8-2-5" />
    <path
       style="fill:#000000;fill-opacity:1;stroke:none;stroke-width:0.264583px;stroke-linecap:butt;stroke-linejoin:miter;stroke-opacity:1"
       d="m 27.333337,59 0.666662,0.999998 h 4 L 32.666664,59 h -5.333327"
       id="path16649" />
    <path
       style="fill:#000000;fill-opacity:1;stroke:none;stroke-width:0.264583px;stroke-linecap:butt;stroke-linejoin:miter;stroke-opacity:1"
       d="M 26.000002,56.999999 26.666669,58 H 33.33333 L 33.999998,56.999999 26,56.999996"
       id="path16684" />
    <path
       style="fill:#000000;fill-opacity:1;stroke:none;stroke-width:0.264583px;stroke-linecap:butt;stroke-linejoin:miter;stroke-opacity:1"
       d="M 34.666663,55.999998 35.333331,55 H 24.666669 l 0.666667,0.999998 h 9.333327"
       id="path16719" />
    <path
       style="fill:#000000;fill-opacity:1;stroke:none;stroke-width:0.264583px;stroke-linecap:butt;stroke-linejoin:miter;stroke-opacity:1"
       d="m 35.999996,54 0.666668,-1.000001 H 23.333336 L 24,53.999995 Z"
       id="path16754" />
    <path
       style="fill:#000000;fill-opacity:1;stroke:none;stroke-width:0.264583px;stroke-linecap:butt;stroke-linejoin:miter;stroke-opacity:1"
       d="M 37.33333,51.999999 37.999998,51.000001 22,50.999995 l 0.666669,1.000004 z"
       id="path16887" />
    <path
       style="fill:#000000;fill-opacity:1;stroke:none;stroke-width:0.264583px;stroke-linecap:butt;stroke-linejoin:miter;stroke-opacity:1"
       d="m 38.666663,50 0.666668,-1.000001 H 20.666669 L 21.333336,50 Z"
       id="path17053" />
    <path
       style="fill:#000000;fill-opacity:1;stroke:none;stroke-width:0.264583px;stroke-linecap:butt;stroke-linejoin:miter;stroke-opacity:1"
       d="m 39.999999,47.999999 0.666665,-0.999998 c 0,0 -21.333328,0 -21.333328,0 L 20,47.999996 h 19.999999"
       id="path17055" />
    <path
       style="display:inline;fill:#000000;fill-opacity:1;stroke:none;stroke-width:0.264583px;stroke-linecap:butt;stroke-linejoin:miter;stroke-opacity:1"
       d="M 60,15 H 32.000001 l 0.666665,-1 H 60 Z"
       id="path17321-2" />
    <path
       style="display:inline;fill:#000000;fill-opacity:1;stroke:none;stroke-width:0.264583px;stroke-linecap:butt;stroke-linejoin:miter;stroke-opacity:1"
       d="M 33.333334,13 34,12 h 26 v 1 z"
       id="path17323-4" />
    <path
       style="display:inline;fill:#000000;fill-opacity:1;stroke:none;stroke-width:0.264583px;stroke-linecap:butt;stroke-linejoin:miter;stroke-opacity:1"
       d="M 34.666666,11 35.333333,9.9999999 H 60 V 11 Z"
       id="path17325-5" />
    <path
       style="display:inline;fill:#000000;fill-opacity:1;stroke:none;stroke-width:0.264583px;stroke-linecap:butt;stroke-linejoin:miter;stroke-opacity:1"
       d="M 36,8.9999999 36.666666,7.9999998 H 60 v 1.0000001 z"
       id="path17327-2" />
    <path
       style="display:inline;fill:#000000;fill-opacity:1;stroke:none;stroke-width:0.264583px;stroke-linecap:butt;stroke-linejoin:miter;stroke-opacity:1"
       d="M 37.333333,6.9999997 38,5.9999988 l 22,1e-6 V 6.9999997 H 37.333333"
       id="path17329-2" />
    <path
       style="display:inline;fill:#000000;fill-opacity:1;stroke:none;stroke-width:0.264583px;stroke-linecap:butt;stroke-linejoin:miter;stroke-opacity:1"
       d="M 38.666666,4.9999997 39.333333,3.9999999 H 60 v 0.9999998 z"
       id="path17331-1" />
    <path
       style="display:inline;fill:#000000;fill-opacity:1;stroke:none;stroke-width:0.264583px;stroke-linecap:butt;stroke-linejoin:miter;stroke-opacity:1"
       d="M 40,2.9999985 40.666666,1.9999999 H 60 v 0.9999999 z"
       id="path17333-7" />
    <path
       style="display:inline;fill:#000000;fill-opacity:1;stroke:none;stroke-width:0.264583px;stroke-linecap:butt;stroke-linejoin:miter;stroke-opacity:1"
       d="M 41.333333,0.9999999 42,-1.8e-6 60,-1e-7 v 1 z"
       id="path17335-4" />
    <path
       style="display:inline;fill:#000000;fill-opacity:1;stroke:none;stroke-width:0.264583px;stroke-linecap:butt;stroke-linejoin:miter;stroke-opacity:1"
       d="M 0,15 H 27.999999 L 27.333334,14 H 0 Z"
       id="path17321-2-6" />
    <path
       style="display:inline;fill:#000000;fill-opacity:1;stroke:none;stroke-width:0.264583px;stroke-linecap:butt;stroke-linejoin:miter;stroke-opacity:1"
       d="M 26.666666,13 26,12 H 0 v 1 z"
       id="path17323-4-7" />
    <path
       style="display:inline;fill:#000000;fill-opacity:1;stroke:none;stroke-width:0.264583px;stroke-linecap:butt;stroke-linejoin:miter;stroke-opacity:1"
       d="M 25.333334,11 24.666667,9.9999999 H 0 V 11 Z"
       id="path17325-5-3" />
    <path
       style="display:inline;fill:#000000;fill-opacity:1;stroke:none;stroke-width:0.264583px;stroke-linecap:butt;stroke-linejoin:miter;stroke-opacity:1"
       d="m 24,8.9999999 -0.666666,-1 H 0 v 1 z"
       id="path17327-2-2" />
    <path
       style="display:inline;fill:#000000;fill-opacity:1;stroke:none;stroke-width:0.264583px;stroke-linecap:butt;stroke-linejoin:miter;stroke-opacity:1"
       d="M 22.666667,6.9999998 22,5.9999989 l -22,1e-6 v 0.9999999 h 22.666667"
       id="path17329-2-0" />
    <path
       style="display:inline;fill:#000000;fill-opacity:1;stroke:none;stroke-width:0.264583px;stroke-linecap:butt;stroke-linejoin:miter;stroke-opacity:1"
       d="M 21.333334,4.9999998 20.666667,4 H 0 v 0.9999998 z"
       id="path17331-1-2" />
    <path
       style="display:inline;fill:#000000;fill-opacity:1;stroke:none;stroke-width:0.264583px;stroke-linecap:butt;stroke-linejoin:miter;stroke-opacity:1"
       d="M 20,2.9999986 19.333334,2 H 0 v 0.9999999 z"
       id="path17333-7-2" />
    <path
       style="display:inline;fill:#000000;fill-opacity:1;stroke:none;stroke-width:0.264583px;stroke-linecap:butt;stroke-linejoin:miter;stroke-opacity:1"
       d="M 18.666667,1 18,-1.73e-6 0,0 v 1 z"
       id="path17335-4-2" />
    <path
       style="fill:#000000;fill-opacity:1;stroke:none;stroke-width:0.264583px;stroke-linecap:butt;stroke-linejoin:miter;stroke-opacity:1"
       d="M 0,26 V 46 H 59.999998 V 44.999999 H 20 v -1 H 59.999998 V 43.000001 H 20 V 42 h 39.999998 c 2e-6,-12 2e-6,0 0,-12 H 20 V 29 H 59.999998 V 27.999999 H 20 v -1 H 59.999998 V 26 Z"
       id="path17873" />
    <path
       style="fill:#000000;fill-opacity:1;stroke:none;stroke-width:0.264583px;stroke-linecap:butt;stroke-linejoin:miter;stroke-opacity:1"
       d="M 28.000002,59.999998 27.333337,59 h 5.333327 l -0.666668,0.999998 z"
       id="path18629" />
    <path
       style="fill:#000000;fill-opacity:1;stroke:none;stroke-width:0.264583px;stroke-linecap:butt;stroke-linejoin:miter;stroke-opacity:1"
       d="m 26.666669,58 -0.666667,-1.000001 h 7.999996 L 33.33333,58 Z"
       id="path18631" />
    <path
       style="fill:#000000;fill-opacity:1;stroke:none;stroke-width:0.264583px;stroke-linecap:butt;stroke-linejoin:miter;stroke-opacity:1"
       d="M 25.333336,55.999998 24.666669,55 h 10.666662 l -0.666668,0.999998 h -9.333327"
       id="path18633" />
    <path
       style="fill:#000000;fill-opacity:1;stroke:none;stroke-width:0.264583px;stroke-linecap:butt;stroke-linejoin:miter;stroke-opacity:1"
       d="M 24,53.999995 23.333336,52.999999 H 36.666664 L 35.999996,54 Z"
       id="path18635" />
    <path
       style="fill:#000000;fill-opacity:1;stroke:none;stroke-width:0.264583px;stroke-linecap:butt;stroke-linejoin:miter;stroke-opacity:1"
       d="M 22.666669,51.999999 22.000002,51.000001 38,50.999995 37.33333,51.999999 Z"
       id="path18637" />
    <path
       style="fill:#000000;fill-opacity:1;stroke:none;stroke-width:0.264583px;stroke-linecap:butt;stroke-linejoin:miter;stroke-opacity:1"
       d="m 21.333336,50 c 0,0 -0.666667,-1.000001 -0.666667,-1.000001 H 39.333331 L 38.666663,50 Z"
       id="path18639" />
    <path
       style="fill:#000000;fill-opacity:1;stroke:none;stroke-width:0.264583px;stroke-linecap:butt;stroke-linejoin:miter;stroke-opacity:1"
       d="m 20.000002,47.999999 -0.666666,-0.999998 h 21.333328 l -0.666665,0.999998 z"
       id="path18641" />
  </g>
  <g
     id="layer3"
     style="display:inline">
    <g
       aria-label="M A ́ K O S"
       transform="matrix(0.26458333,0,0,0.26458333,-5.9821259,0.12562698)"
       id="text5106"
       style="font-weight:900;font-size:30.2362px;font-family:AkzidenzGrotesk;-inkscape-font-specification:'AkzidenzGrotesk Heavy';text-align:center;word-spacing:10px;text-anchor:middle;stroke-width:11.339;stroke-dashoffset:15.1181;paint-order:fill markers stroke">
      <path
         d="m 41.323316,66.607545 h 7.891648 l 3.809762,15.99495 h 0.06047 l 3.930706,-15.99495 h 7.80094 v 21.528174 h -5.07968 V 71.415101 H 59.67669 L 55.413385,88.135719 H 50.666302 L 46.282053,71.415101 h -0.06047 v 16.720618 h -4.898264 z"
         style="letter-spacing:0.45px"
         id="path896" />
      <path
         d="m 94.130674,66.607545 h 5.56346 l 8.133536,21.528174 h -5.77511 l -1.08851,-3.386454 h -7.952116 l -1.088503,3.386454 h -5.744878 z m 5.533224,14.150541 -2.660785,-8.889442 h -0.06047 l -2.660785,8.889442 z"
         style="letter-spacing:0px;word-spacing:0px"
         id="path898" />
      <path
         d="m 111.64393,63.391641 v 0.295276 l -5.19685,5.506886 h -3.63189 l 3.64665,-5.802162 z"
         style="letter-spacing:0px;word-spacing:0px"
         id="path900" />
      <path
         d="m 129.816,66.607545 h 5.38205 v 8.587081 l 7.71023,-8.587081 h 7.13574 l -7.83117,8.163774 8.07306,13.3644 h -5.98677 l -5.86582,-9.554639 -3.23527,3.295746 v 6.258893 H 129.816 Z"
         id="path902" />
      <path
         d="m 186.07736,77.371632 q 0,-1.26992 -0.30236,-2.479368 -0.30236,-1.239685 -0.96756,-2.207243 -0.63496,-0.967558 -1.69322,-1.542046 -1.05827,-0.604724 -2.53985,-0.604724 -1.17921,0 -2.20724,0.39307 -0.99779,0.393071 -1.72346,1.209448 -0.72567,0.816378 -1.14898,2.116534 -0.4233,1.300157 -0.4233,3.114329 0,1.179212 0.24189,2.38866 0.27212,1.209448 0.90708,2.207242 0.63496,0.997795 1.69323,1.632755 1.05827,0.604724 2.66078,0.604724 1.48158,0 2.53985,-0.604724 1.05826,-0.604724 1.69322,-1.572282 0.6652,-0.967559 0.96756,-2.177007 0.30236,-1.239684 0.30236,-2.479368 z m 5.38205,0 q 0,2.267715 -0.75591,4.323777 -0.72567,2.056061 -2.11653,3.628344 -1.39087,1.572282 -3.41669,2.509604 -2.02583,0.907086 -4.59591,0.907086 -2.57007,0 -4.5959,-0.907086 -2.02582,-0.937322 -3.41669,-2.509604 -1.39086,-1.572283 -2.14677,-3.628344 -0.72567,-2.056062 -0.72567,-4.323777 0,-2.267715 0.72567,-4.323777 0.75591,-2.056061 2.14677,-3.628344 1.39087,-1.572282 3.41669,-2.479368 2.02583,-0.937322 4.5959,-0.937322 2.57008,0 4.59591,0.937322 2.02582,0.907086 3.41669,2.479368 1.39086,1.572283 2.11653,3.628344 0.75591,2.056062 0.75591,4.323777 z"
         id="path904" />
      <path
         d="m 215.18663,81.695409 q 1.4211,1.26992 2.8422,1.995589 1.45134,0.695432 3.38645,0.695432 0.54425,0 1.23969,-0.120944 0.69543,-0.120945 1.30015,-0.393071 0.63496,-0.302362 1.05827,-0.786141 0.42331,-0.483779 0.42331,-1.179212 0,-0.816377 -0.60473,-1.239684 -0.60472,-0.453543 -1.81417,-0.665197 l -4.47496,-0.725668 q -3.02362,-0.48378 -4.5959,-1.99559 -1.57228,-1.542046 -1.57228,-3.930706 0,-1.935116 0.72567,-3.325982 0.72567,-1.421101 1.93511,-2.297951 1.23969,-0.87685 2.81197,-1.300157 1.60252,-0.423306 3.32598,-0.423306 2.69103,0 5.17039,1.058267 2.50961,1.058267 4.32378,3.084092 l -4.08189,2.932912 q -1.05826,-1.300157 -2.57007,-1.99559 -1.48158,-0.725668 -3.20504,-0.725668 -0.45354,0 -0.9978,0.151181 -0.54425,0.151181 -0.99779,0.423306 -0.45354,0.272126 -0.75591,0.695433 -0.30236,0.393071 -0.30236,0.907086 0,0.87685 0.72567,1.360629 0.72567,0.453543 2.26772,0.695433 l 2.05606,0.332598 q 1.60252,0.272126 3.02362,0.695432 1.4211,0.393071 2.47937,1.088504 1.0885,0.695432 1.69322,1.753699 0.63496,1.058267 0.63496,2.600313 0,2.418896 -0.96755,3.930706 -0.96756,1.51181 -2.44914,2.358424 -1.48157,0.816377 -3.20503,1.088503 -1.72347,0.302362 -3.23528,0.302362 -2.75149,0 -5.14015,-0.967558 -2.35843,-0.997795 -4.56567,-3.416691 z"
         id="path906" />
    </g>
    <g
       aria-label="T"
       transform="matrix(0.2250457,0,0,0.18003655,-2.8755908,8.4056276)"
       id="text126279"
       style="font-weight:900;font-size:101.415px;font-family:AkzidenzGrotesk;-inkscape-font-specification:'AkzidenzGrotesk Heavy';text-align:center;text-anchor:middle;fill:#ffffff;stroke-width:14.9046;stroke-dashoffset:15.1181;paint-order:fill markers stroke">
      <path
         d="m 29.324105,117.16718 h 55.77825 v 13.99527 h -18.86319 v 58.21221 h -18.05187 v -58.21221 h -18.86319 z"
         id="path893" />
    </g>
    <g
       aria-label="E ́S Z T A"
       transform="matrix(0.23487811,0,0,0.23487811,-9.5646122,4.9772053)"
       id="text147656"
       style="font-weight:900;font-size:34.0157px;font-family:AkzidenzGrotesk;-inkscape-font-specification:'AkzidenzGrotesk Heavy';text-align:center;word-spacing:0px;text-anchor:middle;fill:#ffffff;stroke-width:12.773;stroke-dashoffset:15.1181;paint-order:fill markers stroke">
      <path
         d="m 134.47054,144.59441 v -24.21918 h 17.82422 v 4.69416 h -11.76943 v 4.42204 h 10.98707 v 4.69417 h -10.98707 v 5.71464 h 12.7899 v 4.69417 z"
         style="word-spacing:5px"
         id="path880" />
      <path
         d="m 163.35688,116.75734 v 0.33218 l -5.84644,6.19525 h -4.08587 l 4.10248,-6.52743 z"
         style="word-spacing:5px"
         id="path882" />
      <path
         d="m 173.31618,137.34906 q 1.59874,1.42866 3.19747,2.24504 1.63276,0.78236 3.80976,0.78236 0.61228,0 1.39465,-0.13606 0.78236,-0.13607 1.46267,-0.44221 0.71433,-0.34015 1.19055,-0.88441 0.47622,-0.54425 0.47622,-1.32661 0,-0.91842 -0.68031,-1.39464 -0.68032,-0.51024 -2.04095,-0.74835 l -5.03432,-0.81637 q -3.40157,-0.54426 -5.17039,-2.24504 -1.76881,-1.7348 -1.76881,-4.42204 0,-2.17701 0.81637,-3.74173 0.81638,-1.59874 2.17701,-2.58519 1.39464,-0.98646 3.16346,-1.46268 1.80283,-0.47622 3.74173,-0.47622 3.02739,0 5.81668,1.19055 2.8233,1.19055 4.86425,3.4696 l -4.59212,3.29953 q -1.19055,-1.46268 -2.89134,-2.24504 -1.66677,-0.81638 -3.60566,-0.81638 -0.51024,0 -1.12252,0.17008 -0.61228,0.17008 -1.12252,0.47622 -0.51023,0.30614 -0.85039,0.78236 -0.34016,0.44221 -0.34016,1.02047 0,0.98646 0.81638,1.53071 0.81638,0.51024 2.55118,0.78236 l 2.31306,0.37417 q 1.80284,0.30615 3.40157,0.78237 1.59874,0.4422 2.78929,1.22456 1.22457,0.78236 1.90488,1.97291 0.71433,1.19055 0.71433,2.92535 0,2.72126 -1.0885,4.42204 -1.0885,1.70079 -2.75527,2.65323 -1.66677,0.91842 -3.60567,1.22456 -1.93889,0.34016 -3.63968,0.34016 -3.09543,0 -5.78267,-1.0885 -2.65322,-1.12252 -5.13637,-3.84378 z"
         id="path884" />
      <path
         d="m 223.38727,139.90024 v 4.69417 h -20.78359 v -4.52409 l 13.47022,-15.00093 h -12.41573 v -4.69416 h 19.79713 v 4.72818 l -13.30014,14.79683 z"
         id="path886" />
      <path
         d="m 234.5444,120.37523 h 18.70863 v 4.69416 h -6.32692 v 19.52502 h -6.05479 v -19.52502 h -6.32692 z"
         id="path888" />
      <path
         d="m 272.16574,120.37523 h 6.25889 l 9.15022,24.21918 h -6.497 l -1.22456,-3.80976 h -8.94613 l -1.22457,3.80976 h -6.46298 z m 6.22487,15.91935 -2.99338,-10.00062 h -0.068 l -2.99338,10.00062 z"
         id="path890" />
    </g>
  </g>
</svg>
